<svg width="1024" height="1024" viewBox="0 0 1024 1024" fill="none" xmlns="http://www.w3.org/2000/svg">
<circle cx="511" cy="512" r="485" stroke="#AD0D0F" stroke-width="20"/>
<g clip-path="url(#clip0)">
<path d="M583.12 349.558C583.12 349.558 583.119 349.56 583.118 349.562C583.119 349.559 583.12 349.558 583.12 349.558Z" fill="white" stroke="#AD0D0F"/>
<mask id="path-3-inside-1" fill="white">
<path d="M413.265 349.831H413.966C413.81 348.459 413.265 349.831 413.265 349.831Z"/>
</mask>
<path d="M413.265 349.831H413.966C413.81 348.459 413.265 349.831 413.265 349.831Z" fill="white"/>
<path d="M413.265 349.831L412.336 349.461L411.792 350.831H413.265V349.831ZM413.966 349.831V350.831H415.086L414.96 349.718L413.966 349.831ZM413.265 350.831H413.966V348.831H413.265V350.831ZM414.96 349.718C414.936 349.512 414.901 349.313 414.844 349.134C414.794 348.978 414.691 348.712 414.451 348.502C414.137 348.224 413.721 348.157 413.355 348.281C413.076 348.375 412.897 348.556 412.817 348.644C412.642 348.837 412.519 349.07 412.458 349.191C412.422 349.263 412.393 349.327 412.372 349.374C412.362 349.398 412.354 349.417 412.348 349.432C412.345 349.44 412.342 349.446 412.34 349.451C412.339 349.453 412.338 349.455 412.338 349.457C412.337 349.458 412.337 349.459 412.337 349.459C412.336 349.46 412.336 349.46 412.336 349.46C412.336 349.46 412.336 349.461 412.336 349.461C412.336 349.461 412.336 349.461 413.265 349.831C414.194 350.2 414.194 350.2 414.194 350.2C414.194 350.2 414.194 350.201 414.194 350.201C414.194 350.201 414.194 350.201 414.194 350.201C414.194 350.202 414.194 350.202 414.194 350.202C414.193 350.203 414.193 350.203 414.193 350.203C414.193 350.202 414.194 350.201 414.195 350.199C414.197 350.194 414.2 350.186 414.205 350.175C414.215 350.152 414.23 350.119 414.247 350.085C414.265 350.049 414.282 350.018 414.297 349.994C414.314 349.966 414.315 349.969 414.297 349.989C414.287 350 414.262 350.026 414.221 350.058C414.181 350.088 414.106 350.138 413.996 350.175C413.881 350.214 413.724 350.239 413.546 350.205C413.367 350.171 413.227 350.088 413.13 350.003C413.039 349.923 412.99 349.844 412.968 349.805C412.956 349.783 412.948 349.766 412.944 349.756C412.942 349.751 412.94 349.747 412.94 349.744C412.939 349.741 412.938 349.74 412.938 349.74C412.938 349.74 412.938 349.741 412.939 349.743C412.94 349.746 412.941 349.749 412.942 349.754C412.944 349.763 412.947 349.776 412.95 349.793C412.957 349.829 412.965 349.878 412.972 349.944L414.96 349.718Z" fill="#AD0D0F" mask="url(#path-3-inside-1)"/>
<path d="M619.945 353.566L620.31 353.464L703.554 330.166C709.092 328.613 714.993 331.945 716.539 337.471L716.057 337.606L716.539 337.471C718.087 343.009 714.762 348.908 709.233 350.454L661.66 363.769L619.945 353.566ZM619.945 353.566V353.945M619.945 353.566V353.945M619.945 353.945V354.511V354.909L620.333 354.999L660.295 364.18L660.455 364.217M619.945 353.945L660.455 364.217M660.455 364.217L660.606 364.152M660.455 364.217L660.606 364.152M660.606 364.152C660.952 364.002 661.3 363.87 661.66 363.769L660.606 364.152ZM696.175 371.459L696.198 372.428L734.234 381.168C741.325 382.797 747.356 387.09 751.22 393.258L751.644 392.992L751.22 393.258C756.748 402.08 756.715 413.585 751.103 422.368C744.97 431.962 733.134 436.82 722.033 434.269L615.3 409.747L613.979 409.443L614.786 410.532C623.362 422.095 633.588 433.483 644.316 445.406C675.926 480.536 711.66 520.259 723.686 584.395C729.443 615.097 729.247 643.809 723.117 669.737C717.395 693.942 706.497 715.847 690.728 734.849C669.793 760.074 641.02 779.661 605.189 793.056C572.913 805.122 535.937 811.502 498.261 811.502C460.586 811.502 423.611 805.122 391.334 793.056C355.503 779.661 326.73 760.075 305.795 734.849C290.026 715.847 279.128 693.941 273.405 669.737L272.919 669.852L273.405 669.737C267.275 643.809 267.08 615.098 272.837 584.395C284.863 520.258 320.598 480.535 352.208 445.405C367.064 428.895 381.247 413.116 391.183 396.475L391.573 395.822L390.818 395.723C377.474 393.972 367.135 382.534 367.135 368.72C367.135 353.7 379.357 341.478 394.377 341.478H394.71H395.719L395.108 340.676C380.142 321.013 365.21 294.987 357.805 250.561C356.709 243.97 363.793 238.721 369.782 241.715L370.005 241.268L369.782 241.715C393.481 253.566 424.748 257.208 454.841 256.286L455.426 256.268L455.317 255.693C453.342 245.278 449.748 234.937 443.878 225.153C440.199 219.02 445.808 211.196 452.786 212.685C476.773 217.803 514.923 221.609 545.574 221.946C575.408 222.271 605.742 219.237 638.27 212.666C643.361 211.64 648.277 215.665 648.277 220.855C648.277 226.427 646.797 233.886 644.297 242.452C641.799 251.009 638.293 260.635 634.266 270.53C626.211 290.32 616.078 311.156 607.776 326.607L607.562 327.004L607.936 327.257C611.522 329.683 614.5 332.944 616.593 336.753L616.784 337.101L617.166 336.994L699.052 314.076C713.366 310.073 728.63 318.682 732.629 332.967C736.634 347.279 728.022 362.545 713.737 366.543L696.175 371.459ZM629.866 231.991L630.049 231.245L629.293 231.38C600.178 236.568 572.618 238.949 545.39 238.652C520.377 238.377 490.435 235.844 466.669 232.165L465.817 232.034L466.126 232.838C468.902 240.081 470.812 247.448 472.043 254.806L472.12 255.262L472.581 255.222C484.394 254.175 495.747 252.505 506.068 250.44L505.971 249.953L506.068 250.44C511.156 249.421 516.06 253.447 516.06 258.631C516.06 273.014 520.035 288.632 524.948 302.654C529.859 316.674 535.72 329.134 539.521 337.213L539.527 337.226C540.212 338.682 540.827 339.993 541.382 341.188L541.516 341.477H541.835H566.417H566.776L566.89 341.137C570.318 330.991 579.564 323.51 590.638 322.675L590.908 322.655L591.039 322.418C607.322 292.804 624.507 253.902 629.866 231.991ZM378.112 263.214L377.259 262.923L416.654 340.071L416.269 340.39C416.269 340.39 416.269 340.391 416.27 340.391C416.493 340.661 416.694 340.948 416.884 341.246L417.032 341.477H417.306H444.7H463.325H522.279H523.065L522.732 340.766C515.128 324.491 502.651 296.414 499.899 269.117L499.846 268.585L499.318 268.674C490.873 270.102 482.491 271.194 474.229 271.952C474.226 271.952 474.224 271.952 474.222 271.953L456.702 273.059C456.7 273.06 456.697 273.06 456.695 273.06C427.336 274.091 400.174 270.744 378.112 263.214ZM410.824 395.961H410.516L410.378 396.236C399.534 417.76 382.607 436.598 364.629 456.579L364.611 456.598C334.567 489.985 300.423 527.928 289.258 587.472C278.987 642.256 288.855 688.272 318.653 724.176C355.379 768.428 422.543 794.791 498.263 794.791C573.982 794.791 641.145 768.427 677.871 724.175C707.669 688.271 717.538 642.255 707.266 587.47C696.099 527.926 661.955 489.983 631.91 456.595L631.895 456.579C619.141 442.406 607.119 429.016 597.259 414.753L597.082 414.497L596.774 414.543C595.443 414.742 594.085 414.848 592.701 414.848C580.721 414.848 570.527 407.07 566.889 396.3L566.774 395.96H566.415H474.649C470.035 395.96 466.296 392.219 466.296 387.606C466.296 382.993 470.034 379.253 474.649 379.253H564.959H565.459V378.753V358.684V358.184H564.959H394.376C388.566 358.184 383.841 362.909 383.841 368.719C383.841 374.529 388.566 379.254 394.376 379.254H432.448C437.062 379.254 440.801 382.993 440.801 387.607C440.801 392.22 437.063 395.961 432.448 395.961H410.824ZM619.398 393.043L619.301 393.52L619.776 393.63L725.774 417.984C731.444 419.286 737.098 415.737 738.4 410.075C739.686 404.473 736.088 398.736 730.491 397.449L620.556 372.19L619.944 372.05V372.678V387.605C619.944 389.467 619.755 391.286 619.398 393.043ZM603.237 387.606V349.83C603.237 344.021 598.512 339.295 592.702 339.295C586.892 339.295 582.167 344.02 582.167 349.83V387.606C582.167 393.416 586.892 398.141 592.702 398.141C598.512 398.141 603.237 393.415 603.237 387.606Z" fill="#AD0D0F" stroke="#AD0D0F"/>
<path d="M520.782 473.791V474.227L521.215 474.286C552.928 478.587 577.447 505.84 577.447 538.713V552.878C577.447 565.296 567.343 575.399 554.927 575.399C542.51 575.399 532.406 565.295 532.406 552.878V538.713C532.406 527.696 523.445 518.734 512.427 518.734H491.178C476.256 518.734 464.116 530.872 464.116 545.795C464.116 560.719 476.257 572.857 491.178 572.857H505.344C545.1 572.857 577.445 605.202 577.445 644.959C577.445 679.07 553.753 708.036 521.171 715.303L520.78 715.391V715.791V732.316C520.78 744.734 510.676 754.836 498.259 754.836C485.842 754.836 475.739 744.733 475.739 732.316V716.963V716.527L475.306 716.468C443.594 712.167 419.074 684.914 419.074 652.041C419.074 639.624 429.178 629.521 441.595 629.521C454.012 629.521 464.115 639.625 464.115 652.041C464.115 663.058 473.076 672.02 484.094 672.02H505.344C520.266 672.02 532.405 659.882 532.405 644.959C532.405 630.035 520.265 617.897 505.344 617.897H491.178C451.422 617.897 419.077 585.552 419.077 545.795C419.077 511.684 442.768 482.718 475.35 475.45L475.741 475.363V474.962V458.438C475.741 446.02 485.845 435.917 498.262 435.917C510.679 435.917 520.782 446.021 520.782 458.438V473.791ZM485.02 490.755L485.075 491.252L485.02 490.755C456.954 493.873 435.787 517.535 435.787 545.797C435.787 576.341 460.636 601.191 491.181 601.191H505.347C529.481 601.191 549.116 620.826 549.116 644.96C549.116 669.094 529.481 688.729 505.347 688.729H484.097C463.869 688.729 447.411 672.271 447.411 652.043C447.411 648.838 444.804 646.23 441.599 646.23C438.395 646.23 435.787 648.838 435.787 652.043C435.787 678.681 457.458 700.353 484.097 700.353C488.711 700.353 492.451 704.092 492.451 708.706V732.316C492.451 735.521 495.058 738.128 498.263 738.128C501.468 738.128 504.075 735.521 504.075 732.316V708.303C504.075 704.046 507.276 700.47 511.507 700.001C539.572 696.882 560.739 673.22 560.739 644.959C560.739 614.414 535.89 589.564 505.345 589.564H491.179C467.045 589.564 447.41 569.93 447.41 545.795C447.41 521.661 467.045 502.027 491.179 502.027H512.429C532.657 502.027 549.115 518.484 549.115 538.713V552.878C549.115 556.083 551.722 558.69 554.927 558.69C558.131 558.69 560.739 556.083 560.739 552.878V538.713C560.739 512.074 539.069 490.402 512.429 490.402C507.815 490.402 504.075 486.663 504.075 482.049V458.439C504.075 455.234 501.468 452.627 498.263 452.627C495.058 452.627 492.451 455.234 492.451 458.439V482.452C492.451 486.709 489.25 490.285 485.02 490.755Z" fill="#AD0D0F" stroke="#AD0D0F"/>
</g>
<defs>
<clipPath id="clip0">
<rect width="600" height="600" fill="white" transform="translate(212 212)"/>
</clipPath>
</defs>
</svg>
