<svg width="1024" height="1024" viewBox="0 0 1024 1024" fill="none" xmlns="http://www.w3.org/2000/svg">
<circle cx="511" cy="512" r="485" stroke="#AD0D0F" stroke-width="20"/>
<path fill-rule="evenodd" clip-rule="evenodd" d="M475.85 523.423C478.722 530.756 478.695 539.035 475.627 547.673C470.309 562.642 457.253 569.211 445.011 571.662C432.808 574.106 419.953 572.853 411.738 570.99L405.898 569.664V503.116L411.481 501.64C429.419 496.898 447.929 498.744 460.985 506.566C467.591 510.524 473.005 516.16 475.85 523.423ZM420.898 514.928C433.724 512.733 445.531 514.793 453.276 519.434C457.627 522.041 460.478 525.307 461.883 528.894C463.261 532.412 463.524 536.931 461.492 542.651C458.65 550.654 451.618 555.042 442.066 556.954C434.915 558.386 427.178 558.207 420.898 557.387V514.928Z" fill="#AD0D0F"/>
<path fill-rule="evenodd" clip-rule="evenodd" d="M451.679 472.72C458.882 473.695 465.988 475.143 471.439 477.414C483.152 482.295 492.221 494.733 497.974 507.578C503.815 520.618 507.126 536.02 505.885 549.11C505.113 564.234 496.063 575.859 486.743 583.686C477.924 591.093 467.863 595.966 461.307 597.853C469.212 608.074 479.131 621.101 486.982 631.413C493.714 640.254 498.932 647.107 500.051 648.475C501.769 650.575 502.979 653.358 503.768 655.962C504.6 658.709 505.163 661.92 505.193 665.245C505.253 671.69 503.206 680.284 494.971 685.035C488.026 689.041 480.952 687.401 476.062 684.972C471.211 682.563 467.283 678.861 465.032 676.127L464.927 676L420.892 617.48V661.149C421.364 666.48 419.159 672.911 415.253 677.734C410.866 683.149 403.654 687.354 394.165 685.958C386.132 684.777 381.252 679.858 378.758 674.548C376.523 669.79 376.136 664.705 376.422 661.2V491.651L376.524 491.039C377.633 484.384 381.259 479.436 385.317 476.176C389.237 473.027 393.95 471.132 398.082 470.814C400.923 470.596 414.176 470.224 428.962 470.846C436.393 471.159 444.351 471.727 451.679 472.72ZM428.331 485.833C413.93 485.227 401.303 485.611 399.232 485.77C398.452 485.83 396.553 486.391 394.711 487.87C393.132 489.139 391.912 490.824 391.422 492.985V661.91L391.385 662.282C391.232 663.81 391.435 666.254 392.335 668.171C393.065 669.725 394.105 670.788 396.348 671.118C399.705 671.612 401.939 670.338 403.597 668.291C404.49 667.19 405.155 665.902 405.554 664.681C405.75 664.08 405.863 663.551 405.917 663.131C405.943 662.924 405.953 662.76 405.955 662.64L405.953 662.519L405.95 662.466L405.892 662.003V572.599L476.705 666.705C477.998 668.243 480.29 670.324 482.733 671.537C485.198 672.761 486.562 672.569 487.476 672.042C489.065 671.125 490.229 669.14 490.194 665.384C490.178 663.608 489.867 661.813 489.412 660.309C488.955 658.8 488.505 658.076 488.447 657.983C488.442 657.975 488.446 657.981 488.447 657.983C487.282 656.56 481.734 649.274 474.691 640.028C465.165 627.524 452.893 611.415 444.99 601.301C443.599 599.634 442.573 597.214 442.947 594.368C443.315 591.575 444.876 589.588 446.208 588.371C448.73 586.065 452.444 584.63 456.534 583.607C460.628 582.584 469.346 578.709 477.096 572.2C484.832 565.703 490.479 557.56 490.91 548.221L490.919 548.027L490.938 547.833C491.914 537.917 489.372 525.069 484.284 513.709C479.08 502.09 472.092 493.936 465.67 491.26C462.053 489.753 456.501 488.509 449.666 487.584C442.956 486.675 435.494 486.134 428.331 485.833Z" fill="#AD0D0F"/>
<path fill-rule="evenodd" clip-rule="evenodd" d="M629.97 609.025C629.97 632.812 610.686 652.096 586.898 652.096C563.11 652.096 543.826 632.812 543.826 609.025C543.826 585.237 563.11 565.953 586.898 565.953C610.686 565.953 629.97 585.237 629.97 609.025ZM614.97 609.025C614.97 624.528 602.401 637.096 586.898 637.096C571.394 637.096 558.826 624.528 558.826 609.025C558.826 593.521 571.394 580.953 586.898 580.953C602.401 580.953 614.97 593.521 614.97 609.025Z" fill="#AD0D0F"/>
<path fill-rule="evenodd" clip-rule="evenodd" d="M527.824 746.587C529.426 746.959 531.065 747.151 532.709 747.158C536.538 747.16 540.262 745.906 543.309 743.587C549.566 738.758 552.166 729.93 552.424 723.301V679.987C573.109 689.987 603.338 692.673 634.623 673.016C662.88 655.53 667.337 615.559 665.737 596.873V596.102C664.023 586.988 656.28 556.731 627.88 541.274C606.709 529.845 580.138 529.845 548.709 541.274C547.408 537.613 544.964 534.467 541.739 532.301C538.513 530.135 534.676 529.064 530.795 529.245C514.595 529.759 509.538 545.188 509.538 550.674L508.367 722.701C507.767 732.101 513.509 743.272 527.824 746.587ZM523.395 723.673L524.538 551.074C524.66 549.327 525.399 547.68 526.624 546.429C527.849 545.178 529.48 544.404 531.224 544.245C533.281 544.188 534.081 544.445 535.852 549.559C536.795 552.416 538.766 558.131 544.938 558.131H546.424L547.766 557.559C577.795 545.416 602.166 544.359 620.652 554.416C642.88 566.502 649.337 590.73 650.852 598.473C651.823 611.302 649.394 646.244 626.737 660.273C585.138 686.387 553.109 663.53 549.595 660.673L537.509 651.444V722.873C537.538 726.101 536.39 729.229 534.281 731.673C534.052 731.958 533.281 732.444 531.195 731.958C523.172 730.105 523.373 724.313 523.394 723.714L523.395 723.673Z" fill="#AD0D0F"/>
<path fill-rule="evenodd" clip-rule="evenodd" d="M751.484 392.992C747.55 386.712 741.407 382.34 734.186 380.68L696.151 371.941L713.712 367.025C728.264 362.952 737.03 347.411 732.951 332.833C728.878 318.281 713.339 309.517 698.758 313.594L616.872 336.512C614.74 332.633 611.709 329.314 608.057 326.843C624.676 295.916 648.618 243.434 648.618 220.855C648.618 215.349 643.413 211.088 638.011 212.176C605.514 218.741 575.215 221.77 545.42 221.446C514.795 221.109 476.679 217.306 452.731 212.196C445.327 210.616 439.386 218.902 443.29 225.41C449.126 235.137 452.702 245.421 454.667 255.786C424.609 256.708 393.439 253.065 369.846 241.268C363.491 238.09 355.99 243.651 357.153 250.643C364.573 295.159 379.542 321.259 394.551 340.978H394.218C378.921 340.978 366.476 353.424 366.476 368.72C366.476 382.789 377.005 394.436 390.594 396.218C380.689 412.81 366.542 428.552 351.678 445.07C320.069 480.198 284.241 520.015 272.187 584.302C266.419 615.063 266.611 643.845 272.76 669.852C278.5 694.131 289.432 716.107 305.251 735.168C326.25 760.472 355.101 780.104 391 793.524C423.338 805.612 460.373 812.001 498.102 812.001C535.832 812.001 572.868 805.612 605.205 793.524C641.104 780.104 669.955 760.47 690.953 735.168C706.773 716.107 717.705 694.132 723.445 669.852C729.592 643.845 729.786 615.062 724.018 584.302C711.964 520.015 676.137 480.2 644.528 445.072C633.797 433.145 623.588 421.775 615.029 410.234L721.762 434.757C733.069 437.355 745.119 432.408 751.365 422.637C757.081 413.691 757.115 401.978 751.484 392.992ZM545.226 239.152C572.487 239.449 600.078 237.066 629.221 231.872C623.878 253.719 606.718 292.576 590.442 322.177C579.162 323.026 569.747 330.646 566.258 340.977H541.676C541.121 339.781 540.506 338.469 539.82 337.013C532.218 320.852 516.401 287.229 516.401 258.631C516.401 253.132 511.209 248.869 505.811 249.949C495.508 252.011 484.172 253.678 472.377 254.724C471.141 247.336 469.223 239.937 466.434 232.659C490.223 236.342 520.189 238.876 545.226 239.152ZM602.577 349.83V387.606C602.577 393.139 598.076 397.641 592.543 397.641C587.009 397.641 582.508 393.14 582.508 387.606V349.83C582.508 344.296 587.009 339.795 592.543 339.795C598.076 339.795 602.577 344.297 602.577 349.83ZM377.792 263.687C399.926 271.242 427.155 274.593 456.561 273.559L474.108 272.451C482.385 271.691 490.783 270.598 499.243 269.167C502.004 296.558 514.517 324.705 522.12 340.977H417.147C416.949 340.667 416.735 340.362 416.495 340.071C401.686 322.255 386.659 301.648 377.792 263.687ZM631.365 456.913C661.417 490.309 695.476 528.161 706.616 587.562C716.866 642.233 707.012 688.088 677.327 723.855C640.724 767.959 573.725 794.291 498.104 794.291C422.482 794.291 355.482 767.96 318.879 723.856C289.194 688.089 279.341 642.234 289.59 587.564C300.729 528.161 334.79 490.308 364.841 456.913C382.81 436.943 399.785 418.055 410.665 396.461H432.289C437.18 396.461 441.142 392.496 441.142 387.607C441.142 382.717 437.179 378.754 432.289 378.754H394.217C388.683 378.754 384.182 374.253 384.182 368.719C384.182 363.185 388.683 358.684 394.217 358.684H564.8V378.753H474.49C469.599 378.753 465.637 382.717 465.637 387.606C465.637 392.495 469.6 396.46 474.49 396.46H566.256C569.961 407.426 580.34 415.348 592.542 415.348C593.951 415.348 595.334 415.24 596.689 415.037C606.57 429.331 618.615 442.745 631.365 456.913ZM620.286 353.945L703.53 330.647C708.801 329.169 714.426 332.345 715.898 337.606C717.372 342.878 714.202 348.501 708.939 349.973L661.366 363.287C660.978 363.396 660.608 363.537 660.248 363.693L620.286 354.511V353.945ZM737.753 409.963C736.514 415.356 731.128 418.737 725.726 417.496L619.729 393.142C620.092 391.353 620.285 389.501 620.285 387.605V372.678L730.219 397.936C735.548 399.161 738.978 404.63 737.753 409.963Z" fill="#AD0D0F"/>
</svg>
