<svg width="1447" height="125" viewBox="0 0 1447 125" fill="none" xmlns="http://www.w3.org/2000/svg">
<path fill-rule="evenodd" clip-rule="evenodd" d="M1447 91.1485C1412.73 87.5355 1339.99 77.5025 1214.04 50.2586C1146.61 35.6715 1098.85 54.6479 1049.94 74.0834C979.742 101.98 907.16 130.822 770.586 62.7206C600.169 -22.2562 409.541 -1.13268 263.28 15.0744C210.662 20.905 163.787 26.0993 125.66 25.4883C80.8715 24.7705 37.9365 19.1807 0 11.6258V125H1447V91.1485Z" fill="#2C2929"/>
<path fill-rule="evenodd" clip-rule="evenodd" d="M1447 80.1895C1414.19 78.7951 1340.38 73.2832 1208.55 52.6358C1140.39 41.9596 1093.81 63.6568 1046.1 85.8789C977.623 117.775 906.825 150.752 766.553 90.6358C591.521 15.6223 402.427 47.6975 257.344 72.3075C205.15 81.161 158.651 89.0484 120.553 90.6358C78.0023 92.4087 36.8707 89.6887 0 84.8137V125H1447V80.1895Z" fill="#363333"/>
</svg>
