<svg width="1024" height="1024" viewBox="0 0 1024 1024" fill="none" xmlns="http://www.w3.org/2000/svg">
<circle cx="511" cy="512" r="485" stroke="#AD0D0F" stroke-width="20"/>
<mask id="path-2-outside-1" maskUnits="userSpaceOnUse" x="191" y="162" width="640" height="640" fill="black">
<rect fill="white" x="191" y="162" width="640" height="640"/>
<path d="M586 510.13C586 572.26 636.37 622.63 698.5 622.63C760.63 622.63 811 572.25 811 510.13H794.25L721.2 324.16C725.789 320.694 729.513 316.213 732.081 311.067C734.649 305.921 735.99 300.251 736 294.5C736 273.8 719.2 257 698.5 257C693.02 257 687.86 258.24 683.17 260.34C675.517 257.362 667.887 254.325 660.28 251.23C631.6 239.47 598.23 225.93 563.48 218.13C559.413 207.507 552.219 198.367 542.85 191.916C533.48 185.466 522.375 182.008 511 182C499.624 182.009 488.518 185.468 479.148 191.921C469.778 198.373 462.586 207.515 458.52 218.14C423.76 225.93 390.39 239.47 361.71 251.24C355.18 253.92 345.99 257.54 338.82 260.35C334.009 258.157 328.787 257.015 323.5 257C313.554 257 304.016 260.951 296.983 267.983C289.951 275.016 286 284.554 286 294.5C286.013 300.249 287.354 305.918 289.92 311.063C292.485 316.208 296.206 320.69 300.79 324.16L227.74 510.13H211C211 572.26 261.37 622.63 323.5 622.63C385.63 622.63 436 572.26 436 510.13H419.25L346.2 324.17C350.786 320.699 354.509 316.216 357.076 311.069C359.643 305.922 360.986 300.252 361 294.5C361 293.63 360.79 292.81 360.74 291.95L370.09 288.16C396.4 277.35 426.87 264.92 458.14 257.33C460.968 265.152 465.495 272.251 471.394 278.114C477.294 283.978 484.42 288.46 492.26 291.24V348.56H480.76V528.88H468.26V617.17C406.23 628.68 361 664.52 361 707H342.25V744.5H304.75V782H717.25V744.5H679.75V707H661C661 664.52 615.75 628.68 553.75 617.17V528.88H541.25V348.55H529.75V291.23C537.587 288.449 544.711 283.965 550.609 278.102C556.507 272.238 561.032 265.141 563.86 257.32C595.14 264.91 625.59 277.34 651.92 288.15C655.12 289.47 658.14 290.68 661.26 291.95C661.2 292.81 661 293.63 661 294.5C661.013 300.249 662.354 305.918 664.92 311.063C667.485 316.208 671.206 320.69 675.79 324.16L602.74 510.12H586V510.13ZM323.5 275.75C325.999 275.693 328.485 276.136 330.811 277.053C333.136 277.97 335.255 279.343 337.043 281.091C338.831 282.839 340.251 284.926 341.22 287.231C342.19 289.535 342.689 292.01 342.688 294.51C342.687 297.01 342.187 299.485 341.216 301.789C340.246 304.093 338.824 306.179 337.036 307.926C335.247 309.673 333.128 311.045 330.801 311.961C328.475 312.877 325.989 313.318 323.49 313.26C318.591 313.146 313.931 311.119 310.507 307.613C307.083 304.107 305.167 299.401 305.168 294.5C305.169 289.6 307.088 284.894 310.514 281.39C313.94 277.886 318.601 275.862 323.5 275.75V275.75ZM399.89 510.13H247.08L317.3 331.38C319.33 331.72 321.38 332 323.5 332C325.62 332 327.66 331.72 329.68 331.37L399.89 510.13ZM698.5 275.75C700.999 275.693 703.485 276.136 705.811 277.053C708.136 277.97 710.255 279.343 712.043 281.091C713.831 282.839 715.251 284.926 716.22 287.231C717.19 289.535 717.689 292.01 717.688 294.51C717.687 297.01 717.187 299.485 716.216 301.789C715.246 304.093 713.824 306.179 712.036 307.926C710.247 309.673 708.128 311.045 705.801 311.961C703.475 312.877 700.989 313.318 698.49 313.26C693.591 313.146 688.931 311.119 685.507 307.613C682.083 304.107 680.167 299.401 680.168 294.5C680.169 289.6 682.088 284.894 685.514 281.39C688.94 277.886 693.601 275.862 698.5 275.75ZM692.31 331.38C694.352 331.76 696.423 331.967 698.5 332C700.61 332 702.66 331.72 704.68 331.37L774.89 510.12H622.07L692.31 331.38Z"/>
</mask>
<path d="M586 510.13C586 572.26 636.37 622.63 698.5 622.63C760.63 622.63 811 572.25 811 510.13H794.25L721.2 324.16C725.789 320.694 729.513 316.213 732.081 311.067C734.649 305.921 735.99 300.251 736 294.5C736 273.8 719.2 257 698.5 257C693.02 257 687.86 258.24 683.17 260.34C675.517 257.362 667.887 254.325 660.28 251.23C631.6 239.47 598.23 225.93 563.48 218.13C559.413 207.507 552.219 198.367 542.85 191.916C533.48 185.466 522.375 182.008 511 182C499.624 182.009 488.518 185.468 479.148 191.921C469.778 198.373 462.586 207.515 458.52 218.14C423.76 225.93 390.39 239.47 361.71 251.24C355.18 253.92 345.99 257.54 338.82 260.35C334.009 258.157 328.787 257.015 323.5 257C313.554 257 304.016 260.951 296.983 267.983C289.951 275.016 286 284.554 286 294.5C286.013 300.249 287.354 305.918 289.92 311.063C292.485 316.208 296.206 320.69 300.79 324.16L227.74 510.13H211C211 572.26 261.37 622.63 323.5 622.63C385.63 622.63 436 572.26 436 510.13H419.25L346.2 324.17C350.786 320.699 354.509 316.216 357.076 311.069C359.643 305.922 360.986 300.252 361 294.5C361 293.63 360.79 292.81 360.74 291.95L370.09 288.16C396.4 277.35 426.87 264.92 458.14 257.33C460.968 265.152 465.495 272.251 471.394 278.114C477.294 283.978 484.42 288.46 492.26 291.24V348.56H480.76V528.88H468.26V617.17C406.23 628.68 361 664.52 361 707H342.25V744.5H304.75V782H717.25V744.5H679.75V707H661C661 664.52 615.75 628.68 553.75 617.17V528.88H541.25V348.55H529.75V291.23C537.587 288.449 544.711 283.965 550.609 278.102C556.507 272.238 561.032 265.141 563.86 257.32C595.14 264.91 625.59 277.34 651.92 288.15C655.12 289.47 658.14 290.68 661.26 291.95C661.2 292.81 661 293.63 661 294.5C661.013 300.249 662.354 305.918 664.92 311.063C667.485 316.208 671.206 320.69 675.79 324.16L602.74 510.12H586V510.13ZM323.5 275.75C325.999 275.693 328.485 276.136 330.811 277.053C333.136 277.97 335.255 279.343 337.043 281.091C338.831 282.839 340.251 284.926 341.22 287.231C342.19 289.535 342.689 292.01 342.688 294.51C342.687 297.01 342.187 299.485 341.216 301.789C340.246 304.093 338.824 306.179 337.036 307.926C335.247 309.673 333.128 311.045 330.801 311.961C328.475 312.877 325.989 313.318 323.49 313.26C318.591 313.146 313.931 311.119 310.507 307.613C307.083 304.107 305.167 299.401 305.168 294.5C305.169 289.6 307.088 284.894 310.514 281.39C313.94 277.886 318.601 275.862 323.5 275.75V275.75ZM399.89 510.13H247.08L317.3 331.38C319.33 331.72 321.38 332 323.5 332C325.62 332 327.66 331.72 329.68 331.37L399.89 510.13ZM698.5 275.75C700.999 275.693 703.485 276.136 705.811 277.053C708.136 277.97 710.255 279.343 712.043 281.091C713.831 282.839 715.251 284.926 716.22 287.231C717.19 289.535 717.689 292.01 717.688 294.51C717.687 297.01 717.187 299.485 716.216 301.789C715.246 304.093 713.824 306.179 712.036 307.926C710.247 309.673 708.128 311.045 705.801 311.961C703.475 312.877 700.989 313.318 698.49 313.26C693.591 313.146 688.931 311.119 685.507 307.613C682.083 304.107 680.167 299.401 680.168 294.5C680.169 289.6 682.088 284.894 685.514 281.39C688.94 277.886 693.601 275.862 698.5 275.75ZM692.31 331.38C694.352 331.76 696.423 331.967 698.5 332C700.61 332 702.66 331.72 704.68 331.37L774.89 510.12H622.07L692.31 331.38Z" stroke="#AD0D0F" stroke-width="40" mask="url(#path-2-outside-1)"/>
</svg>
