<svg width="1024" height="1024" viewBox="0 0 1024 1024" fill="none" xmlns="http://www.w3.org/2000/svg">
<circle cx="511" cy="512" r="485" stroke="#AD0D0F" stroke-width="20"/>
<path fill-rule="evenodd" clip-rule="evenodd" d="M831 490.13V510.13C831 583.295 771.677 642.63 698.5 642.63C641.031 642.63 592.106 606.04 573.75 554.886V601.145C600.743 608.183 624.812 619.765 643.344 635.037C660.24 648.96 673.219 666.63 678.465 687H699.75V724.5H737.25V802H284.75V724.5H322.25V687H343.535C348.778 666.632 361.753 648.962 378.649 635.037C397.182 619.764 421.256 608.181 448.26 601.143V554.858C429.912 606.027 380.979 642.63 323.5 642.63C250.324 642.63 191 583.306 191 510.13V490.13H214.108L277.473 328.816C275.399 326.053 273.573 323.099 272.022 319.988C268.08 312.084 266.019 303.376 266 294.544L266 294.522V294.5C266 279.25 272.058 264.625 282.841 253.841C293.625 243.058 308.25 237 323.5 237H323.529L323.558 237C328.597 237.015 333.598 237.695 338.434 239.013C343.939 236.842 349.681 234.558 354.116 232.738C380.151 222.053 411.449 209.302 444.569 200.912C450.244 190.804 458.177 182.079 467.805 175.449C480.506 166.702 495.562 162.012 510.984 162L510.999 162L511.015 162C526.435 162.011 541.49 166.699 554.191 175.443C563.82 182.072 571.754 190.797 577.431 200.905C610.53 209.299 641.817 222.044 667.844 232.715C673.072 234.843 678.312 236.942 683.562 239.013C688.266 237.728 693.268 237 698.5 237C730.246 237 756 262.754 756 294.5V294.535C755.985 303.373 753.923 312.088 749.977 319.997C748.424 323.109 746.596 326.062 744.52 328.825L807.882 490.13H831ZM794.25 510.13L721.2 324.16C721.754 323.741 722.296 323.308 722.825 322.86C723.517 322.274 724.187 321.663 724.833 321.029C727.777 318.142 730.23 314.777 732.081 311.067C732.438 310.352 732.771 309.627 733.08 308.893C734.994 304.349 735.989 299.462 736 294.515C736 294.51 736 294.505 736 294.5C736 289.404 734.982 284.545 733.138 280.114C731.222 275.51 728.415 271.369 724.932 267.908C721.439 264.435 717.266 261.646 712.632 259.757C708.27 257.98 703.499 257 698.5 257C698.357 257 698.215 257.001 698.072 257.003C692.751 257.065 687.738 258.295 683.17 260.34C682.686 260.152 682.203 259.963 681.719 259.775C674.553 256.978 667.406 254.129 660.28 251.23C631.6 239.47 598.23 225.93 563.48 218.13C559.413 207.507 552.219 198.367 542.85 191.916C533.48 185.466 522.375 182.008 511 182C499.624 182.009 488.518 185.468 479.148 191.921C469.778 198.373 462.586 207.515 458.52 218.14C423.76 225.93 390.39 239.47 361.71 251.24C355.755 253.684 347.588 256.91 340.758 259.59C340.099 259.849 339.452 260.103 338.82 260.35C338.418 260.167 338.013 259.991 337.606 259.823C333.136 257.974 328.345 257.014 323.5 257C323.357 257 323.215 257.001 323.072 257.002C313.281 257.114 303.915 261.052 296.983 267.984C296.953 268.014 296.924 268.044 296.894 268.074C289.918 275.096 286.001 284.594 286 294.495C286 294.497 286 294.498 286 294.5C286.013 300.249 287.354 305.918 289.92 311.063C291.729 314.691 294.112 317.99 296.968 320.836C297.671 321.537 298.403 322.21 299.161 322.854C299.691 323.304 300.234 323.739 300.79 324.16L227.74 510.13H211C211 516.956 211.608 523.639 212.773 530.13C222.209 582.719 268.196 622.63 323.5 622.63C378.804 622.63 424.791 582.719 434.227 530.13C435.392 523.639 436 516.956 436 510.13H419.25L346.2 324.17C346.755 323.75 347.298 323.315 347.827 322.866C348.519 322.278 349.189 321.666 349.835 321.032C352.776 318.142 355.226 314.778 357.076 311.069C357.433 310.353 357.766 309.627 358.076 308.892C359.989 304.347 360.986 299.461 361 294.515C361 294.51 361 294.505 361 294.5C361 294.007 360.932 293.529 360.865 293.052C360.813 292.687 360.762 292.322 360.74 291.95L370.09 288.16C396.4 277.35 426.87 264.92 458.14 257.33C460.968 265.152 465.495 272.251 471.394 278.114C477.294 283.978 484.42 288.46 492.26 291.24V348.56H480.76V528.88H468.26V617.17C406.23 628.68 361 664.52 361 707H342.25V744.5H304.75V782H717.25V744.5H679.75V707H661C661 664.52 615.75 628.68 553.75 617.17V528.88H541.25V348.55H529.75V291.23C537.587 288.449 544.711 283.965 550.609 278.102C556.507 272.238 561.032 265.141 563.86 257.32C595.14 264.91 625.59 277.34 651.92 288.15C654.017 289.015 656.038 289.833 658.059 290.652C658.798 290.951 659.537 291.25 660.281 291.552C660.606 291.684 660.933 291.817 661.26 291.95C661.235 292.305 661.187 292.653 661.138 293.001C661.069 293.494 661 293.986 661 294.495C661 294.497 661 294.498 661 294.5C661.013 300.249 662.354 305.918 664.92 311.063C666.729 314.691 669.112 317.99 671.968 320.836C672.673 321.539 673.408 322.215 674.169 322.861C674.696 323.308 675.237 323.741 675.79 324.16L602.74 510.12H586V510.13C586 516.952 586.607 523.633 587.771 530.12C597.203 582.714 643.192 622.63 698.5 622.63C753.803 622.63 799.789 582.713 809.227 530.13C810.392 523.639 811 516.956 811 510.13H794.25ZM774.89 510.12H622.07L692.31 331.38C692.976 331.504 693.646 331.61 694.317 331.697C695.556 331.858 696.803 331.956 698.052 331.99C698.202 331.994 698.351 331.998 698.5 332C699.913 332 701.3 331.874 702.669 331.686C703.343 331.593 704.013 331.486 704.68 331.37L774.89 510.12ZM698.494 370.326L651.418 490.12H745.547L698.494 370.326ZM703.046 312.808C703.983 312.597 704.904 312.314 705.801 311.961C706.927 311.517 708.004 310.968 709.019 310.32C709.407 310.073 709.786 309.811 710.155 309.535C710.815 309.042 711.443 308.505 712.036 307.926C713.533 306.464 714.773 304.763 715.707 302.896C715.888 302.533 716.058 302.164 716.216 301.789C717.187 299.485 717.687 297.01 717.688 294.51C717.688 294.507 717.688 294.503 717.688 294.5C717.688 294.489 717.688 294.479 717.688 294.468C717.683 291.982 717.184 289.522 716.22 287.231C715.251 284.926 713.831 282.839 712.043 281.091C710.255 279.343 708.136 277.97 705.811 277.053C703.485 276.136 700.999 275.693 698.5 275.75C695.836 275.811 693.243 276.437 690.88 277.559C689.039 278.433 687.338 279.609 685.853 281.052C685.739 281.163 685.626 281.276 685.514 281.39C683.852 283.091 682.544 285.074 681.638 287.225C680.834 289.135 680.346 291.178 680.209 293.272C680.183 293.666 680.169 294.061 680.168 294.458C680.168 294.472 680.168 294.486 680.168 294.5C680.167 297.312 680.798 300.06 681.983 302.554C682.863 304.407 684.048 306.119 685.507 307.613C686.033 308.152 686.589 308.656 687.17 309.123C687.754 309.593 688.363 310.025 688.995 310.42C690.388 311.289 691.89 311.972 693.459 312.45C694.203 312.677 694.962 312.858 695.732 312.991C696.638 313.148 697.56 313.238 698.49 313.26C698.493 313.26 698.497 313.26 698.5 313.26C698.598 313.262 698.696 313.264 698.793 313.265C699.705 313.271 700.613 313.211 701.512 313.086C702.027 313.015 702.539 312.922 703.046 312.808ZM337.783 281.857C337.544 281.595 337.297 281.34 337.043 281.091C335.341 279.427 333.34 278.104 331.145 277.189C331.034 277.143 330.923 277.097 330.811 277.053C328.485 276.136 325.999 275.693 323.5 275.75C323.482 275.75 323.464 275.751 323.445 275.751C318.566 275.877 313.927 277.899 310.514 281.39C310.494 281.411 310.473 281.432 310.453 281.453C307.075 284.94 305.18 289.602 305.168 294.458C305.168 294.472 305.168 294.486 305.168 294.5C305.168 294.5 305.168 294.5 305.168 294.5C305.167 297.312 305.798 300.06 306.983 302.554C307.862 304.407 309.048 306.119 310.507 307.613C311.033 308.152 311.589 308.656 312.17 309.123C312.842 309.664 313.549 310.156 314.284 310.596C315.595 311.382 316.997 312.005 318.459 312.45C319.093 312.643 319.737 312.803 320.39 312.929C321.406 313.124 322.443 313.236 323.49 313.26C323.493 313.26 323.497 313.26 323.5 313.26C324.509 313.283 325.517 313.225 326.512 313.086C327.039 313.013 327.563 312.917 328.082 312.799C329.006 312.59 329.915 312.31 330.801 311.961C331.927 311.517 333.004 310.968 334.019 310.32C334.4 310.077 334.773 309.82 335.136 309.549C335.803 309.052 336.438 308.51 337.036 307.926C338.532 306.465 339.771 304.767 340.704 302.902C340.887 302.537 341.057 302.166 341.216 301.789C342.187 299.485 342.687 297.01 342.688 294.51C342.688 294.507 342.688 294.503 342.688 294.5C342.688 294.485 342.688 294.471 342.688 294.456C342.687 293.97 342.667 293.486 342.628 293.003C342.469 291.02 341.994 289.071 341.22 287.231C340.955 286.6 340.656 285.986 340.325 285.39C339.618 284.119 338.765 282.933 337.783 281.857ZM319.32 331.689C318.643 331.598 317.971 331.492 317.3 331.38L247.08 510.13H399.89L329.68 331.37C329.011 331.486 328.34 331.594 327.665 331.687C326.301 331.875 324.918 332 323.5 332C323.35 332 323.201 331.999 323.052 331.996C321.788 331.973 320.547 331.855 319.32 331.689ZM323.491 370.32L276.425 490.13H370.547L323.491 370.32ZM589.109 490.12H566V508.88H561.25V328.55H549.75V303.853C555.181 300.642 560.209 296.76 564.71 292.285C568.251 288.765 571.427 284.916 574.2 280.799C597.75 287.7 620.756 296.983 642.132 305.752C643.126 310.676 644.766 315.464 647.022 319.988C648.573 323.099 650.399 326.053 652.473 328.816L589.109 490.12ZM460.76 508.88V328.56H472.26V303.866C466.828 300.656 461.798 296.775 457.296 292.3C453.753 288.778 450.575 284.928 447.801 280.81C424.246 287.713 401.223 297 379.864 305.767C378.869 310.688 377.229 315.474 374.973 319.996C373.42 323.109 371.593 326.063 369.517 328.827L432.881 490.13H456V508.88H460.76ZM323.899 295.745C323.918 295.745 323.937 295.745 323.956 295.745C324.104 295.741 324.248 295.712 324.382 295.659C324.535 295.599 324.675 295.509 324.794 295.392C324.801 295.386 324.808 295.379 324.815 295.372C324.925 295.26 325.011 295.129 325.071 294.987C325.134 294.836 325.168 294.672 325.168 294.505C325.168 294.339 325.135 294.175 325.071 294.024C325.011 293.882 324.925 293.751 324.815 293.639C324.808 293.632 324.802 293.625 324.795 293.618C324.676 293.502 324.535 293.412 324.383 293.352C324.248 293.299 324.104 293.269 323.957 293.265C323.938 293.265 323.919 293.265 323.9 293.265C323.754 293.269 323.61 293.298 323.474 293.351C323.32 293.412 323.18 293.503 323.062 293.618C323.055 293.625 323.048 293.631 323.041 293.638C322.933 293.749 322.846 293.88 322.785 294.024C322.721 294.176 322.688 294.34 322.688 294.505C322.688 294.67 322.721 294.834 322.785 294.986C322.845 295.129 322.932 295.26 323.041 295.372C323.048 295.378 323.054 295.385 323.061 295.392C323.179 295.507 323.319 295.598 323.473 295.659C323.609 295.712 323.753 295.741 323.899 295.745ZM698.899 295.745C698.918 295.745 698.937 295.745 698.956 295.745C699.104 295.741 699.248 295.712 699.382 295.659C699.535 295.599 699.675 295.509 699.794 295.392C699.801 295.386 699.808 295.379 699.815 295.372C699.925 295.26 700.011 295.129 700.071 294.987C700.134 294.836 700.168 294.672 700.168 294.505C700.168 294.339 700.135 294.175 700.071 294.024C700.011 293.882 699.925 293.751 699.815 293.639C699.809 293.632 699.802 293.625 699.795 293.618C699.676 293.502 699.536 293.412 699.383 293.352C699.248 293.299 699.104 293.269 698.957 293.265C698.938 293.265 698.919 293.265 698.9 293.265C698.754 293.269 698.61 293.298 698.474 293.351C698.32 293.412 698.18 293.503 698.062 293.618C698.055 293.625 698.048 293.631 698.041 293.638C697.933 293.749 697.846 293.88 697.785 294.024C697.721 294.176 697.688 294.339 697.688 294.505C697.688 294.67 697.721 294.834 697.785 294.986C697.845 295.129 697.932 295.26 698.041 295.372C698.048 295.378 698.054 295.385 698.061 295.392C698.179 295.507 698.319 295.598 698.473 295.659C698.609 295.712 698.753 295.741 698.899 295.745Z" fill="#AD0D0F"/>
</svg>
