<svg width="44" height="44" viewBox="0 0 44 44" fill="none" xmlns="http://www.w3.org/2000/svg">
<path d="M22 43C33.598 43 43 33.598 43 22C43 10.402 33.598 1 22 1C10.402 1 1 10.402 1 22C1 33.598 10.402 43 22 43Z" stroke="#A9A9A9" stroke-width="2"/>
<path d="M21.7132 18.9839C25.5535 18.9839 28.6666 15.8708 28.6666 12.0305C28.6666 8.19029 25.5535 5.07715 21.7132 5.07715C17.873 5.07715 14.7598 8.19029 14.7598 12.0305C14.7598 15.8708 17.873 18.9839 21.7132 18.9839Z" fill="#C4C4C4"/>
<path d="M26.7703 20.0674H16.6562C12.3172 20.0674 8.7998 23.5848 8.7998 27.9238V27.9239C8.7998 32.2628 12.3172 35.7803 16.6562 35.7803H26.7703C31.1093 35.7803 34.6267 32.2628 34.6267 27.9239V27.9238C34.6267 23.5848 31.1093 20.0674 26.7703 20.0674Z" fill="#C4C4C4"/>
</svg>
