<svg width="16" height="16" viewBox="0 0 16 16" fill="none" xmlns="http://www.w3.org/2000/svg">
<path fill-rule="evenodd" clip-rule="evenodd" d="M11.7424 10.3428C12.5544 9.23535 13 7.89062 13 6.5C13 4.77588 12.3152 3.12256 11.0962 1.90381C9.8772 0.685059 8.22394 0 6.5 0C4.77606 0 3.1228 0.685059 1.90381 1.90381C0.684814 3.12256 0 4.77588 0 6.5C0 8.22412 0.684814 9.87744 1.90381 11.0962C3.1228 12.3154 4.77606 13 6.5 13C7.89105 13 9.23608 12.5542 10.3441 11.7417C10.374 11.7827 10.4072 11.8208 10.4432 11.8569L14.2932 15.7065C14.4124 15.8257 14.5585 15.9116 14.7173 15.9585C14.8084 15.9854 14.9037 15.9995 15.0005 15.9995C15.2658 15.9995 15.5202 15.894 15.7077 15.7061C15.8952 15.5186 16.0005 15.2642 16.0004 14.999C16.0003 14.7334 15.8948 14.479 15.7072 14.2915L11.8572 10.4419C11.8214 10.4058 11.783 10.3726 11.7424 10.3428ZM8.60474 11.5815C7.9375 11.8579 7.22229 12 6.5 12C5.04132 12 3.64233 11.4204 2.6109 10.3892C1.57947 9.35742 1 7.9585 1 6.5C1 5.0415 1.57947 3.64258 2.6109 2.61084C3.64233 1.57959 5.04132 1 6.5 1C7.22229 1 7.9375 1.14209 8.60474 1.41846C9.27203 1.69482 9.87836 2.1001 10.3891 2.61084C10.8998 3.12158 11.3049 3.72803 11.5813 4.39502C11.8577 5.0625 12 5.77783 12 6.5C12 7.22217 11.8577 7.9375 11.5813 8.60498C11.3049 9.27197 10.8998 9.87842 10.3891 10.3892C10.0759 10.7021 9.72687 10.9756 9.34985 11.2041C9.11194 11.3481 8.86292 11.4746 8.60474 11.5815Z" fill="black"/>
</svg>
