<svg width="34" height="34" viewBox="0 0 34 34" fill="none" xmlns="http://www.w3.org/2000/svg">
<path fill-rule="evenodd" clip-rule="evenodd" d="M9.96687 0.10175C11.7752 0.0185 12.3518 0 16.9583 0C21.5648 0 22.1414 0.0200416 23.9482 0.10175C25.7551 0.183458 26.9884 0.47175 28.0676 0.889542C29.1976 1.31658 30.2228 1.98412 31.0707 2.84746C31.9341 3.69383 32.6001 4.7175 33.0256 5.84908C33.4449 6.92825 33.7317 8.16158 33.8149 9.96533C33.8982 11.7768 33.9167 12.3534 33.9167 16.9583C33.9167 21.5648 33.8966 22.1414 33.8149 23.9498C33.7332 25.7535 33.4449 26.9869 33.0256 28.066C32.6001 29.1978 31.933 30.2231 31.0707 31.0707C30.2228 31.9341 29.1976 32.6001 28.0676 33.0256C26.9884 33.4449 25.7551 33.7317 23.9513 33.8149C22.1414 33.8982 21.5648 33.9167 16.9583 33.9167C12.3518 33.9167 11.7752 33.8966 9.96687 33.8149C8.16312 33.7332 6.92979 33.4449 5.85062 33.0256C4.71892 32.6 3.69356 31.9329 2.84592 31.0707C1.98317 30.2239 1.31553 29.199 0.889542 28.0676C0.47175 26.9884 0.185 25.7551 0.10175 23.9513C0.0185 22.1399 0 21.5633 0 16.9583C0 12.3518 0.0200416 11.7752 0.10175 9.96842C0.183458 8.16158 0.47175 6.92825 0.889542 5.84908C1.31616 4.71763 1.98431 3.69277 2.84746 2.84592C3.6939 1.98336 4.71823 1.31573 5.84908 0.889542C6.92825 0.47175 8.16158 0.185 9.96533 0.10175H9.96687ZM23.811 3.15425C22.0227 3.07254 21.4862 3.05558 16.9583 3.05558C12.4305 3.05558 11.894 3.07254 10.1056 3.15425C8.45142 3.22979 7.55417 3.50575 6.956 3.73854C6.16512 4.04687 5.59933 4.41225 5.00579 5.00579C4.44315 5.55316 4.01015 6.21952 3.73854 6.956C3.50575 7.55417 3.22979 8.45142 3.15425 10.1056C3.07254 11.894 3.05558 12.4305 3.05558 16.9583C3.05558 21.4862 3.07254 22.0227 3.15425 23.811C3.22979 25.4652 3.50575 26.3625 3.73854 26.9607C4.00987 27.696 4.44308 28.3636 5.00579 28.9109C5.55308 29.4736 6.22062 29.9068 6.956 30.1781C7.55417 30.4109 8.45142 30.6869 10.1056 30.7624C11.894 30.8441 12.4289 30.8611 16.9583 30.8611C21.4877 30.8611 22.0227 30.8441 23.811 30.7624C25.4652 30.6869 26.3625 30.4109 26.9607 30.1781C27.7515 29.8698 28.3173 29.5044 28.9109 28.9109C29.4736 28.3636 29.9068 27.696 30.1781 26.9607C30.4109 26.3625 30.6869 25.4652 30.7624 23.811C30.8441 22.0227 30.8611 21.4862 30.8611 16.9583C30.8611 12.4305 30.8441 11.894 30.7624 10.1056C30.6869 8.45142 30.4109 7.55417 30.1781 6.956C29.8698 6.16512 29.5044 5.59933 28.9109 5.00579C28.3635 4.44319 27.6971 4.0102 26.9607 3.73854C26.3625 3.50575 25.4652 3.22979 23.811 3.15425V3.15425ZM14.7923 22.1861C16.002 22.6897 17.349 22.7576 18.6032 22.3784C19.8574 21.9992 20.9411 21.1962 21.6691 20.1068C22.3971 19.0173 22.7242 17.7089 22.5947 16.405C22.4652 15.1011 21.887 13.8827 20.959 12.9577C20.3673 12.3664 19.652 11.9137 18.8643 11.6321C18.0767 11.3505 17.2365 11.247 16.4041 11.3291C15.5717 11.4112 14.7679 11.6769 14.0504 12.1069C13.333 12.537 12.7199 13.1207 12.2552 13.8162C11.7905 14.5116 11.4857 15.3015 11.3629 16.1289C11.24 16.9562 11.3022 17.8005 11.5448 18.601C11.7875 19.4015 12.2046 20.1382 12.7661 20.7581C13.3276 21.378 14.0196 21.8657 14.7923 22.1861ZM10.7947 10.7947C11.6042 9.98534 12.5651 9.34327 13.6226 8.90522C14.6802 8.46717 15.8136 8.24171 16.9583 8.24171C18.103 8.24171 19.2365 8.46717 20.294 8.90522C21.3516 9.34327 22.3125 9.98534 23.1219 10.7947C23.9313 11.6042 24.5734 12.5651 25.0114 13.6226C25.4495 14.6802 25.675 15.8136 25.675 16.9583C25.675 18.103 25.4495 19.2365 25.0114 20.294C24.5734 21.3516 23.9313 22.3125 23.1219 23.1219C21.4872 24.7566 19.2701 25.675 16.9583 25.675C14.6465 25.675 12.4294 24.7566 10.7947 23.1219C9.16006 21.4872 8.24171 19.2701 8.24171 16.9583C8.24171 14.6465 9.16006 12.4294 10.7947 10.7947V10.7947ZM27.6082 9.53983C27.8087 9.35062 27.9693 9.12309 28.0804 8.87071C28.1914 8.61833 28.2507 8.34623 28.2548 8.07052C28.2588 7.79481 28.2074 7.52109 28.1038 7.26558C28.0001 7.01007 27.8462 6.77795 27.6513 6.58298C27.4563 6.388 27.2242 6.23413 26.9687 6.13046C26.7132 6.0268 26.4394 5.97546 26.1637 5.97948C25.888 5.9835 25.6159 6.0428 25.3635 6.15386C25.1112 6.26493 24.8836 6.4255 24.6944 6.62608C24.3264 7.01617 24.125 7.53431 24.1328 8.07052C24.1406 8.60672 24.3571 9.11877 24.7363 9.49797C25.1155 9.87716 25.6275 10.0936 26.1637 10.1015C26.6999 10.1093 27.2181 9.90781 27.6082 9.53983V9.53983Z" fill="black"/>
</svg>
