<svg width="42" height="30" viewBox="0 0 42 30" fill="none" xmlns="http://www.w3.org/2000/svg">
<path d="M41.125 14.7839C41.125 14.6829 41.125 14.5682 41.1204 14.4351C41.1158 14.0633 41.1066 13.6456 41.0975 13.2004C41.0607 11.9198 40.9965 10.6438 40.8955 9.44131C40.7578 7.78437 40.5559 6.40283 40.2805 5.36553C39.9899 4.28301 39.4202 3.29573 38.6284 2.50237C37.8367 1.709 36.8506 1.13735 35.7687 0.844531C34.4697 0.495703 31.927 0.27998 28.3469 0.146875C26.644 0.0826171 24.8219 0.0413083 22.9997 0.0183591C22.3617 0.00917941 21.7696 0.00458984 21.2372 0H19.8878C19.3554 0.00458984 18.7633 0.00917941 18.1253 0.0183591C16.3031 0.0413083 14.481 0.0826171 12.7781 0.146875C9.19805 0.28457 6.65068 0.500293 5.35635 0.844531C4.27407 1.13663 3.28756 1.70804 2.4957 2.50152C1.70384 3.29499 1.13443 4.28266 0.844531 5.36553C0.564551 6.40283 0.367188 7.78437 0.229492 9.44131C0.128516 10.6438 0.0642577 11.9198 0.027539 13.2004C0.0137695 13.6456 0.00917962 14.0633 0.00458977 14.4351C0.00458977 14.5682 0 14.6829 0 14.7839V15.0409C0 15.1419 -7.01039e-08 15.2566 0.00458977 15.3897C0.00917962 15.7615 0.0183593 16.1792 0.027539 16.6244C0.0642577 17.905 0.128516 19.181 0.229492 20.3835C0.367188 22.0404 0.569141 23.422 0.844531 24.4593C1.43203 26.6578 3.15781 28.3928 5.35635 28.9803C6.65068 29.3291 9.19805 29.5448 12.7781 29.6779C14.481 29.7422 16.3031 29.7835 18.1253 29.8064C18.7633 29.8156 19.3554 29.8202 19.8878 29.8248H21.2372C21.7696 29.8202 22.3617 29.8156 22.9997 29.8064C24.8219 29.7835 26.644 29.7422 28.3469 29.6779C31.927 29.5402 34.4743 29.3245 35.7687 28.9803C37.9672 28.3928 39.693 26.6624 40.2805 24.4593C40.5604 23.422 40.7578 22.0404 40.8955 20.3835C40.9965 19.181 41.0607 17.905 41.0975 16.6244C41.1112 16.1792 41.1158 15.7615 41.1204 15.3897C41.1204 15.2566 41.125 15.1419 41.125 15.0409V14.7839V14.7839ZM37.8203 15.0226C37.8203 15.1189 37.8203 15.2245 37.8157 15.3484C37.8111 15.7064 37.802 16.1012 37.7928 16.528C37.7606 17.7489 37.6964 18.9698 37.6 20.1035C37.4761 21.5814 37.3017 22.7932 37.0859 23.6056C36.8014 24.6658 35.966 25.5058 34.9104 25.7857C33.9465 26.0428 31.5185 26.2493 28.2184 26.3732C26.5477 26.4375 24.7484 26.4788 22.9538 26.5018C22.325 26.5109 21.7421 26.5155 21.2188 26.5155H19.9062L18.1712 26.5018C16.3766 26.4788 14.5819 26.4375 12.9066 26.3732C9.60654 26.2447 7.17393 26.0428 6.21465 25.7857C5.15898 25.5012 4.32363 24.6658 4.03906 23.6056C3.82334 22.7932 3.64893 21.5814 3.525 20.1035C3.42861 18.9698 3.36895 17.7489 3.33223 16.528C3.31846 16.1012 3.31387 15.7019 3.30928 15.3484C3.30928 15.2245 3.30469 15.1144 3.30469 15.0226V14.8022C3.30469 14.7059 3.30469 14.6003 3.30928 14.4764C3.31387 14.1184 3.32305 13.7236 3.33223 13.2968C3.36436 12.0759 3.42861 10.855 3.525 9.72129C3.64893 8.24336 3.82334 7.03164 4.03906 6.21924C4.32363 5.15898 5.15898 4.31904 6.21465 4.03906C7.17852 3.78203 9.60654 3.57549 12.9066 3.45156C14.5773 3.3873 16.3766 3.346 18.1712 3.32305C18.8 3.31387 19.3829 3.30928 19.9062 3.30928H21.2188L22.9538 3.32305C24.7484 3.346 26.5431 3.3873 28.2184 3.45156C31.5185 3.58008 33.9511 3.78203 34.9104 4.03906C35.966 4.32363 36.8014 5.15898 37.0859 6.21924C37.3017 7.03164 37.4761 8.24336 37.6 9.72129C37.6964 10.855 37.7561 12.0759 37.7928 13.2968C37.8065 13.7236 37.8111 14.123 37.8157 14.4764C37.8157 14.6003 37.8203 14.7105 37.8203 14.8022V15.0226ZM16.4775 21.0628L27.126 14.8665L16.4775 8.76201V21.0628Z" fill="black"/>
</svg>
