<svg width="38" height="38" viewBox="0 0 38 38" fill="none" xmlns="http://www.w3.org/2000/svg">
<path d="M18.75 0C8.39219 0 0 8.39219 0 18.75C0 29.1078 8.39219 37.5 18.75 37.5C29.1078 37.5 37.5 29.1078 37.5 18.75C37.5 8.39219 29.1078 0 18.75 0ZM18.75 3.125C20.8042 3.11673 22.8397 3.51524 24.7392 4.29754C26.6386 5.07985 28.3644 6.23046 29.817 7.68303C31.2695 9.13559 32.4202 10.8614 33.2025 12.7608C33.9848 14.6602 34.3833 16.6958 34.375 18.75C34.3833 20.8042 33.9848 22.8397 33.2025 24.7392C32.4202 26.6386 31.2695 28.3644 29.817 29.817C28.3644 31.2695 26.6386 32.4202 24.7392 33.2025C22.8397 33.9848 20.8042 34.3833 18.75 34.375C16.6958 34.3833 14.6602 33.9848 12.7608 33.2025C10.8614 32.4202 9.13559 31.2695 7.68303 29.817C6.23046 28.3644 5.07985 26.6386 4.29754 24.7392C3.51524 22.8397 3.11673 20.8042 3.125 18.75C3.11673 16.6958 3.51524 14.6602 4.29754 12.7608C5.07985 10.8614 6.23046 9.13559 7.68303 7.68303C9.13559 6.23046 10.8614 5.07985 12.7608 4.29754C14.6602 3.51524 16.6958 3.11673 18.75 3.125ZM16.2594 10.5469C13.2203 10.5469 10.5719 10.8281 8.05625 11.6219C7.39063 11.7547 6.83594 12.2562 6.83594 13.1844C6.83594 14.1109 7.52031 14.9297 8.44688 14.7938C8.84375 14.7938 9.1125 14.6484 9.375 14.6484C11.4922 14.1172 13.8797 13.8672 16.2594 13.8672C20.8859 13.8672 25.6344 14.8984 28.8078 16.7484C29.2047 16.8828 29.3391 17.0406 29.7359 17.0406C30.6641 17.0406 31.3109 16.3578 31.4453 15.4297C31.4453 14.6359 31.0484 14.1297 30.5172 13.8672C26.55 11.6203 21.2828 10.5469 16.2594 10.5469ZM15.8203 16.3578C13.0438 16.3578 11.0656 16.7547 9.08125 17.2859C8.42344 17.5469 8.05625 17.9578 8.05625 18.75C8.05625 19.4094 8.58125 20.0688 9.375 20.0688C9.64375 20.0688 9.75937 20.0563 10.1562 19.9219C11.6094 19.525 13.6047 19.2875 15.7234 19.2875C20.0859 19.2875 23.8828 20.35 26.6609 22.0703C26.9219 22.2047 27.1922 22.3141 27.5875 22.3141C28.3812 22.3141 28.9062 21.6422 28.9062 20.85C28.9062 20.3188 28.6562 19.7937 28.125 19.5312C24.6875 17.4141 20.3187 16.3578 15.8203 16.3578ZM16.2594 22.0703C14.0141 22.0703 11.8844 22.3203 9.76562 22.8516C9.23438 22.9859 8.8375 23.3641 8.8375 24.0234C8.8375 24.5547 9.25312 25.0984 9.9125 25.0984C10.0469 25.0984 10.4312 24.9516 10.6937 24.9516C12.471 24.5371 14.2892 24.3238 16.1141 24.3156C19.4156 24.3156 22.4359 25.1094 24.9516 26.5625C25.2203 26.6969 25.5188 26.8062 25.7812 26.8062C26.3125 26.8062 26.8187 26.4094 26.9531 25.8797C26.9531 25.2141 26.6656 24.9687 26.2688 24.7078C23.3578 22.9859 19.9578 22.0703 16.2594 22.0703Z" fill="black"/>
</svg>
