<svg width="1024" height="1024" viewBox="0 0 1024 1024" fill="none" xmlns="http://www.w3.org/2000/svg">
<circle cx="511" cy="512" r="485" stroke="#AD0D0F" stroke-width="20"/>
<mask id="path-2-inside-1" fill="white">
<path d="M732.849 606.39C735.265 593.128 736.499 579.632 736.499 566.102C736.499 445.262 640.518 346.435 520.787 341.8V301.513H533.138C565.993 301.513 592.723 274.785 592.723 241.93V225.477C592.723 218.046 586.677 212 579.246 212H562.792C535.013 212 511.616 231.11 505.05 256.873C494.152 245.024 478.532 237.583 461.202 237.583H444.749C437.318 237.583 431.272 243.628 431.272 251.06V267.513C431.272 300.367 458.002 327.096 490.856 327.096H503.208V341.802C365.924 346.874 266.65 471.906 291.145 606.39C274.811 607.067 261.456 621.113 261.456 637.518C261.456 652.055 271.781 664.849 286.009 667.939L302.865 671.593C288.839 682.524 286.712 703.668 299.468 716.424C302.774 719.729 306.679 722.072 310.836 723.464C308.632 727.629 307.461 732.294 307.461 737.141C307.461 744.967 310.507 752.324 316.04 757.857C321.509 763.326 328.76 766.361 336.484 766.432C336.556 773.838 339.405 781.222 345.043 786.86C354.249 796.068 368.203 797.954 379.42 792.064C383.261 803.74 395.065 812 407.193 812C414.694 812 422.199 809.143 427.91 803.432L449.55 781.793C469.753 787.636 490.732 790.603 511.997 790.603C533.263 790.603 554.242 787.636 574.444 781.793L596.085 803.432C607.509 814.855 626.094 814.855 637.516 803.432C640.767 800.181 643.153 796.298 644.573 792.062C655.766 797.943 669.755 796.054 678.95 786.858C684.588 781.22 687.437 773.836 687.51 766.429C695.234 766.359 702.485 763.324 707.953 757.855C716.908 748.899 719.045 734.561 713.166 723.476C717.398 722.054 721.277 719.67 724.525 716.422C737.16 703.785 734.912 682.267 721.129 671.591L737.988 667.937C752.214 664.847 762.537 652.053 762.537 637.515C762.538 620.97 749.029 607.058 732.849 606.39V606.39ZM520.787 271.583C520.787 248.422 539.63 229.579 562.792 229.579H575.144V241.93C575.144 264.386 557.432 282.782 535.243 283.882L547.986 272.599C551.622 269.381 551.959 263.826 548.741 260.192C545.523 256.557 539.968 256.219 536.334 259.437L520.787 273.203V271.583ZM487.945 281.825C484.512 278.393 478.947 278.393 475.515 281.825C472.082 285.258 472.082 290.823 475.515 294.255L490.777 309.516C467.651 309.472 448.852 290.649 448.852 267.514V255.161H461.204C484.339 255.161 503.164 273.961 503.207 297.086L487.945 281.825ZM289.737 650.761C283.536 649.415 279.035 643.845 279.035 637.518C279.035 629.123 286.951 622.562 295.157 624.198C297.888 634.426 301.337 644.448 305.479 654.173L289.737 650.761ZM311.897 703.993C307.389 699.484 307.368 691.906 311.898 687.42C311.898 687.42 346.603 652.715 346.702 652.617C351.208 648.111 358.759 648.102 363.275 652.617C367.844 657.186 367.844 664.619 363.276 669.188L328.47 703.994C323.98 708.527 316.394 708.489 311.897 703.993V703.993ZM328.472 745.427C323.902 740.857 323.902 733.423 328.472 728.853L388.135 669.19C392.614 664.657 400.214 664.653 404.707 669.19H404.708C409.223 673.66 409.24 681.279 404.707 685.763L345.043 745.427C340.554 749.959 332.967 749.922 328.472 745.427V745.427ZM374.048 774.43C369.479 778.998 362.044 779 357.474 774.43C352.905 769.861 352.905 762.425 357.474 757.856L417.135 698.193C421.705 693.625 429.139 693.624 433.71 698.193C438.279 702.762 438.279 710.197 433.71 714.766L374.048 774.43ZM450.284 756.2L415.479 791.004C410.911 795.572 403.478 795.573 398.906 791.004C394.399 786.498 394.377 778.921 398.904 774.435L433.711 739.628C438.19 735.095 445.768 735.114 450.284 739.628C454.853 744.195 454.853 751.631 450.284 756.2V756.2ZM462.713 727.196C459.462 723.946 455.58 721.561 451.344 720.14C457.164 709.081 455.43 695.055 446.141 685.765C440.503 680.127 433.119 677.277 425.712 677.205C425.642 669.483 422.607 662.231 417.137 656.762C411.603 651.228 404.247 648.181 396.421 648.181C391.575 648.181 386.91 649.353 382.745 651.556C381.352 647.399 379.01 643.493 375.705 640.189H375.704C370.17 634.655 362.813 631.608 354.987 631.608C347.161 631.608 339.804 634.656 334.27 640.19L323.319 651.142C311.357 624.589 305.073 595.435 305.073 566.106C305.073 523.441 318.057 483.754 340.276 450.78C358.616 463.5 372.283 480.387 377.458 497.095C380.763 507.751 380.082 516.35 379.141 528.251C377.989 542.823 376.554 560.959 382.072 589.766C384.758 603.804 387.633 612.645 389.837 618.781C391.496 623.401 396.611 625.686 401.081 624.081C405.65 622.44 408.023 617.406 406.381 612.838C404.392 607.304 401.795 599.306 399.336 586.461C394.263 559.982 395.54 543.862 396.666 529.639C397.678 516.832 398.554 505.771 394.249 491.891C387.888 471.353 372.243 451.602 350.733 436.617C378.26 402.408 416.417 377.098 460.151 365.774C465.206 387.088 469.362 410 472.846 432.362C478.466 468.42 482.904 496.901 504.48 503.849C516.87 507.841 527.478 501.842 536.837 496.552C545.563 491.621 553.805 486.963 563.802 488.903C579.061 491.862 589.044 516.161 602.988 527.623C623.485 544.471 653.447 551.164 683.44 548.682C688.278 548.281 691.874 544.034 691.473 539.196C691.071 534.359 686.796 530.762 681.988 531.164C655.241 533.375 629.887 526.98 614.15 514.044C596.692 499.693 592.918 476.648 567.151 471.647C550.794 468.472 538.261 475.556 528.188 481.249C519.965 485.896 514.684 488.67 509.867 487.118C498.604 483.49 494.529 457.341 490.214 429.656C486.683 407.002 482.443 383.699 477.345 362.114C488.616 360.206 500.189 359.197 511.995 359.197C626.093 359.197 718.918 452.017 718.918 566.108C718.918 595.437 712.634 624.592 700.672 651.145L689.721 640.193C684.187 634.659 676.83 631.611 669.004 631.611C661.178 631.611 653.821 634.659 648.287 640.192H648.286C644.981 643.497 642.64 647.403 641.246 651.56C636.79 649.2 631.702 648.025 626.534 648.209C606.757 630.274 566.328 595.403 537.458 609.241C522.276 616.514 519.958 631.583 517.274 649.034C515.34 661.613 513.147 675.872 506.125 691.859C498.286 709.718 486.308 725.114 469.757 738.597C468.372 734.425 466.027 730.508 462.713 727.196V727.196ZM561.281 727.196C550.26 738.218 549.876 755.905 560.12 767.395C544.44 771.13 528.313 773.025 511.997 773.025C495.682 773.025 479.554 771.13 463.874 767.395C465.371 765.716 466.636 763.904 467.679 762.001C493.369 744.593 511.24 723.944 522.225 698.921C530.174 680.821 532.657 664.673 534.651 651.7C537.076 635.932 538.533 628.214 545.057 625.089C561.207 617.352 590.877 640.361 608.243 655.469C601.949 661.002 598.355 668.83 598.281 677.203C590.875 677.276 583.492 680.125 577.852 685.764C568.563 695.054 566.829 709.081 572.649 720.139C568.415 721.561 564.533 723.946 561.281 727.196V727.196ZM625.087 791.003C620.519 795.571 613.084 795.571 608.515 791.003L573.711 756.199C569.142 751.629 569.142 744.195 573.711 739.626H573.71C578.19 735.093 585.79 735.087 590.284 739.626L625.093 774.435C629.602 778.907 629.594 786.497 625.087 791.003V791.003ZM666.521 774.43C661.953 779 654.517 778.998 649.948 774.43C640.372 764.855 600.375 724.855 590.285 714.766C585.716 710.197 585.716 702.762 590.285 698.193C594.854 693.624 602.29 693.626 606.858 698.193L666.521 757.857C671.09 762.426 671.09 769.861 666.521 774.43ZM695.524 745.427C691.014 749.937 683.426 749.944 678.951 745.427L619.287 685.763C614.758 681.278 614.758 673.676 619.287 669.191H619.288C623.767 664.658 631.367 664.653 635.86 669.191C654.608 688.125 677.594 710.927 695.524 728.855C700.094 733.423 700.094 740.857 695.524 745.427ZM712.096 703.994C707.528 708.562 700.094 708.562 695.524 703.994L660.719 669.188C656.151 664.619 656.151 657.186 660.72 652.617H660.719C665.199 648.084 672.776 648.1 677.293 652.617C684.13 659.453 704.851 680.243 712.097 687.421C716.611 691.892 716.604 699.486 712.096 703.994ZM734.261 650.76L718.516 654.173C722.657 644.447 726.106 634.425 728.838 624.197C736.959 622.561 744.96 629.123 744.96 637.517C744.96 643.845 740.459 649.414 734.261 650.76V650.76Z"/>
</mask>
<path d="M732.849 606.39C735.265 593.128 736.499 579.632 736.499 566.102C736.499 445.262 640.518 346.435 520.787 341.8V301.513H533.138C565.993 301.513 592.723 274.785 592.723 241.93V225.477C592.723 218.046 586.677 212 579.246 212H562.792C535.013 212 511.616 231.11 505.05 256.873C494.152 245.024 478.532 237.583 461.202 237.583H444.749C437.318 237.583 431.272 243.628 431.272 251.06V267.513C431.272 300.367 458.002 327.096 490.856 327.096H503.208V341.802C365.924 346.874 266.65 471.906 291.145 606.39C274.811 607.067 261.456 621.113 261.456 637.518C261.456 652.055 271.781 664.849 286.009 667.939L302.865 671.593C288.839 682.524 286.712 703.668 299.468 716.424C302.774 719.729 306.679 722.072 310.836 723.464C308.632 727.629 307.461 732.294 307.461 737.141C307.461 744.967 310.507 752.324 316.04 757.857C321.509 763.326 328.76 766.361 336.484 766.432C336.556 773.838 339.405 781.222 345.043 786.86C354.249 796.068 368.203 797.954 379.42 792.064C383.261 803.74 395.065 812 407.193 812C414.694 812 422.199 809.143 427.91 803.432L449.55 781.793C469.753 787.636 490.732 790.603 511.997 790.603C533.263 790.603 554.242 787.636 574.444 781.793L596.085 803.432C607.509 814.855 626.094 814.855 637.516 803.432C640.767 800.181 643.153 796.298 644.573 792.062C655.766 797.943 669.755 796.054 678.95 786.858C684.588 781.22 687.437 773.836 687.51 766.429C695.234 766.359 702.485 763.324 707.953 757.855C716.908 748.899 719.045 734.561 713.166 723.476C717.398 722.054 721.277 719.67 724.525 716.422C737.16 703.785 734.912 682.267 721.129 671.591L737.988 667.937C752.214 664.847 762.537 652.053 762.537 637.515C762.538 620.97 749.029 607.058 732.849 606.39V606.39ZM520.787 271.583C520.787 248.422 539.63 229.579 562.792 229.579H575.144V241.93C575.144 264.386 557.432 282.782 535.243 283.882L547.986 272.599C551.622 269.381 551.959 263.826 548.741 260.192C545.523 256.557 539.968 256.219 536.334 259.437L520.787 273.203V271.583ZM487.945 281.825C484.512 278.393 478.947 278.393 475.515 281.825C472.082 285.258 472.082 290.823 475.515 294.255L490.777 309.516C467.651 309.472 448.852 290.649 448.852 267.514V255.161H461.204C484.339 255.161 503.164 273.961 503.207 297.086L487.945 281.825ZM289.737 650.761C283.536 649.415 279.035 643.845 279.035 637.518C279.035 629.123 286.951 622.562 295.157 624.198C297.888 634.426 301.337 644.448 305.479 654.173L289.737 650.761ZM311.897 703.993C307.389 699.484 307.368 691.906 311.898 687.42C311.898 687.42 346.603 652.715 346.702 652.617C351.208 648.111 358.759 648.102 363.275 652.617C367.844 657.186 367.844 664.619 363.276 669.188L328.47 703.994C323.98 708.527 316.394 708.489 311.897 703.993V703.993ZM328.472 745.427C323.902 740.857 323.902 733.423 328.472 728.853L388.135 669.19C392.614 664.657 400.214 664.653 404.707 669.19H404.708C409.223 673.66 409.24 681.279 404.707 685.763L345.043 745.427C340.554 749.959 332.967 749.922 328.472 745.427V745.427ZM374.048 774.43C369.479 778.998 362.044 779 357.474 774.43C352.905 769.861 352.905 762.425 357.474 757.856L417.135 698.193C421.705 693.625 429.139 693.624 433.71 698.193C438.279 702.762 438.279 710.197 433.71 714.766L374.048 774.43ZM450.284 756.2L415.479 791.004C410.911 795.572 403.478 795.573 398.906 791.004C394.399 786.498 394.377 778.921 398.904 774.435L433.711 739.628C438.19 735.095 445.768 735.114 450.284 739.628C454.853 744.195 454.853 751.631 450.284 756.2V756.2ZM462.713 727.196C459.462 723.946 455.58 721.561 451.344 720.14C457.164 709.081 455.43 695.055 446.141 685.765C440.503 680.127 433.119 677.277 425.712 677.205C425.642 669.483 422.607 662.231 417.137 656.762C411.603 651.228 404.247 648.181 396.421 648.181C391.575 648.181 386.91 649.353 382.745 651.556C381.352 647.399 379.01 643.493 375.705 640.189H375.704C370.17 634.655 362.813 631.608 354.987 631.608C347.161 631.608 339.804 634.656 334.27 640.19L323.319 651.142C311.357 624.589 305.073 595.435 305.073 566.106C305.073 523.441 318.057 483.754 340.276 450.78C358.616 463.5 372.283 480.387 377.458 497.095C380.763 507.751 380.082 516.35 379.141 528.251C377.989 542.823 376.554 560.959 382.072 589.766C384.758 603.804 387.633 612.645 389.837 618.781C391.496 623.401 396.611 625.686 401.081 624.081C405.65 622.44 408.023 617.406 406.381 612.838C404.392 607.304 401.795 599.306 399.336 586.461C394.263 559.982 395.54 543.862 396.666 529.639C397.678 516.832 398.554 505.771 394.249 491.891C387.888 471.353 372.243 451.602 350.733 436.617C378.26 402.408 416.417 377.098 460.151 365.774C465.206 387.088 469.362 410 472.846 432.362C478.466 468.42 482.904 496.901 504.48 503.849C516.87 507.841 527.478 501.842 536.837 496.552C545.563 491.621 553.805 486.963 563.802 488.903C579.061 491.862 589.044 516.161 602.988 527.623C623.485 544.471 653.447 551.164 683.44 548.682C688.278 548.281 691.874 544.034 691.473 539.196C691.071 534.359 686.796 530.762 681.988 531.164C655.241 533.375 629.887 526.98 614.15 514.044C596.692 499.693 592.918 476.648 567.151 471.647C550.794 468.472 538.261 475.556 528.188 481.249C519.965 485.896 514.684 488.67 509.867 487.118C498.604 483.49 494.529 457.341 490.214 429.656C486.683 407.002 482.443 383.699 477.345 362.114C488.616 360.206 500.189 359.197 511.995 359.197C626.093 359.197 718.918 452.017 718.918 566.108C718.918 595.437 712.634 624.592 700.672 651.145L689.721 640.193C684.187 634.659 676.83 631.611 669.004 631.611C661.178 631.611 653.821 634.659 648.287 640.192H648.286C644.981 643.497 642.64 647.403 641.246 651.56C636.79 649.2 631.702 648.025 626.534 648.209C606.757 630.274 566.328 595.403 537.458 609.241C522.276 616.514 519.958 631.583 517.274 649.034C515.34 661.613 513.147 675.872 506.125 691.859C498.286 709.718 486.308 725.114 469.757 738.597C468.372 734.425 466.027 730.508 462.713 727.196V727.196ZM561.281 727.196C550.26 738.218 549.876 755.905 560.12 767.395C544.44 771.13 528.313 773.025 511.997 773.025C495.682 773.025 479.554 771.13 463.874 767.395C465.371 765.716 466.636 763.904 467.679 762.001C493.369 744.593 511.24 723.944 522.225 698.921C530.174 680.821 532.657 664.673 534.651 651.7C537.076 635.932 538.533 628.214 545.057 625.089C561.207 617.352 590.877 640.361 608.243 655.469C601.949 661.002 598.355 668.83 598.281 677.203C590.875 677.276 583.492 680.125 577.852 685.764C568.563 695.054 566.829 709.081 572.649 720.139C568.415 721.561 564.533 723.946 561.281 727.196V727.196ZM625.087 791.003C620.519 795.571 613.084 795.571 608.515 791.003L573.711 756.199C569.142 751.629 569.142 744.195 573.711 739.626H573.71C578.19 735.093 585.79 735.087 590.284 739.626L625.093 774.435C629.602 778.907 629.594 786.497 625.087 791.003V791.003ZM666.521 774.43C661.953 779 654.517 778.998 649.948 774.43C640.372 764.855 600.375 724.855 590.285 714.766C585.716 710.197 585.716 702.762 590.285 698.193C594.854 693.624 602.29 693.626 606.858 698.193L666.521 757.857C671.09 762.426 671.09 769.861 666.521 774.43ZM695.524 745.427C691.014 749.937 683.426 749.944 678.951 745.427L619.287 685.763C614.758 681.278 614.758 673.676 619.287 669.191H619.288C623.767 664.658 631.367 664.653 635.86 669.191C654.608 688.125 677.594 710.927 695.524 728.855C700.094 733.423 700.094 740.857 695.524 745.427ZM712.096 703.994C707.528 708.562 700.094 708.562 695.524 703.994L660.719 669.188C656.151 664.619 656.151 657.186 660.72 652.617H660.719C665.199 648.084 672.776 648.1 677.293 652.617C684.13 659.453 704.851 680.243 712.097 687.421C716.611 691.892 716.604 699.486 712.096 703.994ZM734.261 650.76L718.516 654.173C722.657 644.447 726.106 634.425 728.838 624.197C736.959 622.561 744.96 629.123 744.96 637.517C744.96 643.845 740.459 649.414 734.261 650.76V650.76Z" fill="#AD0D0F" stroke="#AD0D0F" stroke-width="2.00005" mask="url(#path-2-inside-1)"/>
</svg>
