<svg width="39" height="36" viewBox="0 0 39 36" fill="none" xmlns="http://www.w3.org/2000/svg">
<path fill-rule="evenodd" clip-rule="evenodd" d="M10.4383 11.4023H5.3952C5.21302 11.4023 5.04092 11.3281 4.92115 11.1999L0.508431 6.44988C0.289686 6.21416 0.301664 5.85969 0.536798 5.63881L2.42796 3.85756C2.67444 3.62541 3.07285 3.62541 3.31933 3.85756L6.91695 7.24609H11.7684C10.9489 6.49084 10.4383 5.43991 10.4383 4.27734C10.4383 1.98547 12.4177 0.121094 14.851 0.121094C17.2843 0.121094 19.2637 1.98547 19.2637 4.27734C19.2637 5.43991 18.7531 6.49084 17.9336 7.24609H18.003C20.4363 7.24609 22.4157 9.11047 22.4157 11.4023V17.3398H27.866L27.1518 15.1531L26.0719 16.5092C25.9313 16.6861 25.7006 16.774 25.4667 16.739C25.2348 16.7033 25.0438 16.5502 24.9694 16.3406L23.7086 12.7781C23.6437 12.5928 23.6783 12.3897 23.8025 12.2336L25.6937 9.85859C25.8355 9.67987 26.0694 9.59259 26.3064 9.63C26.5397 9.66859 26.7313 9.82653 26.8007 10.0403L28.7196 15.9148L30.6385 10.0397C30.7084 9.82653 30.8994 9.668 31.1327 9.62941C31.3691 9.59081 31.6036 9.67928 31.7454 9.858L33.6366 12.233C33.7608 12.3892 33.7961 12.5922 33.7305 12.7775L32.4697 16.34C32.3953 16.5496 32.2037 16.7027 31.9724 16.7384C31.741 16.7728 31.5078 16.6849 31.3672 16.5086L30.288 15.1525L29.5731 17.3398H30.6107C30.9587 17.3398 31.2411 17.6058 31.2411 17.9336V27.4336C31.2411 27.7613 30.9587 28.0273 30.6107 28.0273H29.3499V35.1523C29.3499 35.4801 29.0675 35.7461 28.7196 35.7461H9.80791C9.45994 35.7461 9.17753 35.4801 9.17753 35.1523V28.0273H7.91675C7.56878 28.0273 7.28636 27.7613 7.28636 27.4336V17.9336C7.28636 17.6058 7.56878 17.3398 7.91675 17.3398H10.4383V11.4023ZM32.4294 12.6973L31.4794 11.5039L30.7456 13.7494L31.6534 14.8894L32.4294 12.6973ZM25.0091 12.6973L25.7851 14.8894L26.6929 13.7494L25.9591 11.5039L25.0091 12.6973ZM10.4383 28.0273V34.5586H28.0892V28.0273H24.3068V32.7773C24.3068 32.9768 24.2003 33.1633 24.0232 33.2731C23.9191 33.3378 23.7981 33.3711 23.6764 33.3711C23.592 33.3711 23.5075 33.3551 23.4281 33.323L19.2637 31.6421L15.0994 33.323C14.9046 33.402 14.6808 33.383 14.5043 33.2731C14.3272 33.1633 14.2206 32.9768 14.2206 32.7773V28.0273H10.4383ZM23.0461 28.0273H15.4814V31.8766L19.0154 30.4504C19.1742 30.3863 19.3532 30.3863 19.5121 30.4504L23.0461 31.8766V28.0273ZM29.9803 26.8398V18.5273H8.54714V26.8398H29.9803ZM14.851 1.30859C13.113 1.30859 11.6991 2.64038 11.6991 4.27734C11.6991 5.91431 13.113 7.24609 14.851 7.24609C16.589 7.24609 18.003 5.91431 18.003 4.27734C18.003 2.64038 16.589 1.30859 14.851 1.30859ZM6.21029 8.25962L2.87365 5.11691L1.84548 6.08531L5.68139 10.2148H11.0687C11.4167 10.2148 11.6991 10.4808 11.6991 10.8086V17.3398H12.9599V12.5898C12.9599 12.4978 12.9825 12.4064 13.0267 12.3238L14.2874 9.94884L15.4152 10.4803L14.2206 12.73V17.3398H18.003V10.8086H19.2637V17.3398H21.1549V11.4023C21.1549 9.76538 19.7409 8.43359 18.003 8.43359H6.65597C6.48892 8.43359 6.32817 8.37125 6.21029 8.25962Z" fill="black"/>
<path d="M26.8284 2.49609H35.6539V3.68359H26.8284V2.49609Z" fill="black"/>
<path d="M35.6539 4.87109H26.8284V6.05859H35.6539V4.87109Z" fill="black"/>
<path fill-rule="evenodd" clip-rule="evenodd" d="M26.198 0.121094H36.2842C37.3269 0.121094 38.1754 0.920281 38.1754 1.90234V6.65234C38.1754 7.63441 37.3269 8.43359 36.2842 8.43359H22.4157C22.161 8.43359 21.9309 8.28872 21.8332 8.06725C21.7355 7.84519 21.7897 7.58988 21.97 7.42006L24.3069 5.21903V1.90234C24.3069 0.920281 25.1554 0.121094 26.198 0.121094ZM36.2842 7.24609C36.6316 7.24609 36.9146 6.9795 36.9146 6.65234V1.90234C36.9146 1.57519 36.6316 1.30859 36.2842 1.30859H26.198C25.8507 1.30859 25.5677 1.57519 25.5677 1.90234V5.46484C25.5677 5.62219 25.5015 5.77359 25.383 5.88462L23.9375 7.24609H36.2842Z" fill="black"/>
</svg>
