<svg width="41" height="41" viewBox="0 0 41 41" fill="none" xmlns="http://www.w3.org/2000/svg">
<g clip-path="url(#clip0)">
<path d="M10.4836 20.24C10.4836 23.134 8.13673 25.48 5.24178 25.48C2.34682 25.48 0 23.134 0 20.24C0 17.346 2.34682 15 5.24178 15C8.13673 15 10.4836 17.346 10.4836 20.24Z" fill="black"/>
<path d="M25.4836 20.24C25.4836 23.134 23.1367 25.48 20.2418 25.48C17.3468 25.48 15 23.134 15 20.24C15 17.346 17.3468 15 20.2418 15C23.1367 15 25.4836 17.346 25.4836 20.24Z" fill="black"/>
<path d="M40.4836 20.24C40.4836 23.134 38.1367 25.48 35.2418 25.48C32.3468 25.48 30 23.134 30 20.24C30 17.346 32.3468 15 35.2418 15C38.1367 15 40.4836 17.346 40.4836 20.24Z" fill="black"/>
</g>
<defs>
<clipPath id="clip0">
<rect width="40.48" height="40.48" fill="white"/>
</clipPath>
</defs>
</svg>
