<svg width="41" height="11" viewBox="0 0 41 11" fill="none" xmlns="http://www.w3.org/2000/svg">
<path d="M10.506 5.36109C10.506 8.25507 8.15913 10.6011 5.26418 10.6011C2.36922 10.6011 0.0223999 8.25507 0.0223999 5.36109C0.0223999 2.46712 2.36922 0.121094 5.26418 0.121094C8.15913 0.121094 10.506 2.46712 10.506 5.36109Z" fill="black"/>
<path d="M25.506 5.36109C25.506 8.25507 23.1591 10.6011 20.2642 10.6011C17.3692 10.6011 15.0224 8.25507 15.0224 5.36109C15.0224 2.46712 17.3692 0.121094 20.2642 0.121094C23.1591 0.121094 25.506 2.46712 25.506 5.36109Z" fill="black"/>
<path d="M40.506 5.36109C40.506 8.25507 38.1591 10.6011 35.2642 10.6011C32.3692 10.6011 30.0224 8.25507 30.0224 5.36109C30.0224 2.46712 32.3692 0.121094 35.2642 0.121094C38.1591 0.121094 40.506 2.46712 40.506 5.36109Z" fill="black"/>
</svg>
