<svg width="42" height="41" viewBox="0 0 42 41" fill="none" xmlns="http://www.w3.org/2000/svg">
<path fill-rule="evenodd" clip-rule="evenodd" d="M41.331 20.8841V22.0052C41.331 26.578 37.6233 30.2865 33.0497 30.2865C29.0838 30.2865 25.7688 27.4983 24.9581 23.7753V27.9157C26.7047 28.3559 28.2573 29.0953 29.4427 30.0722C30.5315 30.9694 31.3513 32.1074 31.6554 33.4141H32.9775V35.8008H35.3642V40.4297H6.86809V35.8008H9.25481V33.4141H10.5769C10.8808 32.1075 11.7003 30.9695 12.7891 30.0722C13.9746 29.0952 15.5275 28.3558 17.2748 27.9156V23.7724C16.4652 27.4969 13.1495 30.2865 9.18255 30.2865C4.60907 30.2865 0.901291 26.5787 0.901291 22.0052V20.8841H2.32371L6.42587 10.4409C6.27801 10.2534 6.14925 10.0507 6.04202 9.83571C5.80162 9.3536 5.67592 8.82245 5.67473 8.28373L5.67473 8.28126C5.67473 7.35093 6.0443 6.4587 6.70215 5.80086C7.35999 5.14301 8.25222 4.77344 9.18255 4.77344H9.18581C9.50987 4.77438 9.83136 4.82047 10.1412 4.9097C10.5061 4.76593 10.8928 4.61227 11.1888 4.49079C12.8637 3.80341 14.87 2.98637 16.9891 2.4559C17.3409 1.80858 17.8415 1.25032 18.453 0.829166C19.2362 0.289882 20.1644 0.000770688 21.1152 1.43051e-06L21.117 0C22.0677 0.000705838 22.9959 0.289694 23.779 0.828821C24.3906 1.24991 24.8913 1.80812 25.2432 2.45543C27.361 2.98621 29.3666 3.80283 31.0411 4.48942C31.3902 4.63147 31.7402 4.77157 32.0909 4.90973C32.3919 4.82287 32.7131 4.77344 33.0497 4.77344C34.9864 4.77344 36.5576 6.34462 36.5576 8.28126V8.28321C36.5566 8.8223 36.4309 9.35386 36.1902 9.83624C36.0829 10.0513 35.954 10.254 35.806 10.4414L39.9079 20.8841H41.331ZM34.4945 10.169L39.1438 22.0052H40.2099C40.2099 22.3866 40.1801 22.761 40.1226 23.1263C39.5844 26.5477 36.6226 29.1654 33.0497 29.1654C29.4766 29.1654 26.5146 26.5478 25.9767 23.1257C25.9194 22.7606 25.8896 22.3864 25.8896 22.0052L26.955 22.0046L31.6043 10.169C31.3126 9.94817 31.0758 9.66288 30.9125 9.33542C30.7492 9.00796 30.6638 8.64718 30.663 8.28126C30.663 8.24875 30.6674 8.21734 30.6718 8.18587C30.6749 8.16373 30.678 8.14156 30.6796 8.11896C30.6111 8.0911 30.5434 8.06369 30.4757 8.03629C30.3471 7.9842 30.2186 7.93216 30.0851 7.87711C28.4093 7.1891 26.4713 6.39798 24.4805 5.91491C24.3005 6.41268 24.0125 6.86439 23.6371 7.23757C23.2617 7.61074 22.8083 7.89611 22.3095 8.07314V11.7213H23.0414V23.1986H23.837V28.8179C27.783 29.5504 30.663 31.8315 30.663 34.5352H31.8564V36.9219H34.2431V39.3086H7.98919V36.9219H10.3759V34.5352H11.5693C11.5693 31.8315 14.448 29.5504 18.3959 28.8179V23.1986H19.1915V11.722H19.9234V8.07377C19.4245 7.89686 18.9709 7.61155 18.5954 7.23836C18.2199 6.86518 17.9318 6.4134 17.7518 5.91554C15.7616 6.39861 13.8223 7.18973 12.1478 7.87774L11.5527 8.11896C11.5541 8.14265 11.5574 8.16587 11.5607 8.18907C11.565 8.21947 11.5693 8.24985 11.5693 8.28126C11.5684 8.64732 11.4829 9.00822 11.3195 9.3358C11.1561 9.66337 10.9192 9.94874 10.6273 10.1696L15.2766 22.0052H16.3427C16.3427 22.3866 16.3129 22.761 16.2554 23.1263C15.7173 26.5481 12.7555 29.1654 9.18255 29.1654C5.60963 29.1654 2.64777 26.5481 2.10966 23.1263C2.05222 22.761 2.02239 22.3866 2.02239 22.0052H3.08782L7.73715 10.169C7.44538 9.94817 7.2086 9.66288 7.04531 9.33542C6.88202 9.00796 6.79664 8.64718 6.79583 8.28126C6.79583 7.64826 7.04729 7.04119 7.49488 6.59359C7.94248 6.146 8.54955 5.89454 9.18255 5.89454C9.51902 5.89552 9.85143 5.9682 10.1576 6.10775C10.6139 5.92891 11.1988 5.69851 11.6145 5.52794C13.4398 4.77883 15.5637 3.91706 17.776 3.42126C18.0348 2.74503 18.4926 2.16317 19.0889 1.75251C19.6852 1.34184 20.3921 1.12169 21.1161 1.1211C21.8401 1.12164 22.5469 1.3417 23.1433 1.75224C23.7396 2.16279 24.1974 2.74451 24.4563 3.42063C26.668 3.91706 28.7918 4.77883 30.6172 5.5273C31.1013 5.72427 31.587 5.91755 32.074 6.10712C32.3725 5.97346 32.701 5.89454 33.0497 5.89454C34.3672 5.89454 35.4365 6.96379 35.4365 8.28126C35.4358 8.64727 35.3504 9.00817 35.187 9.33568C35.0236 9.66318 34.7866 9.9484 34.4945 10.169ZM28.1853 22.0046L32.6558 10.6285C32.7858 10.6527 32.9175 10.6659 33.0497 10.668C33.184 10.668 33.3145 10.6502 33.4431 10.6279L37.9116 22.0046H28.1853ZM36.2668 20.8835L33.0494 12.6921L29.8304 20.8835H36.2668ZM4.31873 22.0052L8.78794 10.6285C8.91715 10.6502 9.04762 10.668 9.18255 10.668C9.31748 10.668 9.44732 10.6502 9.57588 10.6279L14.0445 22.0052H4.31873ZM12.3997 20.8841L9.18197 12.6916L5.96365 20.8841H12.3997ZM11.9386 10.4416L16.0407 20.8841H17.4638V22.0052C17.4638 22.0293 17.4637 22.0534 17.4635 22.0775H18.0704V10.6009H18.8023V8.78982C18.4388 8.58388 18.1032 8.3298 17.8051 8.03355C17.5604 7.79034 17.344 7.52172 17.1591 7.23289C15.5848 7.68606 14.0482 8.30917 12.6361 8.88916C12.5776 9.21718 12.4724 9.5362 12.3227 9.83622C12.2154 10.0513 12.0866 10.2541 11.9386 10.4416ZM24.1625 22.0775V10.6002H23.4306V8.78898C23.7941 8.58299 24.1295 8.32889 24.4275 8.03263C24.6721 7.78949 24.8884 7.52094 25.0732 7.23221C26.6472 7.68525 28.1827 8.30814 29.5959 8.88819C29.6543 9.21637 29.7595 9.53554 29.9092 9.83571C30.0164 10.0507 30.1452 10.2534 30.2931 10.4408L26.1909 20.8835H24.7685V22.0046C24.7685 22.0287 24.7686 22.0534 24.7688 22.0775H24.1625ZM29.5634 8.01672C29.5635 8.01635 29.5635 8.0163 29.5634 8.01672ZM9.23654 8.21377C9.2275 8.21021 9.21784 8.20849 9.20813 8.20871C9.18909 8.20914 9.17098 8.21701 9.15767 8.23062C9.14436 8.24424 9.1369 8.26252 9.1369 8.28156C9.13689 8.30061 9.14434 8.31889 9.15764 8.33252C9.17095 8.34614 9.18905 8.35401 9.20809 8.35446C9.2178 8.35469 9.22746 8.35297 9.2365 8.34941C9.24554 8.34585 9.25377 8.34052 9.26073 8.33373C9.26768 8.32694 9.2732 8.31884 9.27697 8.30989C9.28074 8.30093 9.28269 8.29132 9.28269 8.2816C9.28269 8.27189 9.28075 8.26227 9.27699 8.25332C9.27322 8.24436 9.2677 8.23625 9.26075 8.22946C9.25381 8.22267 9.24557 8.21734 9.23654 8.21377ZM33.1037 8.21377C33.0947 8.21021 33.085 8.20849 33.0753 8.20871C33.0563 8.20914 33.0382 8.21701 33.0249 8.23062C33.0115 8.24424 33.0041 8.26253 33.0041 8.28156C33.0041 8.3006 33.0115 8.31889 33.0248 8.33252C33.0381 8.34614 33.0562 8.35401 33.0753 8.35446C33.085 8.35469 33.0946 8.35297 33.1037 8.34941C33.1127 8.34585 33.121 8.34052 33.1279 8.33373C33.1349 8.32695 33.1404 8.31884 33.1442 8.30989C33.1479 8.30093 33.1499 8.29131 33.1499 8.2816C33.1499 8.27189 33.1479 8.26228 33.1442 8.25332C33.1404 8.24436 33.1349 8.23625 33.1279 8.22946C33.121 8.22267 33.1128 8.21734 33.1037 8.21377ZM9.64784 7.17085C9.49982 7.11247 9.34162 7.08427 9.18255 7.0879C8.87074 7.09502 8.57409 7.22386 8.35604 7.44688C8.138 7.66989 8.01588 7.96937 8.0158 8.28127C8.01571 8.59316 8.13768 8.89271 8.3556 9.11584C8.57352 9.33897 8.8701 9.46797 9.18191 9.47526C9.34099 9.47897 9.4992 9.45085 9.64725 9.39256C9.7953 9.33426 9.93021 9.24695 10.044 9.13578C10.1579 9.0246 10.2483 8.89179 10.3101 8.74516C10.3719 8.59852 10.4037 8.44102 10.4038 8.2819C10.4038 8.12278 10.3721 7.96526 10.3104 7.8186C10.2487 7.67193 10.1583 7.53907 10.0445 7.42783C9.93073 7.3166 9.79587 7.22922 9.64784 7.17085ZM33.515 7.17085C33.367 7.11247 33.2088 7.08427 33.0497 7.0879C32.7379 7.09502 32.4413 7.22386 32.2232 7.44688C32.0052 7.66989 31.8831 7.96937 31.883 8.28127C31.8829 8.59316 32.0049 8.89271 32.2228 9.11584C32.4407 9.33897 32.7373 9.46797 33.0491 9.47526C33.2082 9.47897 33.3664 9.45085 33.5144 9.39256C33.6625 9.33426 33.7974 9.24695 33.9112 9.13578C34.0251 9.0246 34.1155 8.89179 34.1773 8.74516C34.2391 8.59852 34.2709 8.44102 34.271 8.2819C34.271 8.12278 34.2393 7.96526 34.1776 7.8186C34.1159 7.67193 34.0255 7.53907 33.9117 7.42783C33.7979 7.3166 33.6631 7.22922 33.515 7.17085Z" fill="black"/>
</svg>
