<svg width="40" height="41" viewBox="0 0 40 41" fill="none" xmlns="http://www.w3.org/2000/svg">
<path fill-rule="evenodd" clip-rule="evenodd" d="M20.371 0.199095L38.9358 6.86576H38.9392C39.4652 7.05635 39.8159 7.55805 39.8159 8.1201C39.8159 8.68214 39.4652 9.18384 38.9392 9.37443L35.6228 10.5664C35.763 10.8411 35.8371 11.1451 35.8391 11.4538V13.4538C35.8391 14.1901 35.2451 14.7871 34.5125 14.7871H33.186C32.4534 14.7871 31.8595 14.1901 31.8595 13.4538V11.9204L29.8697 12.6304V16.7871C29.8697 19.3791 20.9388 19.4538 19.9207 19.4538C18.9026 19.4538 9.97171 19.3791 9.97171 16.7871V12.6304L0.904871 9.37443C0.378821 9.18384 0.0281677 8.68214 0.0281677 8.1201C0.0281677 7.55805 0.378821 7.05635 0.904871 6.86576L19.465 0.199095C19.7582 0.0950932 20.0779 0.0950932 20.371 0.199095ZM19.9207 14.1204C20.6934 14.1204 26.0168 14.1644 28.5431 15.3204V9.51243C28.1452 8.9991 25.0172 8.12043 19.9207 8.12043C14.8242 8.12043 11.6962 8.9991 11.2982 9.51243V15.3204C13.8246 14.1644 19.148 14.1204 19.9207 14.1204ZM11.354 16.7871C11.9303 17.3058 15.0125 18.1204 19.9207 18.1204C24.8289 18.1204 27.911 17.3058 28.4874 16.7871C27.911 16.2684 24.8275 15.4538 19.9207 15.4538C15.0139 15.4538 11.9303 16.2684 11.354 16.7871ZM29.8697 11.2151L32.1705 10.3904C32.4091 10.0128 32.7666 9.72623 33.186 9.57643V6.2151L19.93 1.45376L1.34926 8.12043L9.97171 11.2144V9.45376C9.97171 6.86176 18.9026 6.7871 19.9207 6.7871C20.9388 6.7871 29.8697 6.86176 29.8697 9.45376V11.2151ZM33.186 11.4538V13.4538H34.5125V11.4538C34.5125 11.0856 34.2156 10.7871 33.8493 10.7871C33.4829 10.7871 33.186 11.0856 33.186 11.4538ZM34.5125 6.69176V9.54976L38.4921 8.12043L34.5125 6.69176Z" fill="black"/>
<path fill-rule="evenodd" clip-rule="evenodd" d="M37.7098 20.7978C37.749 20.7906 37.7887 20.787 37.8285 20.7871C38.2928 20.7871 39.8183 21.3158 39.8183 28.1204C39.8183 34.9251 38.2928 35.4538 37.8285 35.4538C37.7899 35.4544 37.7513 35.4515 37.7131 35.4451C33.6353 34.7927 29.5215 34.392 25.395 34.2451L26.6644 37.3051C26.8689 37.8067 26.7498 38.3828 26.3634 38.7609C25.977 39.1391 25.4008 39.2433 24.9075 39.0244L24.408 38.8091L24.1865 39.3204C23.9775 39.8078 23.4993 40.1226 22.9714 40.1204H22.9515C22.4123 40.1148 21.9301 39.7817 21.7317 39.2778L20.5836 36.5164L19.4315 39.2884C19.2314 39.7877 18.7513 40.1162 18.2158 40.1204H18.1992C17.6677 40.1225 17.1868 39.8037 16.9794 39.3118L16.7599 38.8044L16.2525 39.0224C15.7613 39.2369 15.1899 39.132 14.8057 38.757C14.4215 38.3819 14.3006 37.8109 14.4995 37.3111L15.7942 34.1898C11.2173 34.3036 6.65286 34.7218 2.13092 35.4418C2.09172 35.4489 2.05202 35.4529 2.0122 35.4538C1.54791 35.4538 0.0223999 34.9251 0.0223999 28.1204C0.0223999 21.3158 1.54791 20.7871 2.0122 20.7871C2.05199 20.7875 2.09169 20.7911 2.13092 20.7978C8.01586 21.7174 13.9649 22.1597 19.9204 22.1204C25.8759 22.1597 31.8249 21.7174 37.7098 20.7978ZM22.521 26.5518C22.4787 25.4977 22.3183 24.4518 22.0428 23.4338C21.349 23.4458 20.6453 23.4538 19.9204 23.4538C19.0758 23.4538 18.2518 23.4453 17.4484 23.4284C17.7175 24.5952 17.8701 25.7859 17.904 26.9831C19.2533 26.0137 21.0171 25.8489 22.521 26.5518ZM17.2673 30.7871C17.2673 32.6281 18.7521 34.1204 20.5836 34.1204C22.4143 34.1182 23.8978 32.6271 23.9 30.7871C23.9 28.9462 22.4152 27.4538 20.5836 27.4538C18.7521 27.4538 17.2673 28.9462 17.2673 30.7871ZM2.67546 28.1204C2.74409 26.2086 2.5204 24.2974 2.0122 22.4538C1.50399 24.2974 1.2803 26.2086 1.34893 28.1204C1.2803 30.0323 1.50399 31.9435 2.0122 33.7871C2.5204 31.9435 2.74409 30.0323 2.67546 28.1204ZM4.00199 28.1204C4.00199 31.0738 3.7148 32.8431 3.35199 33.9004V33.9018C7.66374 33.302 12.0058 32.9477 16.3573 32.8404L16.3865 32.7698C15.7239 31.37 15.8041 29.7295 16.6001 28.4018C16.604 28.3091 16.604 28.2171 16.604 28.1204C16.6428 26.5275 16.4606 24.9369 16.0628 23.3944C11.8096 23.2765 7.56611 22.9242 3.35133 22.3391C3.7148 23.3978 4.00199 25.1671 4.00199 28.1204ZM17.7163 37.6671L18.2005 38.7871L19.6285 35.3551C18.7391 35.1662 17.9244 34.7188 17.2859 34.0684L15.7305 37.8164L16.8468 37.3204C17.1822 37.1759 17.5707 37.3308 17.7163 37.6671ZM23.4509 37.6671C23.5965 37.3308 23.9851 37.1759 24.3205 37.3204L25.4347 37.7998L23.8827 34.0664C23.2435 34.7172 22.4282 35.1648 21.5381 35.3538L22.9601 38.7758L23.4509 37.6671ZM24.8285 32.8871C29.1377 33.0272 33.4346 33.4279 37.6959 34.0871C38.0003 33.5618 38.4918 31.4844 38.4918 28.1204C38.4918 24.7564 38.0036 22.6784 37.6959 22.1531C32.9671 22.881 28.1964 23.3001 23.4138 23.4078C23.7234 24.7549 23.8822 26.1325 23.8874 27.5151C25.258 28.903 25.6156 31.0057 24.7814 32.7724L24.8285 32.8871Z" fill="black"/>
</svg>
