<svg width="34" height="40" viewBox="0 0 34 40" fill="none" xmlns="http://www.w3.org/2000/svg">
<path d="M31.5537 25.7564C31.7153 24.8944 31.7978 24.0172 31.7978 23.1377C31.7978 15.2832 25.3777 8.85935 17.3689 8.55809V5.93947H18.1951C20.3927 5.93947 22.1807 4.2021 22.1807 2.06657V0.997091C22.1807 0.514074 21.7763 0.121094 21.2792 0.121094H20.1786C18.3205 0.121094 16.7555 1.36326 16.3163 3.03786C15.5873 2.26767 14.5425 1.78396 13.3833 1.78396H12.2828C11.7857 1.78396 11.3813 2.17694 11.3813 2.65996V3.72944C11.3813 5.86497 13.1693 7.60234 15.3669 7.60234H16.1931V8.55824C7.01022 8.88792 0.369809 17.015 2.00828 25.7564C0.915703 25.8005 0.0223923 26.7135 0.0223923 27.7797C0.0223923 28.7247 0.712991 29.5563 1.6647 29.7571L2.79224 29.9946C1.85401 30.7051 1.71173 32.0795 2.56499 32.9087C2.78612 33.1235 3.04731 33.2758 3.32535 33.3662C3.17798 33.637 3.0996 33.9402 3.0996 34.2553C3.0996 34.764 3.3034 35.2422 3.67347 35.6018C4.03931 35.9573 4.5243 36.1546 5.04096 36.1592C5.04582 36.6406 5.23638 37.1205 5.6135 37.487C6.22924 38.0855 7.16261 38.2081 7.91294 37.8252C8.1699 38.5842 8.95942 39.1211 9.77066 39.1211C10.2724 39.1211 10.7744 38.9354 11.1564 38.5642L12.6039 37.1576C13.9553 37.5374 15.3586 37.7303 16.781 37.7303C18.2034 37.7303 19.6067 37.5374 20.9581 37.1576L22.4056 38.5642C23.1697 39.3067 24.4129 39.3067 25.1769 38.5642C25.3943 38.3529 25.5539 38.1004 25.649 37.8251C26.3976 38.2074 27.3334 38.0846 27.9484 37.4869C28.3255 37.1204 28.5161 36.6404 28.5209 36.159C29.0376 36.1544 29.5227 35.9571 29.8884 35.6016C30.4874 35.0195 30.6304 34.0875 30.2371 33.367C30.5201 33.2746 30.7796 33.1197 30.9969 32.9085C31.842 32.0871 31.6917 30.6884 30.7697 29.9945L31.8974 29.757C32.849 29.5561 33.5395 28.7245 33.5395 27.7796C33.5396 26.7042 32.6359 25.7998 31.5537 25.7564V25.7564ZM17.3689 3.99399C17.3689 2.48849 18.6293 1.2637 20.1786 1.2637H21.0048V2.06657C21.0048 3.52621 19.8201 4.72191 18.3359 4.79343L19.1883 4.06003C19.4314 3.85086 19.454 3.4898 19.2388 3.25358C19.0235 3.01729 18.652 2.99535 18.4089 3.20453L17.3689 4.09926V3.99399ZM15.1721 4.65975C14.9425 4.43664 14.5703 4.43664 14.3407 4.65975C14.1111 4.88286 14.1111 5.24461 14.3407 5.46765L15.3615 6.45966C13.8147 6.45676 12.5572 5.23326 12.5572 3.72952V2.92657H13.3834C14.9309 2.92657 16.1901 4.14855 16.193 5.65168L15.1721 4.65975ZM1.91405 28.6406C1.4993 28.5531 1.19821 28.191 1.19821 27.7797C1.19821 27.2341 1.72773 26.8076 2.2766 26.914C2.45932 27.5788 2.69002 28.2302 2.96704 28.8623L1.91405 28.6406ZM3.39637 32.1006C3.09481 31.8076 3.0934 31.315 3.39645 31.0234C3.39645 31.0234 5.71784 28.7676 5.72442 28.7612C6.02582 28.4683 6.53096 28.4677 6.83299 28.7612C7.13862 29.0582 7.13862 29.5413 6.83306 29.8383L4.50494 32.1007C4.20455 32.3953 3.69715 32.3929 3.39637 32.1006V32.1006ZM4.50502 34.7938C4.19938 34.4968 4.19938 34.0136 4.50502 33.7166L8.49591 29.8384C8.79551 29.5438 9.30386 29.5435 9.6044 29.8384H9.60448C9.90643 30.129 9.9076 30.6242 9.6044 30.9157L5.6135 34.7938C5.3132 35.0885 4.80571 35.086 4.50502 34.7938V34.7938ZM7.55361 36.679C7.24797 36.976 6.75068 36.9761 6.44496 36.679C6.13933 36.382 6.13933 35.8987 6.44496 35.6017L10.4357 31.7236C10.7413 31.4267 11.2386 31.4266 11.5443 31.7236C11.85 32.0206 11.85 32.5039 11.5443 32.8009L7.55361 36.679ZM12.653 35.4941L10.3249 37.7564C10.0194 38.0533 9.52217 38.0534 9.21638 37.7564C8.9149 37.4635 8.91341 36.9709 9.21622 36.6793L11.5444 34.4169C11.844 34.1223 12.351 34.1235 12.653 34.4169C12.9586 34.7138 12.9586 35.1971 12.653 35.4941V35.4941ZM13.4844 33.6089C13.2669 33.3976 13.0072 33.2425 12.7239 33.1502C13.1132 32.4314 12.9972 31.5196 12.3759 30.9158C11.9988 30.5493 11.5048 30.3641 11.0094 30.3594C11.0047 29.8575 10.8017 29.3861 10.4358 29.0306C10.0656 28.6709 9.57359 28.4729 9.05012 28.4729C8.72598 28.4729 8.41392 28.549 8.13533 28.6922C8.0422 28.422 7.8855 28.1682 7.66445 27.9533H7.66437C7.29422 27.5937 6.8021 27.3956 6.27863 27.3956C5.75515 27.3956 5.26303 27.5937 4.89288 27.9534L4.16034 28.6653C3.36024 26.9394 2.93992 25.0444 2.93992 23.138C2.93992 20.3648 3.80838 17.7851 5.29462 15.6418C6.52139 16.4686 7.43556 17.5662 7.78172 18.6522C8.00277 19.3449 7.95723 19.9038 7.89428 20.6774C7.81723 21.6246 7.7212 22.8034 8.09033 24.6759C8.27 25.5884 8.46228 26.163 8.60973 26.5619C8.72073 26.8622 9.06281 27.0107 9.36187 26.9063C9.66742 26.7997 9.82616 26.4725 9.71634 26.1755C9.58331 25.8158 9.4096 25.296 9.24514 24.4611C8.9058 22.7399 8.99117 21.6921 9.0665 20.7677C9.13423 19.9352 9.19278 19.2162 8.90486 18.314C8.47937 16.979 7.43289 15.6953 5.99408 14.7212C7.83533 12.4976 10.3877 10.8524 13.313 10.1164C13.6511 11.5018 13.9291 12.9911 14.1622 14.4446C14.5381 16.7884 14.8349 18.6397 16.2781 19.0913C17.1069 19.3508 17.8165 18.9608 18.4425 18.617C19.0262 18.2964 19.5775 17.9937 20.2462 18.1198C21.2668 18.3121 21.9346 19.8916 22.8673 20.6366C24.2384 21.7317 26.2425 22.1667 28.2487 22.0054C28.5724 21.9794 28.8129 21.7033 28.786 21.3889C28.7592 21.0744 28.4732 20.8406 28.1516 20.8668C26.3625 21.0105 24.6666 20.5948 23.6139 19.7539C22.4462 18.8211 22.1938 17.3232 20.4702 16.9981C19.3761 16.7918 18.5377 17.2522 17.864 17.6223C17.3139 17.9243 16.9607 18.1046 16.6385 18.0038C15.8851 17.7679 15.6125 16.0683 15.3239 14.2688C15.0877 12.7962 14.8041 11.2815 14.4631 9.87848C15.217 9.75447 15.9911 9.68889 16.7808 9.68889C24.4128 9.68889 30.6218 15.7222 30.6218 23.1381C30.6218 25.0445 30.2015 26.9396 29.4014 28.6655L28.6689 27.9537C28.2987 27.594 27.8066 27.3958 27.2831 27.3958C26.7596 27.3958 26.2675 27.594 25.8974 27.9536H25.8973C25.6762 28.1684 25.5196 28.4223 25.4264 28.6925C25.1283 28.5391 24.788 28.4627 24.4423 28.4747C23.1194 27.3089 20.4151 25.0423 18.484 25.9418C17.4685 26.4145 17.3135 27.394 17.134 28.5283C17.0045 29.346 16.8579 30.2728 16.3882 31.3119C15.8638 32.4727 15.0626 33.4735 13.9556 34.3499C13.8629 34.0787 13.7061 33.8241 13.4844 33.6089V33.6089ZM20.0775 33.6089C19.3404 34.3253 19.3146 35.4749 19.9999 36.2218C18.9511 36.4645 17.8723 36.5877 16.781 36.5877C15.6897 36.5877 14.6109 36.4645 13.5621 36.2218C13.6622 36.1126 13.7468 35.9948 13.8166 35.8711C15.5349 34.7397 16.7303 33.3975 17.4651 31.7709C17.9968 30.5944 18.1629 29.5448 18.2963 28.7016C18.4585 27.6767 18.5559 27.175 18.9923 26.9718C20.0726 26.469 22.0572 27.9645 23.2188 28.9466C22.7978 29.3062 22.5574 29.815 22.5525 30.3593C22.0571 30.364 21.5632 30.5492 21.186 30.9157C20.5646 31.5196 20.4487 32.4314 20.838 33.1501C20.5547 33.2425 20.295 33.3976 20.0775 33.6089V33.6089ZM24.3455 37.7563C24.04 38.0532 23.5427 38.0532 23.237 37.7563L20.909 35.494C20.6033 35.197 20.6033 34.7138 20.909 34.4168H20.9089C21.2086 34.1221 21.7169 34.1217 22.0175 34.4168L24.3459 36.6793C24.6475 36.97 24.647 37.4634 24.3455 37.7563V37.7563ZM27.117 36.679C26.8114 36.9761 26.3141 36.976 26.0084 36.679C25.3679 36.0567 22.6925 33.4567 22.0176 32.8009C21.712 32.5039 21.712 32.0206 22.0176 31.7236C22.3233 31.4266 22.8206 31.4268 23.1262 31.7236L27.117 35.6018C27.4226 35.8988 27.4226 36.382 27.117 36.679ZM29.057 34.7938C28.7553 35.087 28.2478 35.0875 27.9485 34.7938L23.9576 30.9157C23.6546 30.6241 23.6546 30.13 23.9576 29.8385H23.9576C24.2572 29.5439 24.7656 29.5436 25.0661 29.8385C26.3202 31.0692 27.8577 32.5513 29.057 33.7166C29.3627 34.0136 29.3627 34.4968 29.057 34.7938ZM30.1655 32.1007C29.86 32.3976 29.3627 32.3976 29.057 32.1007L26.7289 29.8383C26.4233 29.5413 26.4233 29.0582 26.729 28.7612H26.7289C27.0286 28.4665 27.5354 28.4676 27.8375 28.7612C28.2949 29.2056 29.6809 30.5569 30.1656 31.0235C30.4675 31.3141 30.4671 31.8077 30.1655 32.1007ZM31.6481 28.6405L30.5949 28.8623C30.872 28.2302 31.1026 27.5787 31.2854 26.9139C31.8286 26.8075 32.3638 27.2341 32.3638 27.7797C32.3638 28.191 32.0627 28.553 31.6481 28.6405V28.6405Z" fill="black"/>
</svg>
