<svg width="37" height="41" viewBox="0 0 37 41" fill="none" xmlns="http://www.w3.org/2000/svg">
<path fill-rule="evenodd" clip-rule="evenodd" d="M23.145 22.8463C23.145 23.6926 22.3734 24.381 21.4251 24.381C20.4768 24.381 19.7052 23.6925 19.7052 22.8463V21.902C19.7052 21.186 19.0524 20.6034 18.2498 20.6034H16.6622C15.568 20.6034 14.6777 21.3977 14.6777 22.3742C14.6777 23.3506 15.5681 24.1449 16.6622 24.1449H17.7206C20.7115 24.1449 23.1448 26.3162 23.1448 28.985C23.1448 31.2749 21.3625 33.2193 18.9112 33.7072V34.8089C18.9112 35.6551 18.1396 36.3436 17.1913 36.3436C16.2429 36.3436 15.4714 35.655 15.4714 34.8089V33.7854C13.0838 33.4964 11.2378 31.6657 11.2378 29.4572C11.2378 28.611 12.0094 27.9225 12.9577 27.9225C13.9061 27.9225 14.6776 28.611 14.6776 29.4572C14.6776 30.1732 15.3304 30.7558 16.133 30.7558H17.7206C18.8148 30.7558 19.7051 29.9615 19.7051 28.985C19.7051 28.0085 18.8147 27.2142 17.7206 27.2142H16.6622C13.6713 27.2142 11.238 25.043 11.238 22.3742C11.238 20.0843 13.0203 18.1399 15.4716 17.652V16.5503C15.4716 15.7041 16.2432 15.0156 17.1915 15.0156C18.1399 15.0156 18.9114 15.7041 18.9114 16.5503V17.5738C21.299 17.8627 23.145 19.6935 23.145 21.902V22.8463ZM16.6623 19.4229H18.2499C19.7819 19.4229 21.0282 20.535 21.0282 21.902V22.8463C21.0282 23.0416 21.2063 23.2005 21.4251 23.2005C21.6439 23.2005 21.822 23.0416 21.822 22.8463V21.902C21.822 20.1445 20.2196 18.7146 18.2499 18.7146C17.8846 18.7146 17.5885 18.4504 17.5885 18.1244V16.5504C17.5885 16.3552 17.4104 16.1963 17.1916 16.1963C16.9728 16.1963 16.7947 16.3552 16.7947 16.5504V18.1513C16.7947 18.452 16.5412 18.7047 16.2062 18.7379C14.1283 18.9439 12.5612 20.5071 12.5612 22.3742C12.5612 24.3921 14.401 26.0339 16.6625 26.0339H17.7208C19.5446 26.0339 21.0283 27.3578 21.0283 28.9851C21.0283 30.6125 19.5446 31.9364 17.7208 31.9364H16.1332C14.6013 31.9364 13.355 30.8243 13.355 29.4573C13.355 29.2621 13.1769 29.1032 12.9581 29.1032C12.7393 29.1032 12.5612 29.2621 12.5612 29.4573C12.5612 31.2148 14.1635 32.6446 16.1332 32.6446C16.4986 32.6446 16.7947 32.9089 16.7947 33.2349V34.8089C16.7947 35.0041 16.9728 35.163 17.1916 35.163C17.4104 35.163 17.5885 35.0041 17.5885 34.8089V33.208C17.5885 32.9072 17.8419 32.6546 18.1769 32.6214C20.2548 32.4154 21.822 30.8521 21.822 28.985C21.822 26.9671 19.9822 25.3254 17.7207 25.3254H16.6623C14.8386 25.3254 13.3549 24.0015 13.3549 22.3742C13.3549 20.7468 14.8386 19.4229 16.6623 19.4229Z" fill="black"/>
<path fill-rule="evenodd" clip-rule="evenodd" d="M34.83 11.3665C35.3695 11.4771 35.8285 11.7686 36.1224 12.1872C36.5431 12.7863 36.5406 13.5672 36.1135 14.1636C35.6468 14.815 34.7466 15.1447 33.9018 14.9715L25.9275 13.3367C26.5669 14.1061 27.3297 14.8641 28.1314 15.6592C30.493 18.0011 33.1697 20.6555 34.0703 24.9413C34.5013 26.9919 34.4868 28.9108 34.0275 30.6445C33.5987 32.2632 32.7819 33.7282 31.6 34.999C30.0311 36.6858 27.8756 37.9947 25.1935 38.8894C22.7775 39.6953 20.0105 40.1212 17.1916 40.1212C14.3727 40.1212 11.6057 39.6953 9.18966 38.8894C6.50752 37.9947 4.35203 36.6859 2.78315 34.999C1.60126 33.7282 0.784467 32.2631 0.355628 30.6445C-0.103768 28.9108 -0.118127 26.992 0.312814 24.9413C1.21338 20.6555 3.89009 18.0011 6.25165 15.6593C7.36218 14.558 8.41927 13.5084 9.15936 12.4023C8.14408 12.2835 7.35741 11.507 7.35741 10.5691C7.35741 9.54935 8.28724 8.71966 9.43008 8.71966H9.45494C8.33364 7.40505 7.21522 5.66504 6.66083 2.6973C6.57398 2.23113 7.13441 1.86042 7.60922 2.0723C9.37186 2.85879 11.7007 3.1016 13.9464 3.04019C13.7996 2.34918 13.5324 1.66355 13.0964 1.01511C12.8047 0.581204 13.2486 0.0288586 13.8017 0.134171C15.591 0.474797 18.4387 0.728391 20.7268 0.750813C22.9529 0.772454 25.2166 0.5705 27.6446 0.132843C28.0481 0.060265 28.437 0.344328 28.437 0.711438C28.437 2.21668 26.6482 5.71551 25.4066 7.77731C25.6794 7.942 25.9059 8.16333 26.0652 8.42192L32.1831 6.89403C33.2724 6.62223 34.4334 7.20653 34.7378 8.17661C35.0425 9.14849 34.3875 10.1846 33.3004 10.4561L31.9883 10.7838L34.83 11.3665ZM26.9878 1.44589C24.8104 1.79214 22.7491 1.95105 20.7123 1.93121C18.8417 1.91285 16.6029 1.74386 14.8255 1.49839C15.0339 1.98355 15.1772 2.47683 15.2696 2.96933C16.1508 2.89965 16.9977 2.78847 17.7675 2.65105C18.1708 2.57902 18.5587 2.86324 18.5587 3.2298C18.5587 5.13635 19.7401 7.37732 20.3081 8.45472C20.3593 8.55183 20.4056 8.63981 20.4471 8.71958H22.2836C22.5444 8.03083 23.2478 7.52286 24.0905 7.46622C25.3065 5.49285 26.5886 2.90238 26.9878 1.44589ZM24.9972 11.8282V9.30974C24.9972 8.94091 24.6609 8.64075 24.2475 8.64075C23.834 8.64075 23.4977 8.94083 23.4977 9.30974V11.8282C23.4977 12.1971 23.834 12.4972 24.2475 12.4972C24.6609 12.4972 24.9972 12.197 24.9972 11.8282ZM14.0879 4.22504C11.8909 4.29395 9.85655 4.07059 8.20283 3.56691C8.86536 6.09762 9.98806 7.47145 11.0945 8.65919C11.1124 8.67856 11.1284 8.69888 11.1432 8.71958H18.986C18.4179 7.63473 17.483 5.75832 17.2768 3.93223C16.6447 4.02762 16.0173 4.10051 15.3989 4.15113L14.0879 4.22504ZM32.7701 25.1586C31.9379 21.1985 29.3933 18.6751 27.148 16.4487C26.1954 15.5041 25.2955 14.6098 24.5572 13.6569C24.456 13.6704 24.3527 13.6776 24.2474 13.6776C23.3358 13.6776 22.5603 13.1495 22.2835 12.4184H15.4274C15.0621 12.4184 14.766 12.1541 14.766 11.8282C14.766 11.5022 15.062 11.2379 15.4274 11.2379H22.1747V9.90005H9.42999C9.01656 9.90005 8.68027 10.2001 8.68027 10.569C8.68027 10.9379 9.01656 11.238 9.42999 11.238H12.2744C12.6398 11.238 12.9359 11.5022 12.9359 11.8283C12.9359 12.1542 12.6399 12.4185 12.2744 12.4185H10.6589C9.84605 13.8581 8.57774 15.1173 7.23527 16.4487C4.99004 18.675 2.44528 21.1985 1.61308 25.1587C0.847331 28.8034 1.58349 31.8604 3.80132 34.2449C6.53598 37.1851 11.5418 38.9405 17.1917 38.9405C22.8415 38.9405 27.8472 37.185 30.5819 34.2448C32.7997 31.8603 33.536 28.8033 32.7701 25.1586ZM32.5396 8.03091L26.3202 9.58411V9.62185L29.3059 10.234C29.3328 10.2236 29.3604 10.2142 29.3894 10.2069L32.9438 9.31927C33.337 9.22114 33.5738 8.8463 33.4637 8.49481C33.3537 8.14411 32.9334 7.93239 32.5396 8.03091ZM34.198 13.8208C34.6015 13.9036 35.0039 13.6782 35.0965 13.3187C35.188 12.9631 34.9318 12.5985 34.5337 12.5169L26.3201 10.8329V11.8281C26.3201 11.9545 26.3058 12.0779 26.2786 12.1972L34.198 13.8208Z" fill="black"/>
</svg>
