<svg width="33" height="40" viewBox="0 0 33 40" fill="none" xmlns="http://www.w3.org/2000/svg">
<path fill-rule="evenodd" clip-rule="evenodd" d="M13.8566 20.7615C14.0481 21.2503 14.0463 21.8023 13.8418 22.3781C13.4872 23.3761 12.6168 23.814 11.8007 23.9774C10.9872 24.1403 10.1302 24.0568 9.58252 23.9326L9.19315 23.8442V19.4077L9.56536 19.3093C10.7612 18.9932 11.9952 19.1162 12.8656 19.6377C13.306 19.9016 13.6669 20.2773 13.8566 20.7615ZM10.1931 20.1951C11.0482 20.0488 11.8354 20.1862 12.3517 20.4955C12.6418 20.6693 12.8318 20.8871 12.9255 21.1262C13.0174 21.3608 13.0349 21.662 12.8995 22.0434C12.7099 22.5769 12.2411 22.8694 11.6044 22.9969C11.1276 23.0924 10.6119 23.0804 10.1931 23.0257V20.1951Z" fill="black"/>
<path fill-rule="evenodd" clip-rule="evenodd" d="M12.2452 17.3813C12.7254 17.4463 13.1992 17.5428 13.5626 17.6942C14.3434 18.0196 14.948 18.8488 15.3316 19.7051C15.7209 20.5745 15.9417 21.6013 15.8589 22.474C15.8075 23.4822 15.2042 24.2572 14.5828 24.779C13.9949 25.2728 13.3241 25.5976 12.8871 25.7235C13.4141 26.4049 14.0753 27.2733 14.5988 27.9608C15.0476 28.5502 15.3954 29.0071 15.47 29.0983C15.5846 29.2382 15.6653 29.4238 15.7178 29.5974C15.7733 29.7805 15.8108 29.9946 15.8129 30.2163C15.8168 30.6459 15.6803 31.2189 15.1314 31.5356C14.6684 31.8027 14.1968 31.6933 13.8708 31.5314C13.5474 31.3708 13.2855 31.124 13.1354 30.9418L13.1284 30.9333L10.1928 27.0319V29.9432C10.2243 30.2986 10.0773 30.7273 9.81682 31.0488C9.52437 31.4098 9.04357 31.6902 8.41101 31.5972C7.87544 31.5184 7.55013 31.1904 7.38387 30.8365C7.23487 30.5193 7.20905 30.1803 7.22812 29.9466V18.6434L7.23492 18.6025C7.30886 18.1589 7.55061 17.829 7.82115 17.6117C8.08246 17.4018 8.39667 17.2754 8.6721 17.2542C8.86149 17.2397 9.74506 17.2149 10.7308 17.2564C11.2261 17.2772 11.7567 17.3151 12.2452 17.3813ZM10.6887 18.2555C9.72867 18.2151 8.88686 18.2407 8.7488 18.2513C8.69679 18.2553 8.5702 18.2927 8.4474 18.3913C8.34211 18.4759 8.26078 18.5882 8.22811 18.7323V29.9939L8.22563 30.0188C8.21545 30.1206 8.22896 30.2835 8.28898 30.4113C8.33766 30.5149 8.40696 30.5858 8.55651 30.6078C8.78035 30.6407 8.92925 30.5558 9.03981 30.4194C9.09929 30.3459 9.14367 30.2601 9.17026 30.1786C9.18334 30.1386 9.19087 30.1033 9.19444 30.0754C9.1962 30.0615 9.19686 30.0506 9.19697 30.0426L9.19688 30.0345L9.19665 30.031L9.19279 30.0001V24.0399L13.9136 30.3136C13.9999 30.4161 14.1526 30.5549 14.3155 30.6358C14.4798 30.7173 14.5708 30.7045 14.6317 30.6694C14.7376 30.6083 14.8152 30.4759 14.8129 30.2255C14.8118 30.1071 14.7911 29.9875 14.7607 29.8872C14.7303 29.7866 14.7003 29.7383 14.6964 29.7321C14.6961 29.7316 14.6964 29.732 14.6964 29.7321C14.6188 29.6372 14.2489 29.1516 13.7793 28.5351C13.1443 27.7015 12.3262 26.6276 11.7993 25.9534C11.7066 25.8422 11.6382 25.6809 11.6631 25.4911C11.6876 25.3049 11.7917 25.1725 11.8805 25.0913C12.0486 24.9376 12.2962 24.8419 12.5689 24.7738C12.8418 24.7055 13.423 24.4472 13.9397 24.0133C14.4555 23.5802 14.8319 23.0373 14.8606 22.4147L14.8612 22.4017L14.8625 22.3888C14.9275 21.7277 14.7581 20.8712 14.4189 20.1139C14.072 19.3393 13.6061 18.7957 13.1779 18.6173C12.9368 18.5169 12.5667 18.4339 12.1111 18.3722C11.6637 18.3116 11.1663 18.2756 10.6887 18.2555Z" fill="black"/>
<path fill-rule="evenodd" clip-rule="evenodd" d="M24.1313 26.4682C24.1313 28.0541 22.8457 29.3397 21.2598 29.3397C19.6739 29.3397 18.3884 28.0541 18.3884 26.4682C18.3884 24.8824 19.6739 23.5968 21.2598 23.5968C22.8457 23.5968 24.1313 24.8824 24.1313 26.4682ZM23.1313 26.4682C23.1313 27.5018 22.2934 28.3397 21.2598 28.3397C20.2262 28.3397 19.3884 27.5018 19.3884 26.4682C19.3884 25.4347 20.2262 24.5968 21.2598 24.5968C22.2934 24.5968 23.1313 25.4347 23.1313 26.4682Z" fill="black"/>
<path fill-rule="evenodd" clip-rule="evenodd" d="M17.3215 35.639C17.4283 35.6639 17.5376 35.6767 17.6473 35.6771C17.9025 35.6773 18.1508 35.5936 18.3539 35.439C18.7711 35.1171 18.9444 34.5286 18.9615 34.0867V31.1991C20.3406 31.8657 22.3558 32.0448 24.4415 30.7343C26.3253 29.5686 26.6224 26.9039 26.5158 25.6582V25.6067C26.4015 24.9991 25.8853 22.982 23.992 21.9515C22.5805 21.1896 20.8091 21.1896 18.7139 21.9515C18.6272 21.7075 18.4642 21.4977 18.2492 21.3533C18.0342 21.209 17.7784 21.1375 17.5196 21.1496C16.4396 21.1839 16.1025 22.2125 16.1025 22.5782L16.0244 34.0467C15.9844 34.6733 16.3673 35.4181 17.3215 35.639ZM17.0263 34.1114L17.1025 22.6049C17.1106 22.4884 17.1599 22.3786 17.2416 22.2952C17.3233 22.2118 17.4319 22.1602 17.5482 22.1496C17.6853 22.1458 17.7387 22.163 17.8568 22.5039C17.9196 22.6944 18.0511 23.0753 18.4625 23.0753H18.5615L18.6511 23.0372C20.6529 22.2277 22.2777 22.1572 23.5101 22.8277C24.992 23.6334 25.4224 25.2486 25.5234 25.7648C25.5881 26.6201 25.4262 28.9496 23.9158 29.8848C21.1425 31.6257 19.0072 30.1019 18.773 29.9115L17.9672 29.2962V34.0581C17.9692 34.2733 17.8927 34.4818 17.752 34.6448C17.7368 34.6638 17.6853 34.6962 17.5463 34.6638C17.0114 34.5402 17.0248 34.1541 17.0262 34.1142L17.0263 34.1114Z" fill="black"/>
<path fill-rule="evenodd" clip-rule="evenodd" d="M32.2322 12.0661C31.97 11.6474 31.5604 11.356 31.079 11.2453L28.5433 10.6627L29.7141 10.3349C30.6842 10.0635 31.2686 9.02737 30.9967 8.05549C30.7251 7.08542 29.6892 6.50112 28.7171 6.77292L23.2581 8.30081C23.116 8.04221 22.9139 7.82088 22.6704 7.6562C23.7783 5.5944 25.3745 2.09558 25.3745 0.590343C25.3745 0.223234 25.0275 -0.0608286 24.6674 0.0117495C22.5009 0.449405 20.481 0.651358 18.4947 0.629718C16.4529 0.607296 13.9119 0.353702 12.3154 0.0130776C11.8218 -0.0922349 11.4257 0.460109 11.686 0.894015C12.0751 1.54245 12.3134 2.22808 12.4444 2.91909C10.4406 2.9805 8.36255 2.73769 6.78974 1.9512C6.36607 1.73933 5.86599 2.11003 5.94349 2.5762C6.43818 5.54393 7.43615 7.28393 8.43669 8.59854H8.41451C7.39474 8.59854 6.56506 9.42823 6.56506 10.448C6.56506 11.3859 7.26701 12.1624 8.17295 12.2812C7.51256 13.3873 6.56943 14.4367 5.57849 15.538C3.47126 17.8798 1.0827 20.5343 0.279125 24.8201C-0.105406 26.8708 -0.0925931 28.7896 0.317328 30.5234C0.699984 32.142 1.42881 33.607 2.48342 34.8778C3.88334 36.5647 5.8067 37.8735 8.19998 38.7682C10.3558 39.5741 12.8248 40 15.3401 40C17.8554 40 20.3245 39.5741 22.4803 38.7682C24.8736 37.8735 26.7969 36.5646 28.1968 34.8778C29.2514 33.607 29.9803 32.142 30.3629 30.5234C30.7728 28.7896 30.7857 26.8707 30.4011 24.8201C29.5975 20.5343 27.2091 17.8799 25.1018 15.5381C24.3864 14.743 23.7058 13.9849 23.1352 13.2156L30.2507 14.8504C31.0046 15.0236 31.8078 14.6938 32.2243 14.0424C32.6053 13.446 32.6076 12.6652 32.2322 12.0661ZM18.4817 1.81011C20.2991 1.82995 22.1385 1.67105 24.0814 1.3248C23.7251 2.78128 22.5811 5.37175 21.4961 7.3451C20.7441 7.40174 20.1164 7.90971 19.8838 8.59846H18.245C18.208 8.5187 18.167 8.43128 18.1213 8.33417C17.6145 7.25676 16.56 5.01524 16.56 3.1087C16.56 2.74214 16.2139 2.45792 15.854 2.52995C15.1672 2.66737 14.4115 2.77854 13.6251 2.84823C13.5427 2.35573 13.4148 1.86245 13.2289 1.3773C14.8148 1.62276 16.8125 1.79175 18.4817 1.81011ZM22.3051 9.18862V11.7071C22.3051 12.0759 22.005 12.376 21.6361 12.376C21.2672 12.376 20.9672 12.076 20.9672 11.7071V9.18862C20.9672 8.81971 21.2672 8.51963 21.6361 8.51963C22.005 8.51963 22.3051 8.81979 22.3051 9.18862ZM7.31943 3.44581C8.79505 3.94948 10.6103 4.17284 12.5707 4.10393L13.7405 4.03003C14.2923 3.9794 14.8522 3.90651 15.4161 3.81112C15.6002 5.63721 16.4344 7.51362 16.9413 8.59846H9.9431C9.9299 8.57776 9.91568 8.55745 9.89966 8.53807C8.9124 7.35034 7.9106 5.97651 7.31943 3.44581ZM24.2243 16.3275C26.2278 18.5539 28.4983 21.0774 29.241 25.0374C29.9243 28.6821 29.2674 31.7391 27.2884 34.1236C24.8482 37.0638 20.3816 38.8193 15.3402 38.8193C10.2988 38.8193 5.83209 37.0639 3.39193 34.1237C1.41295 31.7392 0.756078 28.6822 1.43936 25.0375C2.18194 21.0774 4.45264 18.5538 6.45607 16.3275C7.65396 14.9962 8.78568 13.737 9.51099 12.2974H10.9526C11.2786 12.2974 11.5428 12.0331 11.5428 11.7071C11.5428 11.3811 11.2786 11.1169 10.9526 11.1169H8.41443C8.04552 11.1169 7.74545 10.8168 7.74545 10.4479C7.74545 10.079 8.04552 9.77893 8.41443 9.77893H19.7866V11.1168H13.766C13.4399 11.1168 13.1758 11.3811 13.1758 11.7071C13.1758 12.033 13.44 12.2973 13.766 12.2973H19.8837C20.1307 13.0284 20.8226 13.5565 21.6361 13.5565C21.73 13.5565 21.8222 13.5493 21.9125 13.5358C22.5713 14.4887 23.3743 15.383 24.2243 16.3275ZM23.4857 9.46299L29.0353 7.90979C29.3867 7.81128 29.7617 8.02299 29.8598 8.3737C29.9581 8.72518 29.7468 9.10002 29.3959 9.19815L26.2243 10.0858C26.1985 10.0931 26.1738 10.1024 26.1498 10.1128L23.4857 9.50073V9.46299ZM31.3168 13.1975C31.2342 13.5571 30.8751 13.7824 30.515 13.6997L23.4486 12.0761C23.4728 11.9568 23.4856 11.8334 23.4856 11.707V10.7118L30.8146 12.3957C31.1698 12.4774 31.3985 12.842 31.3168 13.1975Z" fill="black"/>
</svg>
