<svg width="1024" height="1024" viewBox="0 0 1024 1024" fill="none" xmlns="http://www.w3.org/2000/svg">
<circle cx="511" cy="512" r="485" stroke="#AD0D0F" stroke-width="20"/>
<g clip-path="url(#clip0)">
<path d="M796.263 317.029L796.943 317.271C802.826 319.681 806.697 325.409 806.697 331.794C806.697 338.404 802.547 344.311 796.311 346.56C796.308 346.561 796.305 346.562 796.301 346.563L746.312 364.409L741.726 366.047L743.951 370.378C745.756 373.891 746.711 377.777 746.739 381.725V411.665C746.739 420.33 739.702 427.366 731.006 427.366H711.006C702.31 427.366 695.273 420.33 695.273 411.665V388.704V382.665L689.581 384.682L659.581 395.315L656.739 396.322V399.336V461.582C656.739 468.44 650.763 474.776 638.034 480.281C625.695 485.617 608.831 489.332 591.153 491.882C555.885 496.968 518.634 497.249 511.006 497.249C503.379 497.249 466.127 496.968 430.859 491.882C413.181 489.332 396.317 485.617 383.979 480.281C371.25 474.776 365.273 468.44 365.273 461.582V399.336V396.328L362.439 395.317L225.751 346.563C225.748 346.562 225.745 346.561 225.743 346.56C219.506 344.312 215.355 338.405 215.355 331.794C215.355 325.182 219.507 319.274 225.746 317.027C225.747 317.026 225.749 317.025 225.751 317.025L505.554 217.201C505.556 217.2 505.558 217.2 505.56 217.199C509.058 215.968 512.873 215.968 516.372 217.199C516.374 217.199 516.376 217.2 516.378 217.201L796.263 317.029ZM639.241 443.503L645.273 446.245V439.619V352.644V351.176L644.37 350.019C643.073 348.358 641.058 346.974 638.888 345.793C636.62 344.56 633.768 343.331 630.406 342.127C623.673 339.717 614.589 337.301 603.375 335.149C580.929 330.84 549.656 327.532 511.006 327.532C472.356 327.532 441.083 330.84 418.637 335.149C407.423 337.301 398.339 339.717 391.606 342.127C388.244 343.331 385.392 344.56 383.124 345.793C380.955 346.974 378.939 348.358 377.643 350.019L376.739 351.176V352.644V439.619V446.245L382.771 443.503C401.09 435.178 430.022 430.72 456.298 428.392C482.404 426.079 505.242 425.915 511.006 425.915C516.77 425.915 539.608 426.079 565.715 428.392C591.99 430.72 620.923 435.178 639.241 443.503ZM379.003 458.401L375.444 461.582L379.003 464.763C381.884 467.339 387.165 469.778 393.943 472.028C400.915 474.343 410.052 476.639 421.166 478.675C443.405 482.748 473.783 485.815 511.006 485.815C548.229 485.815 578.607 482.748 600.846 478.675C611.96 476.639 621.098 474.343 628.069 472.028C634.847 469.778 640.128 467.339 643.009 464.763L646.569 461.582L643.009 458.401C640.128 455.825 634.846 453.386 628.066 451.136C621.093 448.822 611.954 446.525 600.838 444.489C578.597 440.416 548.219 437.349 511.006 437.349C473.793 437.349 443.415 440.416 421.174 444.489C410.059 446.525 400.919 448.822 393.946 451.136C387.167 453.386 381.885 455.825 379.003 458.401ZM697.127 369.812L698.509 369.32L699.296 368.082C702.382 363.231 707.006 359.549 712.433 357.624L715.273 356.616V353.602V303.266V300.259L712.44 299.248L512.58 227.947L511.147 227.436L509.714 227.946L229.574 327.78L218.297 331.799L229.574 335.818L359.574 382.151L365.273 384.182V378.131V351.766C365.273 344.907 371.25 338.572 383.979 333.067C396.317 327.731 413.181 324.016 430.859 321.466C466.127 316.38 503.379 316.099 511.006 316.099C518.634 316.099 555.885 316.38 591.153 321.466C608.831 324.016 625.695 327.731 638.034 333.067C650.763 338.572 656.739 344.907 656.739 351.766V378.141V384.189L662.437 382.161L697.127 369.812ZM731.006 415.932H735.273V411.665V381.715C735.273 373.839 728.879 367.465 721.006 367.465C713.134 367.465 706.739 373.839 706.739 381.715V411.665V415.932H711.006H731.006ZM726.739 353.203V359.255L732.44 357.222L792.44 335.817L803.707 331.798L792.439 327.78L732.439 306.386L726.739 304.353V310.405V353.203Z" fill="#AD0D0F" stroke="#AD0D0F" stroke-width="8.53333"/>
<path d="M779.864 525.86L779.921 525.852L779.978 525.841C780.311 525.78 780.649 525.75 780.987 525.751L781 521.484V525.751C781.894 525.751 783.738 525.986 786.095 527.738C788.501 529.526 791.632 533.04 794.734 539.932C800.984 553.815 806.733 580.54 806.733 631.301C806.733 682.062 800.984 708.787 794.734 722.671C791.632 729.562 788.501 733.076 786.095 734.864C783.738 736.617 781.894 736.851 781 736.851H780.968L780.937 736.852C780.608 736.857 780.28 736.832 779.955 736.778L779.943 736.776L779.93 736.774C718.277 726.977 656.081 720.959 593.691 718.754L587.037 718.519L589.603 724.663L608.733 770.462C608.735 770.467 608.737 770.471 608.739 770.476C611.151 776.37 609.741 783.138 605.167 787.583C600.589 792.033 593.759 793.262 587.911 790.684L587.89 790.675L587.87 790.666L580.34 787.442L576.444 785.773L574.749 789.658L571.409 797.315L571.406 797.323L571.403 797.33C568.931 803.056 563.271 806.76 557.017 806.735L557.009 806.735H557H556.722C550.332 806.66 544.625 802.735 542.276 796.81L542.261 796.772L542.246 796.735L524.936 755.384L520.999 745.98L517.064 755.384L499.694 796.895L499.684 796.92L499.674 796.945C497.305 802.812 491.625 806.679 485.282 806.735H485.05H485.042L485.034 806.735C478.735 806.759 473.042 803.007 470.588 797.224L470.58 797.206L470.572 797.187L467.262 789.59L465.57 785.708L461.675 787.37L454.025 790.634L454.014 790.639L454.003 790.644C448.18 793.169 441.408 791.933 436.857 787.52C432.313 783.115 430.881 776.414 433.22 770.545L452.727 723.834L455.263 717.762L448.685 717.924C379.491 719.633 310.486 725.913 242.124 736.724L242.077 736.731L242.03 736.74C241.676 736.804 241.317 736.841 240.957 736.851C240.047 736.843 238.225 736.589 235.905 734.864C233.499 733.076 230.368 729.562 227.266 722.671C221.016 708.787 215.267 682.062 215.267 631.301C215.267 580.54 221.016 553.815 227.266 539.932C230.368 533.04 233.499 529.526 235.905 527.738C238.245 525.998 240.08 525.755 240.981 525.751C241.347 525.756 241.712 525.789 242.074 525.85L242.105 525.856L242.136 525.86C331.079 539.665 420.99 546.306 511 545.718C601.01 546.306 690.921 539.665 779.864 525.86ZM548.413 611.68L554.756 614.625L554.473 607.638C553.822 591.532 551.354 575.551 547.117 559.997L543 561.118L542.927 556.852C532.484 557.032 521.899 557.151 511 557.151C498.295 557.151 485.901 557.025 473.819 556.773L468.333 556.658L469.574 562.004C473.567 579.198 475.832 596.748 476.335 614.391L476.563 622.392L483.078 617.743C502.171 604.117 527.132 601.801 548.413 611.68ZM575.267 671.24V671.234C575.267 641.303 550.964 617.051 521 617.051C491.036 617.051 466.733 641.303 466.733 671.234C466.733 701.166 491.036 725.418 521 725.418V721.151L521.005 725.418C550.951 725.382 575.231 701.153 575.267 671.24ZM245.111 545.302L241 530.488L236.889 545.302C229.123 573.282 225.698 602.285 226.731 631.301C225.698 660.317 229.123 689.32 236.889 717.3L241 732.115L245.111 717.3C252.877 689.32 256.302 660.317 255.269 631.301C256.302 602.285 252.877 573.282 245.111 545.302ZM257.167 716.463L256.933 717.14V717.857V717.877V722.773L261.784 722.103C326.633 713.143 391.937 707.85 457.384 706.249L460.156 706.181L461.22 703.621L461.66 702.563L462.39 700.807L461.572 699.089C452.199 679.423 453.334 656.374 464.593 637.719L465.156 636.786L465.203 635.698C465.267 634.221 465.267 632.768 465.267 631.353C465.855 607.119 463.063 582.922 456.97 559.457L456.164 556.353L452.957 556.264C388.988 554.502 325.164 549.239 261.773 540.499L254.886 539.549L257.157 546.12C262.413 561.324 266.733 587.277 266.733 631.301C266.733 675.325 262.413 701.278 257.167 716.463ZM481.158 792.737L485.145 801.898L489.005 792.683L510.535 741.289L512.529 736.53L507.48 735.465C494.887 732.81 483.354 726.518 474.314 717.373L469.812 712.818L467.343 718.728L443.893 774.854L439.771 784.719L449.553 780.402L466.339 772.994C466.345 772.991 466.351 772.988 466.358 772.986C469.258 771.756 472.605 773.092 473.859 775.968L481.158 792.737ZM575.661 772.994L575.664 772.995L592.464 780.173L602.138 784.306L598.076 774.602L574.676 718.695L572.205 712.793L567.706 717.342C558.657 726.493 547.114 732.788 534.51 735.445L529.463 736.509L531.454 741.267L552.894 792.512L556.706 801.623L560.727 792.602L568.127 776L568.134 775.984L568.141 775.968C569.398 773.086 572.756 771.75 575.661 772.994ZM581.057 704.312L582.11 706.858L584.862 706.946C649.661 709.039 714.274 715.024 778.352 724.869L779 720.652L782.685 722.802C784.113 720.355 785.553 716.513 786.922 711.601C788.313 706.607 789.701 700.247 790.934 692.596C793.4 677.291 795.267 656.691 795.267 631.301C795.267 605.913 793.413 585.311 790.953 570.003C789.723 562.351 788.337 555.988 786.942 550.991C785.571 546.078 784.123 542.227 782.675 539.773L781.209 537.286L778.355 537.723C707.242 548.595 635.499 554.856 563.575 556.463L558.331 556.581L559.513 561.691C564.109 581.553 566.467 601.867 566.543 622.252L566.55 624.003L567.784 625.245C587.18 644.752 592.239 674.304 580.437 699.133L579.623 700.844L580.347 702.595L581.057 704.312Z" fill="#AD0D0F" stroke="#AD0D0F" stroke-width="8.53333"/>
</g>
<defs>
<clipPath id="clip0">
<rect width="600" height="599" fill="white" transform="translate(211 212)"/>
</clipPath>
</defs>
</svg>
