<svg width="1024" height="1024" viewBox="0 0 1024 1024" fill="none" xmlns="http://www.w3.org/2000/svg">
<circle cx="511" cy="512" r="485" stroke="#AD0D0F" stroke-width="20"/>
<mask id="path-2-inside-1" fill="white">
<path d="M304.75 408.875H379.75V502.625H342.25C337.075 502.625 332.875 506.825 332.875 512V662C332.875 667.175 337.075 671.375 342.25 671.375H361V783.875C361 789.05 365.2 793.25 370.375 793.25H651.625C656.8 793.25 661 789.05 661 783.875V671.375H679.75C684.925 671.375 689.125 667.175 689.125 662V512C689.125 506.825 684.925 502.625 679.75 502.625H664.319L674.95 468.087L691 489.5C693.091 492.284 696.56 493.672 700 493.128C703.441 492.566 706.291 490.147 707.397 486.837L726.147 430.587C727.122 427.662 726.597 424.456 724.75 421.991L696.625 384.491C694.516 381.669 691.028 380.272 687.513 380.881C684.044 381.491 681.203 383.994 680.163 387.359L651.625 480.125L623.088 387.369C622.057 383.994 619.207 381.5 615.738 380.891C612.213 380.3 608.735 381.678 606.625 384.5L578.5 422C576.653 424.466 576.138 427.672 577.103 430.597L595.853 486.847C596.96 490.156 599.8 492.575 603.25 493.138C606.728 493.691 610.16 492.303 612.25 489.509L628.31 468.097L638.932 502.625H557.875V408.875C557.875 372.688 528.438 343.25 492.25 343.25H491.219C503.407 331.325 511 314.731 511 296.375C511 260.188 481.563 230.75 445.375 230.75C409.188 230.75 379.75 260.188 379.75 296.375C379.75 314.731 387.344 331.325 399.532 343.25H327.382L273.878 289.747C270.213 286.081 264.288 286.081 260.622 289.747L232.497 317.872C229 321.359 228.822 326.956 232.075 330.678L297.7 405.678C299.482 407.703 302.041 408.875 304.75 408.875V408.875ZM692.669 410.478L706.797 429.322L695.257 463.934L681.757 445.934L692.669 410.478ZM607.985 463.934L596.444 429.322L610.572 410.478L621.485 445.934L607.985 463.934ZM642.25 774.5H379.75V671.375H436V746.375C436 749.525 437.585 752.469 440.219 754.203C442.844 755.937 446.172 756.237 449.069 754.991L511 728.45L572.932 754.991C574.113 755.497 575.369 755.75 576.625 755.75C578.435 755.75 580.235 755.225 581.782 754.203C584.416 752.469 586 749.525 586 746.375V671.375H642.25V774.5ZM454.75 671.375H567.25V732.153L514.694 709.634C512.332 708.622 509.669 708.622 507.307 709.634L454.75 732.153V671.375ZM670.375 652.625H651.625H370.375H351.625V521.375H670.375V652.625ZM398.5 296.375C398.5 270.528 419.528 249.5 445.375 249.5C471.222 249.5 492.25 270.528 492.25 296.375C492.25 322.222 471.222 343.25 445.375 343.25C419.528 343.25 398.5 322.222 398.5 296.375ZM267.25 309.631L316.872 359.253C318.625 361.016 321.016 362 323.5 362H492.25C518.097 362 539.125 383.028 539.125 408.875V502.625H511V399.5H492.25V502.625H436V429.838L453.766 394.316L436.994 385.925L418.244 423.425C417.588 424.728 417.25 426.172 417.25 427.625V502.625H398.5V399.5C398.5 394.325 394.3 390.125 389.125 390.125H309.007L251.96 324.922L267.25 309.631Z"/>
</mask>
<path d="M304.75 408.875H379.75V502.625H342.25C337.075 502.625 332.875 506.825 332.875 512V662C332.875 667.175 337.075 671.375 342.25 671.375H361V783.875C361 789.05 365.2 793.25 370.375 793.25H651.625C656.8 793.25 661 789.05 661 783.875V671.375H679.75C684.925 671.375 689.125 667.175 689.125 662V512C689.125 506.825 684.925 502.625 679.75 502.625H664.319L674.95 468.087L691 489.5C693.091 492.284 696.56 493.672 700 493.128C703.441 492.566 706.291 490.147 707.397 486.837L726.147 430.587C727.122 427.662 726.597 424.456 724.75 421.991L696.625 384.491C694.516 381.669 691.028 380.272 687.513 380.881C684.044 381.491 681.203 383.994 680.163 387.359L651.625 480.125L623.088 387.369C622.057 383.994 619.207 381.5 615.738 380.891C612.213 380.3 608.735 381.678 606.625 384.5L578.5 422C576.653 424.466 576.138 427.672 577.103 430.597L595.853 486.847C596.96 490.156 599.8 492.575 603.25 493.138C606.728 493.691 610.16 492.303 612.25 489.509L628.31 468.097L638.932 502.625H557.875V408.875C557.875 372.688 528.438 343.25 492.25 343.25H491.219C503.407 331.325 511 314.731 511 296.375C511 260.188 481.563 230.75 445.375 230.75C409.188 230.75 379.75 260.188 379.75 296.375C379.75 314.731 387.344 331.325 399.532 343.25H327.382L273.878 289.747C270.213 286.081 264.288 286.081 260.622 289.747L232.497 317.872C229 321.359 228.822 326.956 232.075 330.678L297.7 405.678C299.482 407.703 302.041 408.875 304.75 408.875V408.875ZM692.669 410.478L706.797 429.322L695.257 463.934L681.757 445.934L692.669 410.478ZM607.985 463.934L596.444 429.322L610.572 410.478L621.485 445.934L607.985 463.934ZM642.25 774.5H379.75V671.375H436V746.375C436 749.525 437.585 752.469 440.219 754.203C442.844 755.937 446.172 756.237 449.069 754.991L511 728.45L572.932 754.991C574.113 755.497 575.369 755.75 576.625 755.75C578.435 755.75 580.235 755.225 581.782 754.203C584.416 752.469 586 749.525 586 746.375V671.375H642.25V774.5ZM454.75 671.375H567.25V732.153L514.694 709.634C512.332 708.622 509.669 708.622 507.307 709.634L454.75 732.153V671.375ZM670.375 652.625H651.625H370.375H351.625V521.375H670.375V652.625ZM398.5 296.375C398.5 270.528 419.528 249.5 445.375 249.5C471.222 249.5 492.25 270.528 492.25 296.375C492.25 322.222 471.222 343.25 445.375 343.25C419.528 343.25 398.5 322.222 398.5 296.375ZM267.25 309.631L316.872 359.253C318.625 361.016 321.016 362 323.5 362H492.25C518.097 362 539.125 383.028 539.125 408.875V502.625H511V399.5H492.25V502.625H436V429.838L453.766 394.316L436.994 385.925L418.244 423.425C417.588 424.728 417.25 426.172 417.25 427.625V502.625H398.5V399.5C398.5 394.325 394.3 390.125 389.125 390.125H309.007L251.96 324.922L267.25 309.631Z" fill="#AD0D0F" stroke="#AD0D0F" stroke-width="16" mask="url(#path-2-inside-1)"/>
<path d="M468.125 587C468.125 563.362 487.362 544.125 511 544.125C534.638 544.125 553.875 563.362 553.875 587C553.875 610.638 534.638 629.875 511 629.875C487.362 629.875 468.125 610.638 468.125 587ZM478.875 587C478.875 604.715 493.285 619.125 511 619.125C528.715 619.125 543.125 604.715 543.125 587C543.125 569.285 528.715 554.875 511 554.875C493.285 554.875 478.875 569.285 478.875 587Z" fill="#AD0D0F" stroke="#AD0D0F" stroke-width="8"/>
<path d="M588.828 314.072L590 312.901V311.244V258.875C590 245.578 600.827 234.75 614.125 234.75H764.124C777.422 234.75 788.249 245.578 788.249 258.875V333.875C788.249 347.172 777.422 358 764.124 358H557.875C555.707 358 553.741 356.688 552.907 354.683C552.075 352.674 552.536 350.364 554.075 348.825L588.828 314.072ZM577.677 340.422L570.849 347.25H580.506H764.124C771.499 347.25 777.499 341.25 777.499 333.875V258.875C777.499 251.5 771.499 245.5 764.124 245.5H614.125C606.75 245.5 600.75 251.5 600.75 258.875V315.125C600.75 316.555 600.182 317.922 599.182 318.917L599.174 318.925L577.677 340.422Z" fill="#AD0D0F" stroke="#AD0D0F" stroke-width="8"/>
<path d="M627.5 272.25H750.75V283H627.5V272.25Z" fill="#AD0D0F" stroke="#AD0D0F" stroke-width="8"/>
<path d="M627.5 309.75H750.75V320.5H627.5V309.75Z" fill="#AD0D0F" stroke="#AD0D0F" stroke-width="8"/>
</svg>
