<svg width="524" height="142" viewBox="0 0 524 142" fill="none" xmlns="http://www.w3.org/2000/svg">
<path d="M76.7695 46.932C76.7582 47.6007 76.6165 48.2297 76.3445 48.819C76.0838 49.4083 75.7325 49.924 75.2905 50.366C74.8485 50.808 74.3272 51.1537 73.7265 51.403C73.1372 51.6637 72.5138 51.794 71.8565 51.794H71.8395L71.8055 51.777C71.7715 51.777 71.7432 51.777 71.7205 51.777C71.6865 51.7883 71.6525 51.794 71.6185 51.794C71.3918 51.794 71.1992 51.7147 71.0405 51.556C70.8818 51.4087 70.8025 51.2217 70.8025 50.995C70.8025 50.757 70.8818 50.5587 71.0405 50.4C71.1992 50.2413 71.3918 50.162 71.6185 50.162H71.8565C72.3098 50.162 72.7348 50.0713 73.1315 49.89C73.5282 49.72 73.8738 49.482 74.1685 49.176C74.4745 48.8813 74.7125 48.5357 74.8825 48.139C75.0638 47.7423 75.1545 47.3173 75.1545 46.864V31.836C75.1545 31.598 75.2282 31.3997 75.3755 31.241C75.5342 31.071 75.7268 30.986 75.9535 30.986C76.1802 30.986 76.3728 31.071 76.5315 31.241C76.6902 31.3997 76.7695 31.598 76.7695 31.836V46.932ZM74.8995 27.331C74.8995 27.025 74.9958 26.77 75.1885 26.566C75.3925 26.362 75.6418 26.26 75.9365 26.26C76.2425 26.26 76.4975 26.362 76.7015 26.566C76.9055 26.77 77.0075 27.025 77.0075 27.331C77.0075 27.6143 76.9055 27.858 76.7015 28.062C76.4975 28.266 76.2425 28.368 75.9365 28.368C75.6418 28.368 75.3925 28.266 75.1885 28.062C74.9958 27.858 74.8995 27.6143 74.8995 27.331ZM82.6154 39.112C82.6154 37.99 82.825 36.936 83.2444 35.95C83.675 34.9527 84.2587 34.0913 84.9954 33.366C85.732 32.6293 86.5934 32.0513 87.5794 31.632C88.5654 31.2013 89.6137 30.986 90.7244 30.986C91.835 30.986 92.8777 31.1957 93.8524 31.615C94.8384 32.0343 95.694 32.6067 96.4194 33.332C97.156 34.0573 97.734 34.9073 98.1534 35.882C98.584 36.8567 98.805 37.905 98.8164 39.027V46.15C98.8164 46.388 98.737 46.592 98.5784 46.762C98.4197 46.9207 98.2214 47 97.9834 47C97.7567 47 97.5697 46.9207 97.4224 46.762C97.275 46.592 97.2014 46.388 97.2014 46.15L97.1844 43.855C96.8104 44.3537 96.3854 44.807 95.9094 45.215C95.4447 45.623 94.9347 45.9743 94.3794 46.269C93.8354 46.5637 93.2517 46.796 92.6284 46.966C92.0164 47.1247 91.3817 47.204 90.7244 47.204C89.6137 47.204 88.5654 46.9943 87.5794 46.575C86.5934 46.1443 85.732 45.5663 84.9954 44.841C84.2587 44.1043 83.675 43.243 83.2444 42.257C82.825 41.271 82.6154 40.2227 82.6154 39.112ZM84.2474 39.112C84.2474 39.996 84.4117 40.829 84.7404 41.611C85.0804 42.393 85.5394 43.0787 86.1174 43.668C86.7067 44.2573 87.3924 44.7277 88.1744 45.079C88.9677 45.419 89.8177 45.589 90.7244 45.589C91.6424 45.589 92.4924 45.419 93.2744 45.079C94.0677 44.7277 94.7534 44.2573 95.3314 43.668C95.9094 43.0787 96.3627 42.393 96.6914 41.611C97.0314 40.829 97.2014 39.996 97.2014 39.112C97.2014 38.2167 97.0314 37.3723 96.6914 36.579C96.3627 35.7857 95.9037 35.1 95.3144 34.522C94.7364 33.9327 94.0507 33.468 93.2574 33.128C92.4754 32.788 91.631 32.618 90.7244 32.618C89.8177 32.618 88.9677 32.788 88.1744 33.128C87.3924 33.468 86.7067 33.9327 86.1174 34.522C85.5394 35.1 85.0804 35.7857 84.7404 36.579C84.4117 37.3723 84.2474 38.2167 84.2474 39.112ZM120.843 26.039C120.843 25.8123 120.764 25.6253 120.605 25.478C120.447 25.3193 120.254 25.24 120.027 25.24C119.801 25.24 119.608 25.3193 119.449 25.478C119.302 25.6253 119.228 25.8123 119.228 26.039V34.216C118.48 33.2187 117.545 32.431 116.423 31.853C115.313 31.275 114.089 30.986 112.751 30.986C111.641 30.986 110.592 31.1957 109.606 31.615C108.62 32.0343 107.759 32.6123 107.022 33.349C106.286 34.0743 105.702 34.93 105.271 35.916C104.852 36.902 104.642 37.956 104.642 39.078C104.642 40.2 104.852 41.254 105.271 42.24C105.702 43.2147 106.286 44.0703 107.022 44.807C107.759 45.5437 108.62 46.1273 109.606 46.558C110.592 46.9773 111.641 47.187 112.751 47.187C114.089 47.187 115.313 46.898 116.423 46.32C117.545 45.7307 118.48 44.9373 119.228 43.94V46.201C119.228 46.4277 119.302 46.6203 119.449 46.779C119.608 46.9263 119.801 47 120.027 47C120.254 47 120.447 46.9263 120.605 46.779C120.764 46.6203 120.843 46.4277 120.843 46.201V26.039ZM106.274 39.078C106.274 38.1827 106.439 37.344 106.767 36.562C107.107 35.78 107.566 35.1 108.144 34.522C108.734 33.9327 109.419 33.4737 110.201 33.145C110.995 32.805 111.845 32.635 112.751 32.635C113.658 32.635 114.502 32.805 115.284 33.145C116.078 33.4737 116.763 33.9327 117.341 34.522C117.931 35.1 118.39 35.78 118.718 36.562C119.058 37.344 119.228 38.1827 119.228 39.078C119.228 39.962 119.058 40.8007 118.718 41.594C118.39 42.376 117.936 43.0617 117.358 43.651C116.78 44.229 116.095 44.6937 115.301 45.045C114.519 45.385 113.669 45.555 112.751 45.555C111.845 45.555 110.995 45.385 110.201 45.045C109.419 44.6937 108.734 44.229 108.144 43.651C107.566 43.0617 107.107 42.376 106.767 41.594C106.439 40.8007 106.274 39.962 106.274 39.078ZM127.433 27.331C127.433 27.6143 127.53 27.858 127.722 28.062C127.926 28.266 128.176 28.368 128.47 28.368C128.776 28.368 129.031 28.266 129.235 28.062C129.439 27.858 129.541 27.6143 129.541 27.331C129.541 27.025 129.439 26.77 129.235 26.566C129.031 26.362 128.776 26.26 128.47 26.26C128.176 26.26 127.926 26.362 127.722 26.566C127.53 26.77 127.433 27.025 127.433 27.331ZM129.286 31.802C129.286 31.5753 129.207 31.3827 129.048 31.224C128.901 31.0653 128.714 30.986 128.487 30.986C128.261 30.986 128.068 31.0653 127.909 31.224C127.751 31.3827 127.671 31.5753 127.671 31.802V46.167C127.671 46.3937 127.751 46.592 127.909 46.762C128.068 46.9207 128.261 47 128.487 47C128.714 47 128.901 46.9207 129.048 46.762C129.207 46.592 129.286 46.3937 129.286 46.167V31.802ZM137.734 26.039C137.734 25.8123 137.655 25.6253 137.496 25.478C137.337 25.3193 137.145 25.24 136.918 25.24C136.691 25.24 136.499 25.3193 136.34 25.478C136.181 25.6253 136.102 25.8123 136.102 26.039V46.201C136.102 46.4277 136.181 46.6203 136.34 46.779C136.499 46.9263 136.691 47 136.918 47C137.145 47 137.337 46.9263 137.496 46.779C137.655 46.6203 137.734 46.4277 137.734 46.201V26.039ZM143.563 39.112C143.563 37.99 143.773 36.936 144.192 35.95C144.623 34.9527 145.206 34.0913 145.943 33.366C146.68 32.6293 147.541 32.0513 148.527 31.632C149.513 31.2013 150.561 30.986 151.672 30.986C152.783 30.986 153.825 31.1957 154.8 31.615C155.786 32.0343 156.642 32.6067 157.367 33.332C158.104 34.0573 158.682 34.9073 159.101 35.882C159.532 36.8567 159.753 37.905 159.764 39.027V46.15C159.764 46.388 159.685 46.592 159.526 46.762C159.367 46.9207 159.169 47 158.931 47C158.704 47 158.517 46.9207 158.37 46.762C158.223 46.592 158.149 46.388 158.149 46.15L158.132 43.855C157.758 44.3537 157.333 44.807 156.857 45.215C156.392 45.623 155.882 45.9743 155.327 46.269C154.783 46.5637 154.199 46.796 153.576 46.966C152.964 47.1247 152.329 47.204 151.672 47.204C150.561 47.204 149.513 46.9943 148.527 46.575C147.541 46.1443 146.68 45.5663 145.943 44.841C145.206 44.1043 144.623 43.243 144.192 42.257C143.773 41.271 143.563 40.2227 143.563 39.112ZM145.195 39.112C145.195 39.996 145.359 40.829 145.688 41.611C146.028 42.393 146.487 43.0787 147.065 43.668C147.654 44.2573 148.34 44.7277 149.122 45.079C149.915 45.419 150.765 45.589 151.672 45.589C152.59 45.589 153.44 45.419 154.222 45.079C155.015 44.7277 155.701 44.2573 156.279 43.668C156.857 43.0787 157.31 42.393 157.639 41.611C157.979 40.829 158.149 39.996 158.149 39.112C158.149 38.2167 157.979 37.3723 157.639 36.579C157.31 35.7857 156.851 35.1 156.262 34.522C155.684 33.9327 154.998 33.468 154.205 33.128C153.423 32.788 152.579 32.618 151.672 32.618C150.765 32.618 149.915 32.788 149.122 33.128C148.34 33.468 147.654 33.9327 147.065 34.522C146.487 35.1 146.028 35.7857 145.688 36.579C145.359 37.3723 145.195 38.2167 145.195 39.112ZM180.244 46.201C180.244 46.4277 180.165 46.6203 180.006 46.779C179.859 46.9377 179.66 47.017 179.411 47.017C179.184 47.017 178.997 46.9377 178.85 46.779C178.703 46.6203 178.629 46.4277 178.629 46.201V38.738C178.618 36.732 178.181 35.2133 177.32 34.182C176.459 33.1393 175.263 32.618 173.733 32.618C172.962 32.618 172.237 32.7767 171.557 33.094C170.888 33.4113 170.305 33.8477 169.806 34.403C169.307 34.947 168.911 35.593 168.616 36.341C168.321 37.0777 168.174 37.8767 168.174 38.738V46.167C168.174 46.3937 168.095 46.592 167.936 46.762C167.789 46.9207 167.602 47 167.375 47C167.148 47 166.956 46.9207 166.797 46.762C166.638 46.592 166.559 46.3937 166.559 46.167V26.073C166.559 25.8463 166.638 25.6537 166.797 25.495C166.956 25.325 167.148 25.24 167.375 25.24C167.602 25.24 167.789 25.325 167.936 25.495C168.095 25.6537 168.174 25.8463 168.174 26.073V34.403C168.503 33.893 168.877 33.434 169.296 33.026C169.715 32.6067 170.169 32.2497 170.656 31.955C171.155 31.649 171.676 31.4167 172.22 31.258C172.764 31.088 173.325 31.003 173.903 31.003C174.866 31.003 175.733 31.1787 176.504 31.53C177.286 31.8813 177.949 32.3913 178.493 33.06C179.048 33.7173 179.473 34.5277 179.768 35.491C180.074 36.443 180.233 37.5197 180.244 38.721V46.201ZM199.628 46.201C199.628 46.4277 199.548 46.6203 199.39 46.779C199.242 46.9263 199.055 47 198.829 47C198.602 47 198.409 46.9263 198.251 46.779C198.092 46.6203 198.013 46.4277 198.013 46.201V39.333V39.078V38.823V26.039C198.013 25.8123 198.092 25.6253 198.251 25.478C198.409 25.3193 198.602 25.24 198.829 25.24C199.055 25.24 199.242 25.3193 199.39 25.478C199.548 25.6253 199.628 25.8123 199.628 26.039V34.216C199.854 33.91 200.109 33.621 200.393 33.349C201.129 32.6123 201.991 32.0343 202.977 31.615C203.963 31.1957 205.011 30.986 206.122 30.986C207.244 30.986 208.298 31.1957 209.284 31.615C210.27 32.0343 211.125 32.6123 211.851 33.349C212.587 34.0743 213.165 34.93 213.585 35.916C214.004 36.902 214.214 37.956 214.214 39.078C214.214 40.2 214.004 41.254 213.585 42.24C213.165 43.2147 212.587 44.0703 211.851 44.807C211.125 45.5437 210.27 46.1273 209.284 46.558C208.298 46.9773 207.244 47.187 206.122 47.187C205.011 47.187 203.963 46.9773 202.977 46.558C201.991 46.1273 201.129 45.5437 200.393 44.807C200.109 44.535 199.854 44.246 199.628 43.94V46.201ZM199.645 39.078C199.645 39.962 199.809 40.8007 200.138 41.594C200.478 42.376 200.937 43.0617 201.515 43.651C202.104 44.229 202.79 44.6937 203.572 45.045C204.365 45.385 205.215 45.555 206.122 45.555C207.04 45.555 207.89 45.385 208.672 45.045C209.465 44.6937 210.151 44.229 210.729 43.651C211.318 43.0617 211.777 42.376 212.106 41.594C212.446 40.8007 212.616 39.962 212.616 39.078C212.616 38.1827 212.446 37.344 212.106 36.562C211.777 35.7687 211.318 35.083 210.729 34.505C210.151 33.9157 209.465 33.4567 208.672 33.128C207.89 32.788 207.04 32.618 206.122 32.618C205.215 32.618 204.371 32.788 203.589 33.128C202.807 33.4567 202.121 33.9157 201.532 34.505C200.942 35.083 200.478 35.7687 200.138 36.562C199.809 37.344 199.645 38.1827 199.645 39.078ZM219.087 39.112C219.087 37.99 219.297 36.936 219.716 35.95C220.147 34.9527 220.73 34.0913 221.467 33.366C222.204 32.6293 223.065 32.0513 224.051 31.632C225.037 31.2013 226.085 30.986 227.196 30.986C228.307 30.986 229.349 31.1957 230.324 31.615C231.31 32.0343 232.166 32.6067 232.891 33.332C233.628 34.0573 234.206 34.9073 234.625 35.882C235.056 36.8567 235.277 37.905 235.288 39.027V46.15C235.288 46.388 235.209 46.592 235.05 46.762C234.891 46.9207 234.693 47 234.455 47C234.228 47 234.041 46.9207 233.894 46.762C233.747 46.592 233.673 46.388 233.673 46.15L233.656 43.855C233.282 44.3537 232.857 44.807 232.381 45.215C231.916 45.623 231.406 45.9743 230.851 46.269C230.307 46.5637 229.723 46.796 229.1 46.966C228.488 47.1247 227.853 47.204 227.196 47.204C226.085 47.204 225.037 46.9943 224.051 46.575C223.065 46.1443 222.204 45.5663 221.467 44.841C220.73 44.1043 220.147 43.243 219.716 42.257C219.297 41.271 219.087 40.2227 219.087 39.112ZM220.719 39.112C220.719 39.996 220.883 40.829 221.212 41.611C221.552 42.393 222.011 43.0787 222.589 43.668C223.178 44.2573 223.864 44.7277 224.646 45.079C225.439 45.419 226.289 45.589 227.196 45.589C228.114 45.589 228.964 45.419 229.746 45.079C230.539 44.7277 231.225 44.2573 231.803 43.668C232.381 43.0787 232.834 42.393 233.163 41.611C233.503 40.829 233.673 39.996 233.673 39.112C233.673 38.2167 233.503 37.3723 233.163 36.579C232.834 35.7857 232.375 35.1 231.786 34.522C231.208 33.9327 230.522 33.468 229.729 33.128C228.947 32.788 228.103 32.618 227.196 32.618C226.289 32.618 225.439 32.788 224.646 33.128C223.864 33.468 223.178 33.9327 222.589 34.522C222.011 35.1 221.552 35.7857 221.212 36.579C220.883 37.3723 220.719 38.2167 220.719 39.112ZM257.315 45.028C257.315 46.2633 257.105 47.391 256.686 48.411C256.266 49.431 255.694 50.3037 254.969 51.029C254.255 51.7543 253.41 52.3153 252.436 52.712C251.461 53.12 250.418 53.324 249.308 53.324C248.276 53.324 247.279 53.137 246.316 52.763C245.364 52.389 244.553 51.862 243.885 51.182C243.692 50.9893 243.59 50.774 243.579 50.536C243.579 50.298 243.675 50.0997 243.868 49.941C243.992 49.8277 244.111 49.7597 244.225 49.737C244.338 49.7143 244.446 49.7143 244.548 49.737C244.661 49.7597 244.763 49.7993 244.854 49.856C244.944 49.924 245.035 49.992 245.126 50.06C245.726 50.604 246.389 51.012 247.115 51.284C247.851 51.556 248.628 51.6863 249.444 51.675C250.316 51.675 251.132 51.5107 251.892 51.182C252.651 50.8533 253.308 50.3943 253.864 49.805C254.43 49.227 254.872 48.53 255.19 47.714C255.518 46.9093 255.683 46.014 255.683 45.028V43.991C254.935 44.977 254 45.759 252.878 46.337C251.767 46.915 250.549 47.204 249.223 47.204C248.112 47.204 247.064 46.9943 246.078 46.575C245.092 46.1443 244.23 45.5663 243.494 44.841C242.757 44.1043 242.173 43.243 241.743 42.257C241.323 41.271 241.114 40.2227 241.114 39.112C241.114 37.99 241.323 36.936 241.743 35.95C242.173 34.9527 242.757 34.0913 243.494 33.366C244.23 32.6293 245.092 32.0513 246.078 31.632C247.064 31.2013 248.112 30.986 249.223 30.986C249.88 30.986 250.515 31.0653 251.127 31.224C251.75 31.3713 252.334 31.5867 252.878 31.87C253.433 32.1533 253.943 32.4933 254.408 32.89C254.884 33.2867 255.309 33.7287 255.683 34.216V31.785C255.683 31.5583 255.762 31.3713 255.921 31.224C256.079 31.0653 256.272 30.986 256.499 30.986C256.725 30.986 256.918 31.0653 257.077 31.224C257.235 31.3713 257.315 31.5583 257.315 31.785V45.028ZM242.746 39.112C242.746 39.996 242.91 40.829 243.239 41.611C243.579 42.393 244.038 43.0787 244.616 43.668C245.205 44.2573 245.891 44.7277 246.673 45.079C247.466 45.419 248.316 45.589 249.223 45.589C250.084 45.589 250.894 45.436 251.654 45.13C252.413 44.8127 253.076 44.3877 253.643 43.855C254.221 43.311 254.685 42.6763 255.037 41.951C255.399 41.2257 255.615 40.455 255.683 39.639V38.585C255.615 37.7463 255.399 36.9643 255.037 36.239C254.685 35.5137 254.221 34.8847 253.643 34.352C253.065 33.808 252.396 33.383 251.637 33.077C250.889 32.771 250.084 32.618 249.223 32.618C248.316 32.618 247.466 32.788 246.673 33.128C245.891 33.468 245.205 33.9327 244.616 34.522C244.038 35.1 243.579 35.7857 243.239 36.579C242.91 37.3723 242.746 38.2167 242.746 39.112ZM263.905 27.331C263.905 27.6143 264.001 27.858 264.194 28.062C264.398 28.266 264.647 28.368 264.942 28.368C265.248 28.368 265.503 28.266 265.707 28.062C265.911 27.858 266.013 27.6143 266.013 27.331C266.013 27.025 265.911 26.77 265.707 26.566C265.503 26.362 265.248 26.26 264.942 26.26C264.647 26.26 264.398 26.362 264.194 26.566C264.001 26.77 263.905 27.025 263.905 27.331ZM265.758 31.802C265.758 31.5753 265.679 31.3827 265.52 31.224C265.373 31.0653 265.186 30.986 264.959 30.986C264.732 30.986 264.54 31.0653 264.381 31.224C264.222 31.3827 264.143 31.5753 264.143 31.802V46.167C264.143 46.3937 264.222 46.592 264.381 46.762C264.54 46.9207 264.732 47 264.959 47C265.186 47 265.373 46.9207 265.52 46.762C265.679 46.592 265.758 46.3937 265.758 46.167V31.802ZM271.588 39.112C271.588 37.99 271.797 36.936 272.217 35.95C272.647 34.9527 273.231 34.0913 273.968 33.366C274.704 32.6293 275.566 32.0513 276.552 31.632C277.538 31.2013 278.586 30.986 279.697 30.986C280.807 30.986 281.85 31.1957 282.825 31.615C283.811 32.0343 284.666 32.6067 285.392 33.332C286.128 34.0573 286.706 34.9073 287.126 35.882C287.556 36.8567 287.777 37.905 287.789 39.027V46.15C287.789 46.388 287.709 46.592 287.551 46.762C287.392 46.9207 287.194 47 286.956 47C286.729 47 286.542 46.9207 286.395 46.762C286.247 46.592 286.174 46.388 286.174 46.15L286.157 43.855C285.783 44.3537 285.358 44.807 284.882 45.215C284.417 45.623 283.907 45.9743 283.352 46.269C282.808 46.5637 282.224 46.796 281.601 46.966C280.989 47.1247 280.354 47.204 279.697 47.204C278.586 47.204 277.538 46.9943 276.552 46.575C275.566 46.1443 274.704 45.5663 273.968 44.841C273.231 44.1043 272.647 43.243 272.217 42.257C271.797 41.271 271.588 40.2227 271.588 39.112ZM273.22 39.112C273.22 39.996 273.384 40.829 273.713 41.611C274.053 42.393 274.512 43.0787 275.09 43.668C275.679 44.2573 276.365 44.7277 277.147 45.079C277.94 45.419 278.79 45.589 279.697 45.589C280.615 45.589 281.465 45.419 282.247 45.079C283.04 44.7277 283.726 44.2573 284.304 43.668C284.882 43.0787 285.335 42.393 285.664 41.611C286.004 40.829 286.174 39.996 286.174 39.112C286.174 38.2167 286.004 37.3723 285.664 36.579C285.335 35.7857 284.876 35.1 284.287 34.522C283.709 33.9327 283.023 33.468 282.23 33.128C281.448 32.788 280.603 32.618 279.697 32.618C278.79 32.618 277.94 32.788 277.147 33.128C276.365 33.468 275.679 33.9327 275.09 34.522C274.512 35.1 274.053 35.7857 273.713 36.579C273.384 37.3723 273.22 38.2167 273.22 39.112ZM296.199 34.403C296.527 33.893 296.901 33.434 297.321 33.026C297.74 32.6067 298.193 32.2497 298.681 31.955C299.179 31.649 299.701 31.4167 300.245 31.258C300.789 31.088 301.35 31.003 301.928 31.003C302.891 31.003 303.758 31.1787 304.529 31.53C305.311 31.8813 305.974 32.3913 306.518 33.06C307.073 33.7173 307.498 34.5277 307.793 35.491C308.099 36.443 308.257 37.5197 308.269 38.721V46.201C308.269 46.4277 308.189 46.6203 308.031 46.779C307.883 46.9377 307.685 47.017 307.436 47.017C307.209 47.017 307.022 46.9377 306.875 46.779C306.727 46.6203 306.654 46.4277 306.654 46.201V38.806C306.654 36.7887 306.217 35.253 305.345 34.199C304.483 33.145 303.288 32.618 301.758 32.618C300.987 32.618 300.262 32.7767 299.582 33.094C298.913 33.4113 298.329 33.8477 297.831 34.403C297.332 34.947 296.935 35.593 296.641 36.341C296.346 37.0777 296.199 37.8767 296.199 38.738V46.167C296.199 46.3937 296.119 46.592 295.961 46.762C295.813 46.9207 295.626 47 295.4 47C295.173 47 294.98 46.9207 294.822 46.762C294.663 46.592 294.584 46.3937 294.584 46.167V31.802C294.584 31.5753 294.663 31.3827 294.822 31.224C294.98 31.0653 295.173 30.986 295.4 30.986C295.626 30.986 295.813 31.0653 295.961 31.224C296.119 31.3827 296.199 31.5753 296.199 31.802V34.403ZM341.153 26.039C341.153 25.8123 341.073 25.6253 340.915 25.478C340.756 25.3193 340.563 25.24 340.337 25.24C340.11 25.24 339.917 25.3193 339.759 25.478C339.611 25.6253 339.538 25.8123 339.538 26.039V34.216C338.79 33.2187 337.855 32.431 336.733 31.853C335.622 31.275 334.398 30.986 333.061 30.986C331.95 30.986 330.902 31.1957 329.916 31.615C328.93 32.0343 328.068 32.6123 327.332 33.349C326.595 34.0743 326.011 34.93 325.581 35.916C325.161 36.902 324.952 37.956 324.952 39.078C324.952 40.2 325.161 41.254 325.581 42.24C326.011 43.2147 326.595 44.0703 327.332 44.807C328.068 45.5437 328.93 46.1273 329.916 46.558C330.902 46.9773 331.95 47.187 333.061 47.187C334.398 47.187 335.622 46.898 336.733 46.32C337.855 45.7307 338.79 44.9373 339.538 43.94V46.201C339.538 46.4277 339.611 46.6203 339.759 46.779C339.917 46.9263 340.11 47 340.337 47C340.563 47 340.756 46.9263 340.915 46.779C341.073 46.6203 341.153 46.4277 341.153 46.201V26.039ZM326.584 39.078C326.584 38.1827 326.748 37.344 327.077 36.562C327.417 35.78 327.876 35.1 328.454 34.522C329.043 33.9327 329.729 33.4737 330.511 33.145C331.304 32.805 332.154 32.635 333.061 32.635C333.967 32.635 334.812 32.805 335.594 33.145C336.387 33.4737 337.073 33.9327 337.651 34.522C338.24 35.1 338.699 35.78 339.028 36.562C339.368 37.344 339.538 38.1827 339.538 39.078C339.538 39.962 339.368 40.8007 339.028 41.594C338.699 42.376 338.246 43.0617 337.668 43.651C337.09 44.229 336.404 44.6937 335.611 45.045C334.829 45.385 333.979 45.555 333.061 45.555C332.154 45.555 331.304 45.385 330.511 45.045C329.729 44.6937 329.043 44.229 328.454 43.651C327.876 43.0617 327.417 42.376 327.077 41.594C326.748 40.8007 326.584 39.962 326.584 39.078ZM347.012 39.112C347.012 37.99 347.222 36.936 347.641 35.95C348.072 34.9527 348.655 34.0913 349.392 33.366C350.129 32.6293 350.99 32.0513 351.976 31.632C352.962 31.2013 354.01 30.986 355.121 30.986C356.232 30.986 357.274 31.1957 358.249 31.615C359.235 32.0343 360.091 32.6067 360.816 33.332C361.553 34.0573 362.131 34.9073 362.55 35.882C362.981 36.8567 363.202 37.905 363.213 39.027V46.15C363.213 46.388 363.134 46.592 362.975 46.762C362.816 46.9207 362.618 47 362.38 47C362.153 47 361.966 46.9207 361.819 46.762C361.672 46.592 361.598 46.388 361.598 46.15L361.581 43.855C361.207 44.3537 360.782 44.807 360.306 45.215C359.841 45.623 359.331 45.9743 358.776 46.269C358.232 46.5637 357.648 46.796 357.025 46.966C356.413 47.1247 355.778 47.204 355.121 47.204C354.01 47.204 352.962 46.9943 351.976 46.575C350.99 46.1443 350.129 45.5663 349.392 44.841C348.655 44.1043 348.072 43.243 347.641 42.257C347.222 41.271 347.012 40.2227 347.012 39.112ZM348.644 39.112C348.644 39.996 348.808 40.829 349.137 41.611C349.477 42.393 349.936 43.0787 350.514 43.668C351.103 44.2573 351.789 44.7277 352.571 45.079C353.364 45.419 354.214 45.589 355.121 45.589C356.039 45.589 356.889 45.419 357.671 45.079C358.464 44.7277 359.15 44.2573 359.728 43.668C360.306 43.0787 360.759 42.393 361.088 41.611C361.428 40.829 361.598 39.996 361.598 39.112C361.598 38.2167 361.428 37.3723 361.088 36.579C360.759 35.7857 360.3 35.1 359.711 34.522C359.133 33.9327 358.447 33.468 357.654 33.128C356.872 32.788 356.028 32.618 355.121 32.618C354.214 32.618 353.364 32.788 352.571 33.128C351.789 33.468 351.103 33.9327 350.514 34.522C349.936 35.1 349.477 35.7857 349.137 36.579C348.808 37.3723 348.644 38.2167 348.644 39.112ZM371.64 34.437C372.025 33.9157 372.461 33.4453 372.949 33.026C373.436 32.5953 373.969 32.2327 374.547 31.938C375.125 31.632 375.737 31.3997 376.383 31.241C377.029 31.071 377.697 30.986 378.389 30.986H378.542C378.814 30.986 379.023 31.0653 379.171 31.224C379.318 31.3713 379.392 31.5583 379.392 31.785C379.392 32.023 379.307 32.2213 379.137 32.38C378.978 32.5273 378.78 32.601 378.542 32.601H378.389C377.471 32.601 376.604 32.7823 375.788 33.145C374.972 33.4963 374.252 33.9837 373.629 34.607C373.017 35.219 372.529 35.9387 372.167 36.766C371.815 37.5933 371.64 38.483 371.64 39.435V46.167C371.64 46.3937 371.56 46.592 371.402 46.762C371.243 46.9207 371.05 47 370.824 47C370.608 47 370.416 46.9207 370.246 46.762C370.087 46.592 370.008 46.3937 370.008 46.167V31.802C370.008 31.5753 370.087 31.3827 370.246 31.224C370.404 31.0653 370.597 30.986 370.824 30.986C371.062 30.986 371.254 31.0653 371.402 31.224C371.56 31.3827 371.64 31.5753 371.64 31.802V34.437ZM384.625 27.331C384.625 27.6143 384.721 27.858 384.914 28.062C385.118 28.266 385.367 28.368 385.662 28.368C385.968 28.368 386.223 28.266 386.427 28.062C386.631 27.858 386.733 27.6143 386.733 27.331C386.733 27.025 386.631 26.77 386.427 26.566C386.223 26.362 385.968 26.26 385.662 26.26C385.367 26.26 385.118 26.362 384.914 26.566C384.721 26.77 384.625 27.025 384.625 27.331ZM386.478 31.802C386.478 31.5753 386.399 31.3827 386.24 31.224C386.093 31.0653 385.906 30.986 385.679 30.986C385.452 30.986 385.26 31.0653 385.101 31.224C384.942 31.3827 384.863 31.5753 384.863 31.802V46.167C384.863 46.3937 384.942 46.592 385.101 46.762C385.26 46.9207 385.452 47 385.679 47C385.906 47 386.093 46.9207 386.24 46.762C386.399 46.592 386.478 46.3937 386.478 46.167V31.802ZM405.928 31.785C405.928 31.5583 405.849 31.3713 405.69 31.224C405.543 31.0653 405.356 30.986 405.129 30.986C404.903 30.986 404.71 31.0653 404.551 31.224C404.393 31.3713 404.313 31.5583 404.313 31.785V51.947C404.313 52.1737 404.393 52.3607 404.551 52.508C404.71 52.6667 404.903 52.746 405.129 52.746C405.356 52.746 405.543 52.6667 405.69 52.508C405.849 52.3607 405.928 52.1737 405.928 51.947V43.94C406.676 44.9373 407.611 45.7307 408.733 46.32C409.855 46.9093 411.085 47.204 412.422 47.204C413.544 47.204 414.593 46.9943 415.567 46.575C416.553 46.1443 417.409 45.5663 418.134 44.841C418.871 44.1043 419.449 43.243 419.868 42.257C420.299 41.271 420.514 40.2227 420.514 39.112C420.514 37.99 420.299 36.936 419.868 35.95C419.449 34.9527 418.871 34.0913 418.134 33.366C417.409 32.6293 416.553 32.0513 415.567 31.632C414.593 31.2013 413.544 30.986 412.422 30.986C411.754 30.986 411.108 31.0653 410.484 31.224C409.872 31.3713 409.289 31.5923 408.733 31.887C408.178 32.1703 407.662 32.516 407.186 32.924C406.722 33.3207 406.302 33.7627 405.928 34.25V31.785ZM405.945 39.112C405.945 38.2167 406.11 37.3723 406.438 36.579C406.778 35.7857 407.237 35.1 407.815 34.522C408.405 33.9327 409.09 33.468 409.872 33.128C410.666 32.788 411.516 32.618 412.422 32.618C413.329 32.618 414.173 32.788 414.955 33.128C415.749 33.468 416.434 33.9327 417.012 34.522C417.602 35.1 418.061 35.7857 418.389 36.579C418.729 37.3723 418.899 38.2167 418.899 39.112C418.899 39.996 418.729 40.829 418.389 41.611C418.061 42.393 417.607 43.0787 417.029 43.668C416.451 44.2573 415.766 44.7277 414.972 45.079C414.19 45.419 413.34 45.589 412.422 45.589C411.516 45.589 410.666 45.419 409.872 45.079C409.09 44.7277 408.405 44.2573 407.815 43.668C407.237 43.0787 406.778 42.393 406.438 41.611C406.11 40.829 405.945 39.996 405.945 39.112ZM427.972 34.437C428.358 33.9157 428.794 33.4453 429.281 33.026C429.769 32.5953 430.301 32.2327 430.879 31.938C431.457 31.632 432.069 31.3997 432.715 31.241C433.361 31.071 434.03 30.986 434.721 30.986H434.874C435.146 30.986 435.356 31.0653 435.503 31.224C435.651 31.3713 435.724 31.5583 435.724 31.785C435.724 32.023 435.639 32.2213 435.469 32.38C435.311 32.5273 435.112 32.601 434.874 32.601H434.721C433.803 32.601 432.936 32.7823 432.12 33.145C431.304 33.4963 430.585 33.9837 429.961 34.607C429.349 35.219 428.862 35.9387 428.499 36.766C428.148 37.5933 427.972 38.483 427.972 39.435V46.167C427.972 46.3937 427.893 46.592 427.734 46.762C427.576 46.9207 427.383 47 427.156 47C426.941 47 426.748 46.9207 426.578 46.762C426.42 46.592 426.34 46.3937 426.34 46.167V31.802C426.34 31.5753 426.42 31.3827 426.578 31.224C426.737 31.0653 426.93 30.986 427.156 30.986C427.394 30.986 427.587 31.0653 427.734 31.224C427.893 31.3827 427.972 31.5753 427.972 31.802V34.437ZM440.895 39.112C440.895 38.2167 441.06 37.3723 441.388 36.579C441.728 35.7857 442.187 35.1 442.765 34.522C443.355 33.9327 444.04 33.468 444.822 33.128C445.616 32.788 446.466 32.618 447.372 32.618C448.279 32.618 449.123 32.788 449.905 33.128C450.699 33.468 451.384 33.9327 451.962 34.522C452.552 35.1 453.011 35.7857 453.339 36.579C453.679 37.3723 453.849 38.2167 453.849 39.112C453.849 39.996 453.679 40.829 453.339 41.611C453.011 42.393 452.557 43.0787 451.979 43.668C451.401 44.2573 450.716 44.7277 449.922 45.079C449.14 45.419 448.29 45.589 447.372 45.589C446.466 45.589 445.616 45.419 444.822 45.079C444.04 44.7277 443.355 44.2573 442.765 43.668C442.187 43.0787 441.728 42.393 441.388 41.611C441.06 40.829 440.895 39.996 440.895 39.112ZM439.263 39.112C439.263 40.2227 439.473 41.271 439.892 42.257C440.323 43.243 440.907 44.1043 441.643 44.841C442.38 45.5663 443.241 46.1443 444.227 46.575C445.213 46.9943 446.262 47.204 447.372 47.204C448.494 47.204 449.543 46.9943 450.517 46.575C451.503 46.1443 452.359 45.5663 453.084 44.841C453.821 44.1043 454.399 43.243 454.818 42.257C455.249 41.271 455.464 40.2227 455.464 39.112C455.464 37.99 455.249 36.936 454.818 35.95C454.399 34.9527 453.821 34.0913 453.084 33.366C452.359 32.6293 451.503 32.0513 450.517 31.632C449.543 31.2013 448.494 30.986 447.372 30.986C446.262 30.986 445.213 31.2013 444.227 31.632C443.241 32.0513 442.38 32.6293 441.643 33.366C440.907 34.0913 440.323 34.9527 439.892 35.95C439.473 36.936 439.263 37.99 439.263 39.112ZM465.444 39.435C466.045 39.605 466.612 39.7863 467.144 39.979C467.677 40.1603 468.142 40.3757 468.538 40.625C468.946 40.8743 469.264 41.169 469.49 41.509C469.728 41.849 469.847 42.257 469.847 42.733C469.847 43.1863 469.74 43.6 469.524 43.974C469.309 44.3367 469.02 44.654 468.657 44.926C468.295 45.1867 467.881 45.3907 467.416 45.538C466.952 45.674 466.476 45.742 465.988 45.742C465.014 45.742 464.186 45.5777 463.506 45.249C462.826 44.909 462.277 44.3763 461.857 43.651C461.687 43.4357 461.495 43.311 461.279 43.277C461.075 43.2317 460.894 43.2543 460.735 43.345C460.577 43.4357 460.463 43.5773 460.395 43.77C460.339 43.9627 460.378 44.178 460.514 44.416C460.741 44.8807 461.041 45.2887 461.415 45.64C461.801 45.98 462.231 46.269 462.707 46.507C463.183 46.7337 463.699 46.9037 464.254 47.017C464.81 47.1303 465.388 47.187 465.988 47.187C466.736 47.187 467.439 47.0737 468.096 46.847C468.754 46.6203 469.326 46.303 469.813 45.895C470.312 45.487 470.703 45.011 470.986 44.467C471.27 43.9117 471.411 43.311 471.411 42.665C471.411 41.9737 471.258 41.39 470.952 40.914C470.658 40.4267 470.255 40.0073 469.745 39.656C469.247 39.3047 468.657 39.01 467.977 38.772C467.309 38.5227 466.6 38.2847 465.852 38.058C465.388 37.922 464.946 37.7747 464.526 37.616C464.107 37.446 463.733 37.2477 463.404 37.021C463.087 36.783 462.832 36.511 462.639 36.205C462.447 35.8877 462.35 35.508 462.35 35.066C462.35 34.5673 462.458 34.148 462.673 33.808C462.9 33.468 463.183 33.196 463.523 32.992C463.875 32.788 464.266 32.6407 464.696 32.55C465.127 32.4593 465.552 32.414 465.971 32.414C466.753 32.414 467.433 32.5727 468.011 32.89C468.601 33.196 469.139 33.672 469.626 34.318C469.762 34.3973 469.904 34.42 470.051 34.386C470.21 34.352 470.346 34.284 470.459 34.182C470.686 33.9553 470.714 33.672 470.544 33.332C470.329 32.9353 470.057 32.5897 469.728 32.295C469.4 32.0003 469.031 31.7567 468.623 31.564C468.215 31.36 467.779 31.2127 467.314 31.122C466.85 31.02 466.368 30.969 465.869 30.969C465.246 30.969 464.628 31.054 464.016 31.224C463.404 31.394 462.855 31.6547 462.367 32.006C461.88 32.346 461.483 32.7767 461.177 33.298C460.871 33.808 460.718 34.4087 460.718 35.1C460.718 35.7347 460.849 36.2843 461.109 36.749C461.381 37.2023 461.738 37.599 462.18 37.939C462.622 38.279 463.127 38.568 463.693 38.806C464.26 39.044 464.844 39.2537 465.444 39.435ZM491.781 39.843C492.007 39.843 492.194 39.7693 492.342 39.622C492.489 39.4747 492.563 39.2877 492.563 39.061C492.563 37.9503 492.347 36.9077 491.917 35.933C491.486 34.947 490.902 34.0913 490.166 33.366C489.44 32.6293 488.585 32.0513 487.599 31.632C486.613 31.2127 485.564 31.003 484.454 31.003C483.332 31.003 482.278 31.2183 481.292 31.649C480.317 32.0683 479.461 32.6463 478.725 33.383C477.988 34.1083 477.404 34.964 476.974 35.95C476.554 36.9247 476.345 37.973 476.345 39.095C476.345 40.217 476.554 41.271 476.974 42.257C477.404 43.243 477.988 44.1043 478.725 44.841C479.461 45.5663 480.317 46.1443 481.292 46.575C482.278 46.9943 483.332 47.204 484.454 47.204C485.734 47.204 486.862 46.966 487.837 46.49C488.823 46.0027 489.644 45.3907 490.302 44.654C490.506 44.4727 490.602 44.28 490.591 44.076C490.591 43.8607 490.528 43.6793 490.404 43.532C490.302 43.3733 490.183 43.2713 490.047 43.226C489.775 43.1353 489.503 43.2033 489.231 43.43C488.709 44.11 488.024 44.6483 487.174 45.045C486.335 45.4417 485.428 45.64 484.454 45.64C483.615 45.64 482.827 45.4927 482.091 45.198C481.365 44.892 480.719 44.4783 480.153 43.957C479.586 43.4357 479.121 42.8237 478.759 42.121C478.407 41.4183 478.198 40.659 478.13 39.843H491.781ZM478.079 38.466C478.135 37.65 478.339 36.885 478.691 36.171C479.053 35.4457 479.518 34.8167 480.085 34.284C480.651 33.74 481.309 33.315 482.057 33.009C482.816 32.703 483.621 32.55 484.471 32.55C485.321 32.55 486.12 32.703 486.868 33.009C487.627 33.315 488.296 33.7343 488.874 34.267C489.452 34.7997 489.916 35.4287 490.268 36.154C490.63 36.868 490.84 37.6387 490.897 38.466H478.079ZM502.526 39.435C503.126 39.605 503.693 39.7863 504.226 39.979C504.758 40.1603 505.223 40.3757 505.62 40.625C506.028 40.8743 506.345 41.169 506.572 41.509C506.81 41.849 506.929 42.257 506.929 42.733C506.929 43.1863 506.821 43.6 506.606 43.974C506.39 44.3367 506.101 44.654 505.739 44.926C505.376 45.1867 504.962 45.3907 504.498 45.538C504.033 45.674 503.557 45.742 503.07 45.742C502.095 45.742 501.268 45.5777 500.588 45.249C499.908 44.909 499.358 44.3763 498.939 43.651C498.769 43.4357 498.576 43.311 498.361 43.277C498.157 43.2317 497.975 43.2543 497.817 43.345C497.658 43.4357 497.545 43.5773 497.477 43.77C497.42 43.9627 497.46 44.178 497.596 44.416C497.822 44.8807 498.123 45.2887 498.497 45.64C498.882 45.98 499.313 46.269 499.789 46.507C500.265 46.7337 500.78 46.9037 501.336 47.017C501.891 47.1303 502.469 47.187 503.07 47.187C503.818 47.187 504.52 47.0737 505.178 46.847C505.835 46.6203 506.407 46.303 506.895 45.895C507.393 45.487 507.784 45.011 508.068 44.467C508.351 43.9117 508.493 43.311 508.493 42.665C508.493 41.9737 508.34 41.39 508.034 40.914C507.739 40.4267 507.337 40.0073 506.827 39.656C506.328 39.3047 505.739 39.01 505.059 38.772C504.39 38.5227 503.682 38.2847 502.934 38.058C502.469 37.922 502.027 37.7747 501.608 37.616C501.188 37.446 500.814 37.2477 500.486 37.021C500.168 36.783 499.913 36.511 499.721 36.205C499.528 35.8877 499.432 35.508 499.432 35.066C499.432 34.5673 499.539 34.148 499.755 33.808C499.981 33.468 500.265 33.196 500.605 32.992C500.956 32.788 501.347 32.6407 501.778 32.55C502.208 32.4593 502.633 32.414 503.053 32.414C503.835 32.414 504.515 32.5727 505.093 32.89C505.682 33.196 506.22 33.672 506.708 34.318C506.844 34.3973 506.985 34.42 507.133 34.386C507.291 34.352 507.427 34.284 507.541 34.182C507.767 33.9553 507.796 33.672 507.626 33.332C507.41 32.9353 507.138 32.5897 506.81 32.295C506.481 32.0003 506.113 31.7567 505.705 31.564C505.297 31.36 504.86 31.2127 504.396 31.122C503.931 31.02 503.449 30.969 502.951 30.969C502.327 30.969 501.71 31.054 501.098 31.224C500.486 31.394 499.936 31.6547 499.449 32.006C498.961 32.346 498.565 32.7767 498.259 33.298C497.953 33.808 497.8 34.4087 497.8 35.1C497.8 35.7347 497.93 36.2843 498.191 36.749C498.463 37.2023 498.82 37.599 499.262 37.939C499.704 38.279 500.208 38.568 500.775 38.806C501.341 39.044 501.925 39.2537 502.526 39.435ZM81.3842 73.28C82.8242 73.28 84.2082 73.464 85.5362 73.832C86.8642 74.184 88.1042 74.696 89.2562 75.368C90.4242 76.024 91.4802 76.824 92.4242 77.768C93.3842 78.696 94.2002 79.728 94.8722 80.864C95.5602 82 96.0882 83.232 96.4562 84.56C96.8402 85.872 97.0322 87.248 97.0322 88.688C97.0322 90.128 96.8402 91.504 96.4562 92.816C96.0882 94.128 95.5602 95.352 94.8722 96.488C94.2002 97.624 93.3842 98.656 92.4242 99.584C91.4802 100.496 90.4242 101.28 89.2562 101.936C88.1042 102.592 86.8642 103.104 85.5362 103.472C84.2082 103.824 82.8242 104 81.3842 104H76.0322C75.6162 104 75.2242 103.928 74.8562 103.784C74.5042 103.624 74.1922 103.416 73.9202 103.16C73.6482 102.888 73.4322 102.576 73.2722 102.224C73.1282 101.872 73.0562 101.488 73.0562 101.072V76.208C73.0562 75.792 73.1282 75.408 73.2722 75.056C73.4322 74.704 73.6482 74.4 73.9202 74.144C74.1922 73.872 74.5042 73.664 74.8562 73.52C75.2242 73.36 75.6162 73.28 76.0322 73.28H81.3842ZM91.0322 88.688C91.0322 87.36 90.7842 86.128 90.2882 84.992C89.7922 83.84 89.1042 82.848 88.2242 82.016C87.3602 81.168 86.3442 80.504 85.1762 80.024C84.0082 79.544 82.7522 79.304 81.4082 79.304H79.0082V98.024H81.4082C82.7522 98.024 84.0082 97.792 85.1762 97.328C86.3442 96.864 87.3602 96.224 88.2242 95.408C89.1042 94.576 89.7922 93.592 90.2882 92.456C90.7842 91.304 91.0322 90.048 91.0322 88.688ZM142.434 104C142.85 104.016 143.234 103.952 143.586 103.808C143.938 103.648 144.242 103.44 144.498 103.184C144.77 102.912 144.978 102.6 145.122 102.248C145.282 101.88 145.362 101.488 145.362 101.072C145.362 100.656 145.282 100.272 145.122 99.92C144.978 99.552 144.77 99.232 144.498 98.96C144.242 98.688 143.938 98.472 143.586 98.312C143.234 98.152 142.85 98.072 142.434 98.072H133.194V91.592H139.722C140.138 91.592 140.522 91.52 140.874 91.376C141.242 91.232 141.562 91.032 141.834 90.776C142.106 90.52 142.314 90.224 142.458 89.888C142.618 89.536 142.698 89.152 142.698 88.736C142.698 88.32 142.618 87.936 142.458 87.584C142.314 87.216 142.106 86.904 141.834 86.648C141.562 86.376 141.242 86.168 140.874 86.024C140.522 85.864 140.138 85.792 139.722 85.808H133.194V79.232H142.434C142.85 79.232 143.234 79.16 143.586 79.016C143.938 78.856 144.242 78.64 144.498 78.368C144.77 78.096 144.978 77.784 145.122 77.432C145.282 77.064 145.362 76.672 145.362 76.256C145.362 75.84 145.282 75.456 145.122 75.104C144.978 74.736 144.77 74.416 144.498 74.144C144.242 73.872 143.938 73.664 143.586 73.52C143.234 73.36 142.85 73.28 142.434 73.28H130.218C129.802 73.28 129.41 73.36 129.042 73.52C128.674 73.664 128.354 73.872 128.082 74.144C127.826 74.416 127.618 74.736 127.458 75.104C127.314 75.456 127.242 75.84 127.242 76.256V101.072C127.242 101.888 127.498 102.56 128.01 103.088C128.538 103.616 129.194 103.92 129.978 104H142.434ZM180.874 87.392L178.882 101.456C178.818 101.872 178.682 102.248 178.474 102.584C178.282 102.904 178.034 103.176 177.73 103.4C177.426 103.624 177.082 103.784 176.698 103.88C176.314 103.976 175.922 104 175.522 103.952C175.106 103.888 174.73 103.76 174.394 103.568C174.058 103.36 173.778 103.104 173.554 102.8C173.33 102.496 173.162 102.16 173.05 101.792C172.954 101.424 172.938 101.032 173.002 100.616L176.506 76.016C176.538 75.696 176.618 75.4 176.746 75.128C176.89 74.856 177.066 74.608 177.274 74.384C177.61 74.016 178.002 73.744 178.45 73.568C178.818 73.424 179.194 73.352 179.578 73.352C179.962 73.352 180.33 73.424 180.682 73.568C181.034 73.712 181.346 73.92 181.618 74.192C181.906 74.448 182.138 74.768 182.314 75.152L189.73 93.296L197.098 75.152C197.258 74.784 197.474 74.464 197.746 74.192C198.018 73.92 198.322 73.712 198.658 73.568C199.01 73.424 199.378 73.352 199.762 73.352C200.146 73.352 200.53 73.424 200.914 73.568C201.138 73.68 201.37 73.816 201.61 73.976C201.946 74.2 202.226 74.488 202.45 74.84C202.674 75.192 202.818 75.592 202.882 76.04L206.122 100.688C206.17 101.104 206.138 101.504 206.026 101.888C205.914 102.256 205.738 102.592 205.498 102.896C205.258 103.184 204.962 103.424 204.61 103.616C204.274 103.808 203.906 103.928 203.506 103.976C203.106 104.024 202.714 104 202.33 103.904C201.962 103.792 201.626 103.624 201.322 103.4C201.018 103.176 200.762 102.896 200.554 102.56C200.362 102.224 200.242 101.848 200.194 101.432L198.37 87.584L192.418 102.176C192.194 102.688 191.866 103.104 191.434 103.424C191.018 103.728 190.554 103.912 190.042 103.976L189.97 104H189.394C189.346 104 189.298 103.992 189.25 103.976C189.17 103.976 189.114 103.968 189.082 103.952C189.05 103.952 189.026 103.952 189.01 103.952C188.994 103.936 188.97 103.928 188.938 103.928L188.746 103.88L188.578 103.808C188.21 103.68 187.882 103.48 187.594 103.208C187.322 102.92 187.098 102.576 186.922 102.176L180.874 87.392ZM249.077 73.064C247.637 73.064 246.253 73.256 244.925 73.64C243.597 74.008 242.357 74.528 241.205 75.2C240.053 75.872 239.005 76.688 238.061 77.648C237.117 78.592 236.309 79.648 235.637 80.816C234.965 81.968 234.445 83.208 234.077 84.536C233.709 85.864 233.525 87.248 233.525 88.688C233.525 90.848 233.925 92.872 234.725 94.76C235.541 96.648 236.645 98.304 238.037 99.728C239.445 101.136 241.093 102.248 242.981 103.064C244.885 103.88 246.917 104.288 249.077 104.288C251.237 104.288 253.261 103.88 255.149 103.064C257.053 102.248 258.709 101.136 260.117 99.728C261.541 98.304 262.661 96.648 263.477 94.76C264.309 92.872 264.725 90.848 264.725 88.688C264.725 87.248 264.533 85.864 264.149 84.536C263.781 83.208 263.253 81.968 262.565 80.816C261.893 79.648 261.077 78.592 260.117 77.648C259.173 76.688 258.117 75.872 256.949 75.2C255.797 74.528 254.557 74.008 253.229 73.64C251.901 73.256 250.517 73.064 249.077 73.064ZM249.101 79.088C250.445 79.088 251.701 79.344 252.869 79.856C254.037 80.352 255.053 81.032 255.917 81.896C256.797 82.76 257.485 83.776 257.981 84.944C258.477 86.112 258.725 87.36 258.725 88.688C258.725 90.048 258.477 91.312 257.981 92.48C257.485 93.648 256.797 94.664 255.917 95.528C255.053 96.392 254.037 97.072 252.869 97.568C251.701 98.064 250.445 98.312 249.101 98.312C247.757 98.312 246.501 98.064 245.333 97.568C244.165 97.072 243.149 96.392 242.285 95.528C241.421 94.664 240.741 93.648 240.245 92.48C239.749 91.312 239.501 90.048 239.501 88.688C239.501 87.36 239.749 86.112 240.245 84.944C240.741 83.776 241.421 82.76 242.285 81.896C243.149 81.032 244.165 80.352 245.333 79.856C246.501 79.344 247.757 79.088 249.101 79.088ZM300.766 76.208C300.766 75.792 300.686 75.408 300.526 75.056C300.366 74.704 300.15 74.4 299.878 74.144C299.622 73.872 299.31 73.664 298.942 73.52C298.574 73.36 298.19 73.28 297.79 73.28C297.374 73.28 296.982 73.36 296.614 73.52C296.262 73.664 295.95 73.872 295.678 74.144C295.406 74.4 295.19 74.704 295.03 75.056C294.886 75.408 294.814 75.792 294.814 76.208V101.072C294.814 101.488 294.886 101.872 295.03 102.224C295.19 102.576 295.406 102.888 295.678 103.16C295.95 103.416 296.262 103.624 296.614 103.784C296.982 103.928 297.374 104 297.79 104C298.19 104 298.574 103.928 298.942 103.784C299.31 103.624 299.622 103.416 299.878 103.16C300.15 102.888 300.366 102.576 300.526 102.224C300.686 101.872 300.766 101.488 300.766 101.072V93.056L303.862 90.104L312.286 102.68C312.51 103.016 312.782 103.296 313.102 103.52C313.438 103.728 313.79 103.872 314.158 103.952C314.542 104.016 314.926 104.016 315.31 103.952C315.694 103.872 316.054 103.712 316.39 103.472C316.726 103.248 317.006 102.976 317.23 102.656C317.454 102.336 317.598 101.992 317.662 101.624C317.742 101.24 317.742 100.856 317.662 100.472C317.598 100.088 317.446 99.72 317.206 99.368L308.278 85.952L316.198 78.44C316.502 78.152 316.726 77.824 316.87 77.456C317.03 77.088 317.11 76.712 317.11 76.328C317.126 75.944 317.062 75.576 316.918 75.224C316.774 74.856 316.566 74.528 316.294 74.24C316.006 73.936 315.678 73.704 315.31 73.544C314.942 73.384 314.566 73.296 314.182 73.28C313.814 73.264 313.446 73.328 313.078 73.472C312.71 73.6 312.374 73.808 312.07 74.096L300.766 84.896V76.208ZM368.157 82.592C368.157 81.296 367.909 80.088 367.413 78.968C366.933 77.832 366.261 76.848 365.397 76.016C364.549 75.168 363.549 74.504 362.397 74.024C361.261 73.528 360.045 73.28 358.749 73.28H350.757C350.341 73.28 349.949 73.36 349.581 73.52C349.229 73.664 348.917 73.872 348.645 74.144C348.373 74.4 348.157 74.704 347.997 75.056C347.853 75.408 347.781 75.792 347.781 76.208V101.072C347.781 101.488 347.853 101.872 347.997 102.224C348.157 102.576 348.373 102.888 348.645 103.16C348.917 103.416 349.229 103.624 349.581 103.784C349.949 103.928 350.341 104 350.757 104C351.157 104 351.541 103.928 351.909 103.784C352.277 103.624 352.589 103.416 352.845 103.16C353.117 102.888 353.333 102.576 353.493 102.224C353.653 101.872 353.733 101.488 353.733 101.072V91.832H356.493L362.517 102.512C362.725 102.864 362.981 103.16 363.285 103.4C363.589 103.624 363.917 103.792 364.269 103.904C364.637 104 365.013 104.024 365.397 103.976C365.781 103.928 366.157 103.808 366.525 103.616C366.877 103.424 367.173 103.176 367.413 102.872C367.669 102.568 367.845 102.232 367.941 101.864C368.053 101.496 368.093 101.12 368.061 100.736C368.029 100.352 367.909 99.976 367.701 99.608L362.805 90.944C363.589 90.576 364.309 90.112 364.965 89.552C365.637 88.976 366.205 88.328 366.669 87.608C367.133 86.888 367.493 86.104 367.749 85.256C368.021 84.408 368.157 83.52 368.157 82.592ZM358.773 79.16C359.221 79.16 359.653 79.248 360.069 79.424C360.485 79.584 360.845 79.816 361.149 80.12C361.469 80.408 361.725 80.752 361.917 81.152C362.109 81.552 362.205 81.976 362.205 82.424C362.205 82.872 362.109 83.304 361.917 83.72C361.725 84.136 361.469 84.504 361.149 84.824C360.845 85.144 360.485 85.4 360.069 85.592C359.653 85.784 359.221 85.88 358.773 85.88H353.733V79.16H358.773ZM418.424 102.224C418.6 102.608 418.832 102.936 419.12 103.208C419.424 103.48 419.752 103.68 420.104 103.808C420.472 103.936 420.848 104 421.232 104C421.632 104 422.024 103.912 422.408 103.736C422.792 103.56 423.104 103.328 423.344 103.04C423.6 102.752 423.784 102.44 423.896 102.104C424.008 101.752 424.048 101.384 424.016 101C424 100.6 423.912 100.208 423.752 99.824L413.12 75.056C412.88 74.496 412.52 74.064 412.04 73.76C411.56 73.44 411.032 73.28 410.456 73.28C409.832 73.28 409.28 73.44 408.8 73.76C408.336 74.08 407.976 74.52 407.72 75.08L396.944 99.824C396.768 100.208 396.672 100.6 396.656 101C396.64 101.384 396.688 101.752 396.8 102.104C396.928 102.456 397.12 102.776 397.376 103.064C397.632 103.352 397.952 103.576 398.336 103.736C398.72 103.896 399.112 103.984 399.512 104C399.928 104 400.32 103.936 400.688 103.808C401.056 103.68 401.384 103.48 401.672 103.208C401.96 102.936 402.184 102.608 402.344 102.224L404.816 96.152H415.88L418.424 102.224ZM410.288 82.784L413.384 90.2H407.264L410.288 82.784ZM463.009 91.808C463.537 91.904 464.073 92.008 464.617 92.12C465.177 92.232 465.681 92.4 466.129 92.624C466.577 92.848 466.945 93.152 467.233 93.536C467.521 93.904 467.665 94.408 467.665 95.048C467.665 95.576 467.521 96.048 467.233 96.464C466.961 96.864 466.593 97.208 466.129 97.496C465.665 97.768 465.137 97.984 464.545 98.144C463.969 98.288 463.377 98.36 462.769 98.36C461.489 98.36 460.393 98.128 459.481 97.664C458.569 97.2 457.777 96.512 457.105 95.6C456.417 94.752 455.745 94.216 455.089 93.992C454.449 93.752 453.753 93.832 453.001 94.232C452.681 94.408 452.401 94.632 452.161 94.904C451.921 95.16 451.737 95.464 451.609 95.816C451.497 96.168 451.449 96.552 451.465 96.968C451.497 97.384 451.625 97.832 451.849 98.312C452.233 99.128 452.777 99.904 453.481 100.64C454.185 101.36 455.001 101.992 455.929 102.536C456.857 103.08 457.881 103.512 459.001 103.832C460.137 104.152 461.321 104.312 462.553 104.312C464.137 104.312 465.601 104.064 466.945 103.568C468.289 103.056 469.449 102.368 470.425 101.504C471.417 100.64 472.193 99.624 472.753 98.456C473.313 97.288 473.593 96.04 473.593 94.712C473.593 93.352 473.337 92.184 472.825 91.208C472.329 90.232 471.673 89.408 470.857 88.736C470.041 88.064 469.113 87.52 468.073 87.104C467.033 86.672 465.969 86.336 464.881 86.096C463.825 85.888 462.873 85.696 462.025 85.52C461.193 85.328 460.481 85.104 459.889 84.848C459.313 84.576 458.865 84.256 458.545 83.888C458.241 83.504 458.089 83.008 458.089 82.4C458.089 81.904 458.193 81.456 458.401 81.056C458.625 80.64 458.937 80.28 459.337 79.976C459.753 79.672 460.241 79.44 460.801 79.28C461.377 79.104 462.017 79.016 462.721 79.016C463.361 79.016 463.905 79.056 464.353 79.136C464.817 79.216 465.233 79.336 465.601 79.496C465.969 79.656 466.321 79.856 466.657 80.096C466.993 80.336 467.377 80.608 467.809 80.912C468.145 81.136 468.489 81.288 468.841 81.368C469.193 81.448 469.529 81.472 469.849 81.44C470.185 81.392 470.497 81.304 470.785 81.176C471.073 81.048 471.321 80.88 471.529 80.672C471.705 80.512 471.857 80.312 471.985 80.072C472.129 79.832 472.233 79.576 472.297 79.304C472.361 79.016 472.377 78.728 472.345 78.44C472.313 78.152 472.217 77.872 472.057 77.6C471.609 76.848 471.041 76.192 470.353 75.632C469.681 75.056 468.929 74.584 468.097 74.216C467.281 73.832 466.401 73.544 465.457 73.352C464.529 73.16 463.585 73.064 462.625 73.064C461.201 73.064 459.849 73.296 458.569 73.76C457.305 74.224 456.193 74.872 455.233 75.704C454.273 76.536 453.513 77.528 452.953 78.68C452.393 79.832 452.113 81.088 452.113 82.448C452.113 83.792 452.369 84.984 452.881 86.024C453.393 87.064 454.121 87.968 455.065 88.736C456.009 89.488 457.153 90.12 458.497 90.632C459.841 91.128 461.345 91.52 463.009 91.808ZM509.681 76.208C509.681 75.792 509.601 75.408 509.441 75.056C509.281 74.704 509.065 74.4 508.793 74.144C508.537 73.872 508.225 73.664 507.857 73.52C507.489 73.36 507.105 73.28 506.705 73.28C506.289 73.28 505.897 73.36 505.529 73.52C505.177 73.664 504.865 73.872 504.593 74.144C504.321 74.4 504.105 74.704 503.945 75.056C503.801 75.408 503.729 75.792 503.729 76.208V101.072C503.729 101.488 503.801 101.872 503.945 102.224C504.105 102.576 504.321 102.888 504.593 103.16C504.865 103.416 505.177 103.624 505.529 103.784C505.897 103.928 506.289 104 506.705 104C507.105 104 507.489 103.928 507.857 103.784C508.225 103.624 508.537 103.416 508.793 103.16C509.065 102.888 509.281 102.576 509.441 102.224C509.601 101.872 509.681 101.488 509.681 101.072V76.208Z" fill="white"/>
<path d="M35 27V120H518" stroke="white" stroke-width="4"/>
<ellipse cx="34.7081" cy="33.1305" rx="34.7081" ry="33.1305" fill="#8D0507"/>
<path d="M23.0102 40.06V31.6L26.0102 24.46H32.1902L30.2702 31.36H33.9902V40.06H23.0102ZM36.7502 40.06V31.6L39.7502 24.46H45.9302L44.0102 31.36H47.7302V40.06H36.7502Z" fill="white"/>
</svg>
